<?xml version="1.0" encoding="UTF-8"?>
<svg id="Layer_2" data-name="Layer 2" xmlns="http://www.w3.org/2000/svg" xmlns:xlink="http://www.w3.org/1999/xlink" viewBox="0 0 327.05 465.46">
  <defs>
    <style>
      .cls-1 {
        stroke-linecap: round;
        stroke-linejoin: round;
        stroke-width: 3px;
      }

      .cls-1, .cls-2 {
        stroke: #000;
      }

      .cls-3 {
        fill: #d68569;
        opacity: .5;
      }

      .cls-4 {
        fill: #1e0f00;
      }

      .cls-5 {
        fill: url(#Namnlös_övertoning_23-2);
      }

      .cls-6 {
        fill: #fff;
      }

      .cls-7 {
        fill: url(#Namnlös_övertoning_23);
      }

      .cls-2 {
        fill: none;
        stroke-miterlimit: 10;
        stroke-width: 12px;
      }

      .cls-8 {
        fill: #efdfcb;
      }
    </style>
    <linearGradient id="Namnlös_övertoning_23" data-name="Namnlös övertoning 23" x1="213.7" y1="212.41" x2="262.23" y2="212.41" gradientUnits="userSpaceOnUse">
      <stop offset="0" stop-color="#fff"/>
      <stop offset="1" stop-color="#fff" stop-opacity="0"/>
    </linearGradient>
    <linearGradient id="Namnlös_övertoning_23-2" data-name="Namnlös övertoning 23" x1="278.62" y1="230.99" x2="314.83" y2="230.99" xlink:href="#Namnlös_övertoning_23"/>
  </defs>
  <g id="Lager_1" data-name="Lager 1">
    <g>
      <path class="cls-2" d="M299.79,194.44c-.13,0-.25,0-.38.01-.7-.46-1.43-.83-2.21-1.12.01-.23.04-.46.04-.69.15-4.02-.11-8.05-.31-12.06-.33-6.77-.51-13.53-.5-20.31,4.92,4.36,10.72,7.66,17.03,9.62.58.18,1.22-.22,1.38-.79,6.88-24.3,8.65-50.48,2.13-75.06-5.44-20.49-16.82-39.77-33.3-53.29-9.11-7.47-19.63-12.8-30.59-17-11.39-4.37-23.18-7.97-35-10.99-24.51-6.27-50-9.04-75.07-4.51-22.69,4.1-43.63,14.77-61.6,29.03-4.46,3.54-8.74,7.3-12.85,11.24-.89.86-1.69,1.98-2.9,2.33-1.2.35-2.39.73-3.56,1.14-2.05.72-4.06,1.53-6.04,2.43-7.4,3.39-14.13,8.2-19.73,14.11-10.08,10.65-16.28,24.36-19.91,38.43-3.06,11.85-4.52,24.23-5.04,36.44-1.03,24.32,4.42,47.95,10.75,71.26,1.64,6.04,3.32,12.07,4.93,18.12,1.4,5.23,2.66,10.49,4.26,15.67,2.85,9.21,6.18,18.26,8.45,27.65,1.37,5.67,2.39,11.41,3.08,17.2.02.21.1.38.2.53-4.2,25.93-12.32,51.09-20.79,75.9-2.25,6.59-4.63,13.16-7.41,19.55-2.42,5.54-5.11,11.07-8.69,15.96-.49.67.16,1.76.97,1.69,5-.43,9.39,1.2,12.42,5.27,1.39,1.86,2.5,3.93,2.68,6.29.25,3.15-.8,6.26-2.08,9.09-.51,1.13.78,2.28,1.77,1.36,3.35-3.1,9.32-5.46,13.65-2.98,4.4,2.52,5.17,8.97,5.15,13.51,0,1.14,1.52,1.5,2.1.57,1.65-2.65,4.03-4.92,6.97-6.07,2.13-.83,5.07-1.32,7.02.16,1.96,1.48,3.09,4.06,3.92,6.29.96,2.56,1.62,5.23,2.12,7.92.15.82,1.34,1.09,1.88.5,2.08-2.3,4.33-4.52,6.96-6.21,2.33-1.49,5.25-2.79,8.02-1.76,6.21,2.3,5.39,10.82,6.74,16.07.23.89,1.62,1.15,2.06.27,1.1-2.24,1.88-4.65,3.32-6.72,1.72-2.48,4.44-3.74,7.41-3.94,6.52-.43,7.91,7.46,9.79,12.13.36.89,1.99,1.24,2.17,0,.84-5.77,4.25-14,11.41-13.1,3.16.4,5.52,2.07,7.63,4.35,1.92,2.07,2.49,4.54,2.59,7.3.05,1.2,2,1.61,2.21.3.38-2.37.52-5.24,1.96-7.25,1.64-2.29,4.9-2.8,7.5-2.29,5.2,1.04,9.13,5.33,11.04,10.1.42,1.06,2.37,1.08,2.21-.3-.55-4.66.04-10.61,3.07-14.4,3.28-4.11,8.5-4.05,13.25-3.47.92.11,1.31-1.02.97-1.69-2.47-4.92-4.78-9.89-6.2-15.22-.62-2.33-1.32-4.79-1.45-7.21-.12-2.18.01-4.39.22-6.56.45-4.66,2.32-8.79,4.83-12.73,2.84-4.45,7.12-7.34,12.03-9.17,6.3-2.36,13.12-2.98,19.78-2.27.21.02.38-.02.52-.08,1.44.18,2.9.26,4.4.23,5.56-.11,11.25-1.6,15.95-4.62,8.18-5.24,10.88-14.72,11.66-23.89.19-2.2-.04-4.62.81-6.7.75-1.85,2.16-3.34,3.57-4.72,3.09-3.03,7.18-6.11,8.6-10.38,1.43-4.3-1.91-9.78,2.64-12.87,3.03-2.06,6.91-2.39,9.76-4.79,3.33-2.8,3.68-8.04,3.85-12.07.21-5.14-.34-10.27-.17-15.41.07-2.18.38-4.24.9-6.33,4.74-2.32,9.57-4.52,14.74-5.7,2.37-.54,4.66-1.01,6.2-3.06,1.27-1.69,1.7-3.85,1.77-5.92.02-.41,0-.82-.01-1.23,7.62-.19,13.84-6.8,17.66-12.82,4.21-6.63,6.77-14.34,8.02-22.07,1.23-7.63,1.31-15.68-.8-23.17-1.92-6.83-6.44-14.95-14.51-15.02Z"/>
      <path class="cls-8" d="M7.93,405.25l9.13,2.88s4.59,5.15,4.63,5.22,1.89,4.59,1.67,5.05-1.32,8.32-1.32,8.32l8.9-2.85,6.7,2.22,3.6,5.23,1.01,6.45,5.72-4.22,7.86-1.22,6.04,6.22,1.91,5.97,2.15,2.22,2.18-2.37,5.85-4.56,6.77.24,2.86,2.16,2.44,4.81,1.11,7.92,5.12-6.72,6.85-2.42,5.05.97,4.32,6.26,1.62,3.54,4.41-8.78,5.12-3.7,6.46,1.6,5.55,4.53,2.21,5.34,2.9-7.6,5.42-1.31,4.48.75,5.96,3.97,3.32,4.79,3.07-13.33,5.74-3.86,7.78-.1-1.29-6.01-5.42-18.56,1.18-10.68,5.52-10.44,11.15-6.52,10.69-2.79,13.69.19,15.96-3.34,5.78-5.9,5.59-11.97,1.56-12.92,3.5-6.44,6.74-6.21,1.87-3.12-.17-8.89,3.6-4.63,9.93-4.34,2.67-7.71.64-20.41v-5.45s10.65-4.72,10.65-4.72l10.41-3.02,1.42-9.26-6.6-35.43,4.59-7.52,8.42-18.99,1.87-14.29-.67-28.44-1.58-3.9-3.35,5.99-16.31-18.6-8.74-11.05-2.55-1.31-.76,8.09-5.9-1.72-10.54-8.72-11.48-7.94-1.13,2.51-.26,6.17-6.58-.93-11.99-6.36-17.62-9.26-13.14.31-9.27,7.65-2.85,9.84-1.92,9.94-.85,4.71-3,3.09-5.79,2.27-10.26,7.75-6.27,6.68-7.26,11.02-3.54,11.49-1.12,8.14-23.98,6.54-9.49-25.84-6.19-6.34-7.27-4.57-10.95-.34-13.81-.67-10.95,5.02-6.4,9.23-1.69,5.33.95,15.83,3.91,16.74,2.21,22-.88,27.49-4.1,33-6.65,30.27-8,23.91-8.23,25.67-12.29,25.03Z"/>
      <path class="cls-6" d="M205.17,207.23l4.95,6.3,3.22,3.8,3.8,2.06,3.14-.66,3.72-2.97.62-.61s1.77-2.38,1.85-4.02l.08-1.64-12.11-2.59-9.28.33Z"/>
      <path class="cls-4" d="M186.58,113.64c16.31-3.91,30.49,16.87,47.25,17.55-.21-3.16-.41-6.31-.62-9.47,11.33,3.26,17.58,16.71,29.04,19.48,1.12-3.17,1.15-6.71.08-9.9,12.66,7.66,17.06,24.43,28.99,33.19,1.01-2.5,2.02-5.01,3.03-7.51,5.27,5.6,12.02,9.79,19.37,12.05,6.7-23.55,8.47-48.8,2.61-72.57-5.86-23.77-19.74-45.91-40.06-59.57-13.15-8.84-28.41-13.89-43.54-18.58-14.11-4.37-30.74-8.5-46.96-10.16-18.05-1.85-37.46-.79-54.87,4.3-24.47,7.15-45.89,21.45-63.98,39.41h0C19.21,65.1,14.49,117.59,12.86,137.49c-3.08,37.42,8.17,67.07,17.42,103.47,4.07,16.01,10.95,29.36,13.67,52.56l1.56-4.56,1.2-17.86,1.64-17.23-1.59-26.31-2.57-16.39-3.05-15.36,1-13.99,3.85-8.04,15.79-7.72,13.25.18c3.78-.4,7.64.32,11.1,1.89,6.58,3,11.46,8.93,14.61,15.44,3.15,6.51,4.75,13.64,6.32,20.7,7.48-2.93,15.25-5.13,23.15-6.56l.65.23c.82-20.08,13.91-39.16,32.35-47.16,1.69-.73,3.54-1.48,4.5-3.05.57-.93.75-2.04.91-3.11.94-6.21,1.6-12.57,4.04-18.36,2.44-5.79,7.02-11.08,13.13-12.56"/>
      <path class="cls-3" d="M259.95,316.76l-1.25-4.93-5.41-4.44-11.25-1.29s-14.7,2.38-14.78,2.39-15.55,5.23-15.55,5.23l24.94.71,9.95,1.4,4.75,2.03,3.1,2.25,5.51-3.35Z"/>
      <path d="M263.84,203.99c3.29-1.31,6.92-2.91,10.55-2.56s5.73,3.38,7.33,6.36c.68,1.28,2.63.14,1.94-1.14-1.81-3.38-4.33-6.72-8.35-7.36s-8.27,1-12.07,2.52c-1.33.53-.75,2.71.6,2.17h0Z"/>
      <path d="M294.19,157.86c-.05,6.89.08,13.77.41,20.66.2,4.2.5,8.41.44,12.62-.05,3.85-.51,7.65-1.3,11.41-.76,3.62-2.13,6.78-3.83,10.06-3.26,6.28-6.33,12.61-9.01,19.16-.55,1.34,1.63,1.92,2.17.6,2.47-6.04,5.27-11.9,8.29-17.68,1.66-3.18,3.37-6.37,4.19-9.89.93-3.99,1.56-8.06,1.71-12.16.15-4.02-.11-8.05-.31-12.06-.37-7.57-.56-15.14-.5-22.71.01-1.45-2.24-1.45-2.25,0h0Z"/>
      <path d="M91.17,176.13c-7.42-7.97-18.51-12.95-29.49-11.27-9.66,1.48-18.69,8.6-21.32,18.17-1.67,6.07-.59,12.46.93,18.43s3.41,12.48,5.32,18.64,3.97,12.04,6.52,17.85c2.36,5.4,5.04,10.87,8.69,15.53,3.4,4.34,8.22,8.05,13.97,7.92,4.77-.11,9.62-2.67,11.04-7.46.41-1.39-1.76-1.99-2.17-.6-1.16,3.93-5.34,5.82-9.18,5.81-4.75,0-8.7-3.13-11.58-6.66-3.4-4.15-5.86-9.16-8.08-14.02-2.42-5.31-4.42-10.8-6.21-16.35s-3.35-11.1-4.9-16.68-3.33-11.75-2.86-17.83c.73-9.54,8.15-17.23,17.13-19.85,11.1-3.25,22.99,1.78,30.61,9.95.99,1.06,2.58-.53,1.59-1.59h0Z"/>
      <path d="M237.28,271.04c-.39,3.08.52,6.57,3.85,7.53s6.47-1.17,9.09-3.08c3.01-2.2,6.38-3.6,10.14-3.75.96-.04,1.93,0,2.88.12.29.04,1.06.08,1.33.24.36.2.25.14-.12.43-1.5,1.21-3.13,1.85-5.07,1.8-1.45-.04-1.45,2.21,0,2.25,1.84.05,3.67-.4,5.24-1.37,1.15-.71,3.07-2.1,2.59-3.68-.52-1.69-2.93-1.81-4.37-1.95-1.95-.19-3.92-.06-5.84.34s-3.77,1.09-5.47,2.03-3.28,2.36-5.01,3.42c-1.56.95-3.77,1.78-5.5.73s-1.69-3.32-1.47-5.05c.18-1.43-2.07-1.42-2.25,0h0Z"/>
      <g>
        <path class="cls-4" d="M265.58,193.16c-13.92-5.87-25.93-10.32-37.98-10.06-4.06.09-19.26,1.93-23.25,2.7-6.72,1.3-15.4,3.23-22.12,4.52,11.51-7.5,24.3-13.24,37.82-15.65,13.53-2.4,27.82-1.35,40.41,4.13,2.47,1.07,4.93,2.36,6.68,4.4,1.75,2.04,2.67,4.99,1.68,7.49"/>
        <path d="M265.98,191.71c-12.13-5.11-25.1-10.51-38.52-10.11-4.05.12-8.12.68-12.14,1.17s-7.87.91-11.74,1.66c-7.26,1.41-14.48,3.04-21.75,4.45l1.16,2.74c20.96-13.62,47.08-21.43,71.65-13.43,4.85,1.58,15.26,5.07,12.75,12.11-.65,1.82,2.25,2.61,2.89.8,1.02-2.85.2-5.99-1.59-8.35-1.88-2.48-4.66-4.02-7.47-5.24-6.28-2.74-12.92-4.41-19.72-5.14-13.47-1.45-27.14,1.01-39.67,6.01-7.13,2.85-13.92,6.46-20.36,10.65-1.46.95-.51,3.06,1.16,2.74,10.38-2.01,20.63-4.51,31.14-5.81,4.23-.52,8.47-1.06,12.72-1.31,5.5-.33,11.02.54,16.34,1.9,7.68,1.97,15.06,4.99,22.36,8.06.75.32,1.64-.34,1.85-1.05.25-.86-.3-1.53-1.05-1.85h0Z"/>
      </g>
      <g>
        <path class="cls-4" d="M292.97,195.21c-1.73,2.73-3.07,5.71-3.98,8.81-.35,1.21-.64,2.5-.34,3.73.51,2.11,2.55,3.43,4.43,4.51.4.23.82.46,1.28.42.43-.03.8-.31,1.12-.6,1.64-1.51,2.45-3.76,2.56-5.99.11-2.22-.42-4.43-1.12-6.55-.62-1.87-1.38-3.69-2.28-5.45"/>
        <path d="M291.67,194.45c-1.73,2.75-3.1,5.74-4.04,8.85-.48,1.6-.86,3.32-.4,4.97.36,1.32,1.22,2.47,2.26,3.35s2.25,1.72,3.5,2.26c1.53.66,2.89,0,3.96-1.15,2.07-2.24,2.81-5.41,2.56-8.39-.33-3.84-1.85-7.59-3.57-11-.87-1.73-3.46-.21-2.59,1.51,1.46,2.92,2.86,6.21,3.16,9.49.14,1.51.03,3.07-.56,4.48-.23.55-.55,1.1-.92,1.57-.15.19-.47.64-.71.72-.18.06-.12.02-.36-.08-1.1-.47-2.33-1.36-3.12-2.27-.97-1.13-.9-2.45-.54-3.83.83-3.17,2.23-6.18,3.97-8.95,1.03-1.64-1.57-3.15-2.59-1.51h0Z"/>
      </g>
      <path d="M200.33,206.9c6.32-.61,12.57.4,18.66,2.07,2.97.82,5.89,1.77,8.81,2.77,2.01.69,5.87,1.35,6.61,3.71.43,1.38,2.6.79,2.17-.6-.79-2.52-3.21-3.55-5.51-4.36-3.35-1.17-6.71-2.32-10.11-3.31-6.69-1.94-13.64-3.21-20.62-2.53-1.43.14-1.44,2.39,0,2.25h0Z"/>
      <path d="M203.48,207.69c1.86,2.05,3.52,4.24,5.08,6.52,1.43,2.1,2.93,4.22,5.1,5.63,1.97,1.28,4.45,1.85,6.71,1.06s3.84-2.42,5.22-4.24c.87-1.16-1.08-2.28-1.94-1.14-1.12,1.48-2.58,2.93-4.44,3.38-2.13.52-4.26-.64-5.75-2.08-1.58-1.52-2.7-3.43-3.96-5.21-1.36-1.93-2.84-3.77-4.42-5.51-.97-1.08-2.56.52-1.59,1.59h0Z"/>
      <path d="M45.11,293.29c-1.28-10.79-3.79-21.29-7.11-31.63-1.38-4.29-2.85-8.56-4.2-12.87-1.58-5.04-2.84-10.16-4.19-15.26-6.1-23.01-13.42-45.93-15.49-69.77-1.32-15.13-.42-30.59,2.2-45.56,2.37-13.51,6.56-26.94,14.09-38.51,4.1-6.3,9.21-11.98,15.23-16.49,3.34-2.5,6.93-4.66,10.7-6.45,1.97-.94,3.99-1.77,6.05-2.5,1.01-.36,2.03-.7,3.06-1.01.5-.15,1-.28,1.49-.44.75-.24,1.17-.72,1.72-1.26,15.92-15.62,34.73-28.61,55.85-36.07,23.41-8.27,48.89-8.93,73.21-4.8,12.14,2.06,24.08,5.16,35.83,8.82,11.53,3.58,23.07,7.4,33.76,13.09,19.22,10.22,33.71,27.08,42.3,46.98,9.62,22.28,11.12,47.38,7.11,71.12-1.01,6.01-2.38,11.95-4.04,17.81l1.38-.79c-7.2-2.24-13.68-6.3-18.87-11.76-.64-.67-1.58-.25-1.88.5-1.01,2.5-2.02,5.01-3.03,7.51l1.65-.67c-12.02-8.93-16.01-25.22-28.99-33.19-.82-.5-1.95.33-1.65,1.27.98,3.08.95,6.24-.08,9.3l1.38-.79c-5.85-1.47-10.28-5.73-14.56-9.73s-8.74-8.05-14.47-9.75c-.67-.2-1.47.36-1.42,1.08.21,3.16.41,6.31.62,9.47l1.12-1.12c-9.61-.46-17.74-7.08-25.66-11.83-7.69-4.62-17.22-8.84-25.9-4.11-4.75,2.59-8.1,7.26-10.09,12.2-1.23,3.05-1.99,6.27-2.57,9.5s-.81,6.48-1.5,9.65-3.82,3.82-6.36,5.04-4.76,2.52-6.97,4.04c-4.31,2.97-8.19,6.55-11.5,10.6-7.57,9.25-12.23,20.75-12.76,32.72l1.12-1.12c-8.53,1.11-16.88,3.31-24.89,6.43l1.38.79c-1.83-8.18-3.71-16.57-7.99-23.88-3.43-5.86-8.83-11.81-15.59-13.71-3.71-1.04-7.79-1.16-11.6-.78-1.43.14-1.44,2.4,0,2.25,3.23-.33,6.6-.27,9.79.4s6.07,2.4,8.54,4.52c5.58,4.79,9,11.47,11.24,18.37,1.43,4.4,2.44,8.92,3.44,13.42.12.55.84,1,1.38.79,7.8-3.04,15.98-5.27,24.29-6.35.63-.08,1.09-.45,1.12-1.12.47-10.48,4.28-20.61,10.48-29.04,3.06-4.17,6.76-7.94,10.89-11.06,2.05-1.55,4.21-2.94,6.46-4.16s4.98-2.02,7.09-3.55c2.52-1.82,2.72-4.64,3.13-7.5.46-3.19.91-6.39,1.64-9.53,1.29-5.56,3.55-10.98,7.9-14.84,3.65-3.24,8.44-4.47,13.22-3.71,4.41.7,8.48,2.77,12.3,5,8.74,5.1,17.39,12.31,27.94,12.82.58.03,1.16-.54,1.12-1.12-.21-3.16-.41-6.31-.62-9.47l-1.42,1.08c11.56,3.44,17.17,16.5,29.04,19.48.61.15,1.19-.2,1.38-.79,1.15-3.41,1.17-7.07.08-10.5l-1.65,1.27c6.4,3.93,10.67,10.24,14.76,16.37,4.1,6.14,8.24,12.36,14.23,16.82.65.48,1.41-.08,1.65-.67,1.01-2.5,2.02-5.01,3.03-7.51l-1.88.5c5.46,5.74,12.31,9.98,19.87,12.34.58.18,1.22-.22,1.38-.79,6.88-24.3,8.65-50.48,2.13-75.06-5.44-20.49-16.82-39.77-33.3-53.29-9.11-7.47-19.63-12.8-30.59-17-11.39-4.37-23.18-7.97-35-10.99-24.51-6.27-50-9.04-75.07-4.51-22.69,4.1-43.63,14.77-61.6,29.03-4.46,3.54-8.74,7.3-12.85,11.24-.89.86-1.69,1.98-2.9,2.33s-2.39.73-3.56,1.14c-2.05.72-4.06,1.53-6.04,2.43-7.4,3.39-14.13,8.2-19.73,14.11-10.08,10.65-16.28,24.36-19.91,38.43-3.06,11.85-4.52,24.23-5.04,36.44-1.03,24.32,4.42,47.95,10.75,71.26,1.64,6.04,3.32,12.07,4.93,18.12,1.4,5.23,2.66,10.49,4.26,15.67,2.85,9.21,6.18,18.26,8.45,27.65,1.37,5.67,2.39,11.41,3.08,17.2.17,1.42,2.42,1.44,2.25,0h0Z"/>
      <path d="M251.06,316.47c-6.96-2.5-14.36-3.38-21.71-3.72-6.1-.28-12.26-.31-18.36.14l.3,2.21c8.17-3.29,17.05-5,25.67-6.69,4.29-.84,8.9-1.82,13.25-.86,3.42.76,6.72,2.93,7.76,6.42.41,1.38,2.59.79,2.17-.6-1.08-3.61-4.02-6.15-7.48-7.45-4.28-1.6-9.05-.98-13.43-.22-4.84.84-9.65,1.94-14.44,3.04s-9.54,2.35-14.1,4.18c-1.07.43-1.08,2.31.3,2.21,5.94-.43,11.95-.42,17.9-.16,7.32.32,14.64,1.18,21.58,3.66,1.37.49,1.95-1.68.6-2.17h0Z"/>
      <path d="M217.16,234.03c-2.42-6.29-2.75-13.19-1.93-19.83.86-7,3.02-13.95,6.33-20.17,3.09-5.8,7.23-11.19,13.24-14.16,6-2.96,12.8-2.31,17.7,2.41,7.29,7.02,9.16,18.36,8.48,28.03-.72,10.33-4.47,21.12-11.7,28.72-3.49,3.66-8.1,6.89-13.21,7.64-6.53.96-12.87-2.52-16.48-7.87-.96-1.42-1.75-2.96-2.35-4.57-.5-1.35-2.68-.76-2.17.6,2.41,6.49,7.61,12.02,14.47,13.71,6.21,1.53,12.37-.61,17.33-4.37,9.04-6.83,14.11-18.08,15.81-29.06s.52-22.83-6.21-31.68c-4.05-5.33-10.07-8.49-16.85-7.45s-12.8,5.89-16.66,11.47c-4.18,6.04-7.11,12.87-8.79,20.02-1.7,7.21-2.23,14.88-.67,22.16.37,1.71.86,3.38,1.49,5,.52,1.34,2.69.76,2.17-.6h0Z"/>
      <path d="M279.71,217.49c1.88-4.82,4.27-9.73,7.64-13.69,2.69-3.17,6.2-6.07,10.37-6.91,7.69-1.56,12.28,6.15,14.19,12.42,2.06,6.73,2.18,14,1.29,20.94s-3.08,14.49-6.62,20.91-10.03,14.63-18.31,14.12c-1.45-.09-1.44,2.16,0,2.25,8.15.5,14.81-6.49,18.82-12.82s6.77-14.34,8.02-22.07,1.31-15.68-.8-23.17c-1.92-6.83-6.44-14.95-14.51-15.02-5.01-.04-9.58,3.03-12.92,6.52-4.27,4.47-7.11,10.22-9.34,15.93-.53,1.35,1.65,1.93,2.17.6h0Z"/>
      <path d="M211.03,232.75c-2.42-6.29-2.75-13.19-1.93-19.83.86-7,3.02-13.95,6.33-20.17,3.09-5.8,7.23-11.19,13.24-14.16s12.8-2.31,17.7,2.41c7.29,7.02,9.16,18.36,8.48,28.03-.72,10.33-4.47,21.12-11.7,28.72-3.49,3.66-8.1,6.89-13.21,7.64-6.53.96-12.87-2.52-16.48-7.87-.96-1.42-1.75-2.96-2.35-4.57-.5-1.35-2.68-.76-2.17.6,2.41,6.49,7.61,12.02,14.47,13.71,6.21,1.53,12.37-.61,17.33-4.37,9.04-6.83,14.11-18.08,15.81-29.06s.52-22.83-6.21-31.68c-4.05-5.33-10.07-8.49-16.85-7.45s-12.8,5.89-16.66,11.47c-4.18,6.04-7.11,12.87-8.79,20.02s-2.23,14.88-.67,22.16c.37,1.71.86,3.38,1.49,5,.52,1.34,2.69.76,2.17-.6h0Z"/>
      <path d="M278.79,214.89c.41-1.99.65-4.02,1.09-6,.38-1.74,1.22-3.19,2.15-4.69,2.19-3.53,5.22-7.57,9.37-8.87,7.26-2.26,12.3,6.32,14.18,12.07,2.1,6.43,2.35,13.38,1.66,20.06-.73,7.02-2.61,14.04-5.74,20.37s-7.58,12.45-14.08,15.3c-1.32.58-.18,2.52,1.14,1.94,6.2-2.72,10.81-8.51,13.96-14.32,3.66-6.72,5.83-14.22,6.79-21.79.92-7.21.74-14.81-1.44-21.78-2.01-6.42-7.07-15.11-14.91-14.43-4.94.43-8.72,4.37-11.45,8.18-1.4,1.96-2.87,4.11-3.57,6.45s-.85,4.64-1.32,6.92c-.29,1.41,1.88,2.02,2.17.6h0Z"/>
      <path class="cls-1" d="M78.33,167.61c48.36,5.92,96.73,11.84,145.09,17.76l-.97,4.63c-45.83-5.92-91.66-11.84-137.48-17.77"/>
      <path d="M204.24,382.8c-6.32-.68-12.84-.15-18.9,1.83-5.04,1.65-10.11,4.33-13.38,8.61-2.93,3.83-5.6,8.71-6.32,13.53-.34,2.32-.53,4.67-.55,7.01s.38,4.75.92,7.14c1.47,6.5,4.1,12.48,7.08,18.41l.97-1.69c-5.37-.65-11.11-.39-14.84,4.13-3.47,4.2-4.35,10.74-3.73,15.99l2.21-.3c-2.3-5.72-7.01-10.86-13.37-11.8-3.07-.45-6.61.28-8.73,2.72s-2.27,5.61-2.75,8.52l2.21.3c-.13-3.26-.85-6.21-3.06-8.68-2.46-2.76-5.36-4.67-9.08-5.18-8.38-1.16-12.89,7.74-13.91,14.71h2.17c-1.75-4.36-2.89-10.51-7.45-12.9s-10.99.02-13.86,4.17c-1.43,2.07-2.22,4.48-3.32,6.72l2.06.27c-1.63-6.3-.86-14.99-8.31-17.64-6.56-2.33-13.21,4.17-17.16,8.55l1.88.5c-.58-3.13-1.39-6.24-2.62-9.18-1.07-2.54-2.56-5.39-5.07-6.77s-6-.88-8.6.19c-3.32,1.38-5.98,3.9-7.86,6.92l2.1.57c.03-5.45-1.16-12.8-6.54-15.6s-12.04-.27-16.1,3.49l1.77,1.36c1.42-3.14,2.62-6.55,2.4-10.05-.17-2.84-1.32-5.34-3-7.6-3.48-4.7-8.53-6.89-14.36-6.38l.97,1.69c3.19-4.36,5.65-9.22,7.87-14.13,2.54-5.62,4.75-11.39,6.81-17.21,4.53-12.74,8.64-25.66,12.53-38.61,4.07-13.58,7.54-27.32,9.81-41.32s3.46-27.08,3.74-40.72c.31-15.14-.62-30.34-3.24-45.26-.25-1.42-2.42-.82-2.17.6,4.67,26.58,4.07,54.17.12,80.8s-12.49,53.34-21.32,79.21c-2.25,6.59-4.63,13.16-7.41,19.55-2.42,5.54-5.11,11.07-8.69,15.96-.49.67.16,1.76.97,1.69,5-.43,9.39,1.2,12.42,5.27,1.39,1.86,2.5,3.93,2.68,6.29.25,3.15-.8,6.26-2.08,9.09-.51,1.13.78,2.28,1.77,1.36,3.35-3.1,9.32-5.46,13.65-2.98s5.17,8.97,5.15,13.51c0,1.14,1.52,1.5,2.1.57,1.65-2.65,4.03-4.92,6.97-6.07,2.13-.83,5.07-1.32,7.03.16s3.09,4.06,3.92,6.29c.96,2.56,1.62,5.23,2.12,7.92.15.82,1.34,1.09,1.88.5,2.08-2.31,4.33-4.52,6.96-6.21,2.33-1.49,5.25-2.79,8.02-1.76,6.21,2.3,5.39,10.82,6.74,16.07.23.89,1.62,1.15,2.06.27,1.1-2.24,1.88-4.65,3.32-6.72,1.72-2.48,4.44-3.74,7.41-3.94,6.52-.43,7.91,7.46,9.79,12.13.36.89,1.99,1.24,2.17,0,.84-5.77,4.25-14,11.41-13.1,3.16.4,5.52,2.07,7.63,4.35,1.92,2.07,2.49,4.54,2.59,7.3.05,1.2,2,1.61,2.21.3.39-2.37.52-5.24,1.96-7.25,1.64-2.29,4.9-2.8,7.5-2.29,5.2,1.04,9.13,5.33,11.04,10.1.42,1.06,2.37,1.08,2.21-.3-.55-4.66.04-10.61,3.07-14.4,3.28-4.11,8.5-4.05,13.25-3.47.92.11,1.31-1.02.97-1.69-2.47-4.92-4.78-9.89-6.2-15.22-.62-2.33-1.32-4.79-1.45-7.21-.12-2.18.01-4.39.22-6.56.45-4.66,2.32-8.79,4.83-12.73,2.84-4.45,7.12-7.34,12.03-9.17,6.3-2.36,13.12-2.98,19.78-2.27,1.44.15,1.43-2.1,0-2.25h0Z"/>
      <polygon points="233.88 175.77 221.35 181.91 210.89 197.98 207.78 214.76 210.56 236.35 216.51 241.91 223.83 246.2 219.23 240.24 215.86 232.06 213.7 218.51 217.24 201.03 225.08 186.47 235 177.78 233.88 175.77"/>
      <path d="M248.6,180.53l5.83,10.57,1.67,11.78-1.45,17.27-6.06,11.91-9.7,10.76-7.06,3.83,1.35,1.24,6.73-1.08,10.94-7.84,5.25-6.9,5.44-16.91,1.06-7.39c2.56-1.07,5.14-2.13,7.65-2.53s4.96-.11,6.85,1.41c.58.47,1.1,1.05,1.59,1.67.82,1.04,1.56,2.22,2.21,3.5l2.81-6.25,5.35-5.3,5.44-4.71-2.2-2.4-7.16,3.78-3.66,4.84-2.87.61-5.51-2.12-10.61,2.34-2.7-11.94-9.74-11.86-1.46,1.73Z"/>
      <path d="M300.49,196.84l5.97,8.44,2.13,19.44s-1.36,11.55-1.42,11.77-5.12,12.74-5.12,12.74c0,0-5.96,8.76-6.07,8.88s-6.54,4.91-6.54,4.91l-.37,3.74,6.26-1.16,9.14-8.09,5.34-10.47,3.8-9.24,2.15-14.97-1.21-8.15-2.37-9.36-6.6-7.93-5.09-.57Z"/>
      <path class="cls-7" d="M216.07,234.33c-5.38-13.71-1.04-33.39,7.35-45.56,6.8-10.48,20.3-16.84,30.16-7.01,16.14,16.69,8.62,56.29-13.66,65.04-10.11,3.81-20.21-2.44-23.77-12.28"/>
      <path class="cls-5" d="M278.62,217.19c1.28-3.31,2.77-6.41,4.42-9.15,6.04-10.64,17.52-17.42,25.4-8,12.88,16.01,5.24,55.59-13.65,65.04-2.23,1.08-4.43,1.48-6.52,1.31"/>
      <path d="M276.12,212.53c4,15.36,7.32,30.9,9.92,46.55.75,4.51,3.51,14.04-2.76,15.92-1.63.49-3.34.74-4.98,1.19s-3.32,1.02-4.93,1.66c-1.31.52-2.61,1.09-3.89,1.69-.76.35-1.52.72-2.27,1.09s-1.96.69-2.42,1.4c-.59.92-.71,2.57-.87,3.65-.22,1.48-.32,2.96-.36,4.45-.08,3.07.09,6.14.17,9.21s.15,6.42-.31,9.59c-.35,2.41-.89,5.11-2.87,6.72-3.44,2.81-8.6,2.67-11.43,6.41-1.81,2.4-1.62,5.29-1.36,8.13.14,1.51.3,3.09-.35,4.52-.59,1.3-1.5,2.52-2.43,3.6-3.23,3.78-8.18,6.69-9.77,11.64-.83,2.58-.55,5.54-.84,8.21-.3,2.84-.81,5.67-1.67,8.4-1.72,5.49-5.05,10.15-10.16,12.93-6.24,3.39-13.64,4.23-20.56,2.83-3.61-.73-7.08-2.09-10.54-3.32s-6.57-2.39-9.83-3.65c-6.34-2.46-12.6-5.11-18.79-7.91s-12.61-5.89-18.85-8.95c-5.78-2.83-11.62-5.54-17.34-8.49s-10.88-5.98-15.74-9.84c-2.66-2.11-5.16-4.42-7.46-6.92s-4.41-4.96-5.91-7.89c-2.87-5.59-3.27-12.08-3.08-18.25s1.02-12.78,1.44-19.17c.26-3.98.52-7.96.78-11.95.09-1.45-2.16-1.44-2.25,0-.4,6.15-.73,12.31-1.28,18.45-.48,5.32-1.05,10.65-.97,16,.07,4.96.73,9.97,2.72,14.55,2.14,4.93,6.04,9.13,9.89,12.8,7.51,7.17,16.58,12.19,25.86,16.71,10.08,4.91,20.12,9.9,30.32,14.54s20.62,8.86,31.21,12.59c5.57,1.96,11.03,3.71,17.01,3.59,5.56-.11,11.25-1.6,15.95-4.62,8.18-5.24,10.88-14.72,11.66-23.89.19-2.2-.04-4.62.81-6.7.75-1.85,2.16-3.34,3.57-4.72,3.09-3.03,7.18-6.11,8.6-10.38s-1.91-9.78,2.64-12.87c3.03-2.06,6.91-2.39,9.76-4.79,3.33-2.8,3.68-8.04,3.85-12.07.21-5.14-.34-10.27-.17-15.41.08-2.36.42-4.59,1.02-6.87l-.52.67c5.04-2.49,10.05-4.73,15.57-5.93,2.28-.5,4.42-1.1,5.85-3.08,1.21-1.67,1.61-3.78,1.68-5.8.09-2.48-.37-4.94-.76-7.38-.51-3.2-1.05-6.39-1.63-9.58-1.11-6.22-2.34-12.41-3.68-18.59-1.55-7.12-3.24-14.21-5.08-21.26-.36-1.4-2.54-.81-2.17.6h0Z"/>
    </g>
  </g>
</svg>