<?xml version="1.0" encoding="UTF-8"?>
<svg id="Layer_2" data-name="Layer 2" xmlns="http://www.w3.org/2000/svg" viewBox="0 0 310.23 465.16">
  <defs>
    <style>
      .cls-1 {
        fill: #f2c300;
      }

      .cls-2, .cls-3 {
        fill: #3f2200;
      }

      .cls-3, .cls-4 {
        stroke: #000;
        stroke-miterlimit: 10;
      }

      .cls-5 {
        fill: #8e7300;
      }

      .cls-6 {
        fill: #fff;
      }

      .cls-7 {
        opacity: .2;
      }

      .cls-4 {
        fill: none;
        stroke-width: 12px;
      }

      .cls-8 {
        fill: #efdfcb;
      }
      }
    </style>
  </defs>
  <g id="Lager_1" data-name="Lager 1">
    <g>
      <path class="cls-4" d="M302.36,173.02c2.53-3.27,1.95-8.06,1.35-11.88-.62-3.93-1.96-7.88-4.46-11.03-2.06-2.6-4.82-4.26-7.97-4.93,4.63-6,7.29-13.63,6.62-21.25-.69-7.8-5.04-14.88-11.77-18.92-3.09-1.86-6.6-2.96-10.19-3.11,3.05-6.13,3.27-13.8.98-20.17-1.22-3.4-3.2-6.42-6.07-8.64-2.88-2.23-6.35-3.63-9.91-4.32-2.52-.49-5.09-.65-7.64-.46,3.92-4.64,4.31-12.78,2.43-18.01-3.34-9.25-12.99-14.45-22.55-13.63-4.46.38-8.81,1.73-12.69,3.93.87-2.67,1.04-5.6.77-8.37-.4-4.12-1.5-8.42-4.33-11.55-1.26-1.39-2.75-2.72-4.56-3.32-1.84-.6-3.9-.72-5.82-.69-4.14.06-8.02,1.53-11.32,4.03-3,2.28-5.39,5.18-7.71,8.12.43-4.02.49-8.16-.93-11.94-1.89-5.06-6.36-8.41-11.43-9.91-5.35-1.58-11.46-1.02-16.87.06-5.74,1.15-11.04,4.18-15.38,8.07-2.22,2-3.88,4.42-5.24,7.08-.36.7-.64,1.41-.87,2.13-.99-3.23-2.58-6.22-4.93-8.8-3.3-3.63-7.55-6.3-12.3-7.55-5.1-1.35-10.67-1.16-15.51,1.02-4.35,1.97-7.51,5.8-8.92,10.33-.37,1.19-.61,2.41-.71,3.64-.03-.02-.05-.05-.08-.07-3.67-2.73-8.41-3.42-12.86-2.84-7.93,1.04-17.37,5.96-18.79,14.61-.32,1.93-.22,3.95.31,5.82-3.43-1.38-7.47-1.3-11.03,0-6.72,2.47-10.46,8.83-11.35,15.71-.51,3.91-.16,7.89.75,11.72-6.58,1.74-12.35,6.1-15.91,11.89-3.9,6.34-4.71,14.18-2.51,21.26.84,2.71,2.12,5.26,3.75,7.57-2.44-.16-4.99.72-6.91,2.24-3.6,2.85-5.46,7.48-6.84,11.72-2.88,8.86-3,19.13,2.68,26.94,2.04,2.8,4.66,5.12,7.74,6.63-5.27,2.06-8.88,7.28-10.95,12.41-1.44,3.59-2.35,7.39-3.22,11.15-.95,4.08-1.74,8.19-2.31,12.33-2.04,14.86-1.01,30.47,6.31,43.85,1.87,3.42,4.16,6.64,6.81,9.5,2.5,2.7,5.37,5.38,9.15,5.44,1.34,16.48,2.75,33.36,8.78,48.89,6.01,15.47,16.83,28.15,28.02,40.14,2.27,2.43,4.41,4.95,6.5,7.52,0,.04-.01.07,0,.11,2.25,14.24,2.99,28.71,2.08,43.09-.45,7.16-1.31,14.29-2.58,21.36-.32,1.76-.66,3.52-1.03,5.27-.17.8-.34,1.6-.52,2.39-.21.94-.76,2.21-.7,3.17.07,1.17,1.21,2.51,1.86,3.46.93,1.36,1.97,2.65,3.08,3.86,7.64,8.37,17.75,14.81,28.02,19.42,10.54,4.73,21.81,7.66,33.29,8.93,23.5,2.61,47.16-2.19,68.33-12.54,10.56-5.16,20.44-11.66,29.5-19.13,4.55-3.75,8.89-7.76,13-12,2.07-2.13,4.07-4.31,6.02-6.55.43-.5.86-.99,1.28-1.5.34-.4.9-.87,1.05-1.4.17-.63-.24-1.45-.4-2.06-.2-.74-.38-1.48-.56-2.22-2.89-11.96-3.85-24.33-4.3-36.59-.48-13.11-.28-26.24-.23-39.36.01-3.08.01-6.15,0-9.23,3.43-4.8,6.56-9.81,9.24-15.09,5.89-11.61,9.68-24.13,12.4-36.82.27-1.24.5-2.48.75-3.72.12,1.47.32,2.93.66,4.36.42,1.79,1.05,3.78,2.36,5.14,1.64,1.69,4.17,2.5,6.41,2.02.01,0,.02,0,.04,0,.21-.05.43-.11.64-.18.71-.22,1.37-.58,1.95-1.09,1.05-.58,1.78-2.34,2.2-3.3.69-1.61,1.15-3.29,1.45-5.01.63-3.62.72-7.35.26-11,.02-.02.04-.04.06-.06,6.84-7.24,11.08-16.65,13.02-26.36,2.24-11.22,1.42-22.79-.73-33.96-1.02-5.31-2.15-10.77-4.06-15.85,2.13.72,4.46.13,6.06-1.94Z"/>
      <g>
        <path class="cls-5" d="M286.51,251.11c.81,6.16,0,14.36-3.12,18.07l-.07.02c-.39.42-.88.74-1.42.92-.4.14-.81.2-1.23.24-1.32.13-2.59-.34-3.63-1.16,2.53-5.03,3.31-9.88,3.18-14.04"/>
        <path d="M285.01,251.11c.4,3.11.43,6.31-.01,9.41-.36,2.57-.99,5.54-2.67,7.6l.66-.39c-.46.11-.65.4-1,.66-.39.28-.83.41-1.31.47-1.1.12-2.01-.32-2.87-.96l.54,2.05c2.28-4.61,3.52-9.64,3.38-14.8-.05-1.93-3.05-1.93-3,0,.12,4.62-.92,9.14-2.97,13.28-.39.79-.15,1.54.54,2.05,2.38,1.78,5.9,1.95,8.1-.23l-.66.39c1.26-.3,2.12-2.39,2.58-3.46.69-1.61,1.15-3.29,1.45-5.01.64-3.64.72-7.39.26-11.06-.1-.8-.62-1.5-1.5-1.5-.73,0-1.6.69-1.5,1.5h0Z"/>
      </g>
      <polygon class="cls-8" points="24.06 157.1 16.34 163.55 12.34 172.29 7.08 195.95 7.08 215.43 11.14 230.87 17.57 240.65 24.43 248 30.3 250.54 32.94 272.24 38.73 298.59 51.44 321.18 67.87 341.02 74.42 347.87 75.13 361.42 76.19 381.73 72.72 414.19 70.87 423.01 78.68 433.5 100.99 447.5 120.51 454.54 143.5 458.05 161.28 457.42 182.48 453.21 202.69 445.46 219.18 436.17 240.19 420.45 253.78 405.41 249.35 375.29 249.02 330.45 248.55 315.55 255.35 305.03 261 294.86 266.44 278.56 272.42 253.17 278.65 255.14 286.84 251.85 293.69 243.59 299.12 228.29 301.31 215.6 300.36 197.55 298.89 186.86 294.44 171.84 288.08 154.33 247.7 90.99 130.83 49.72 57.46 75.48 28.56 122.21 24.06 157.1"/>
      <path class="cls-2" d="M294.43,172.38c2.81,2.64,5.17,2.2,6.88.17,1.71-2.04,1.83-4.6,1.7-7.27-.42-9.37-4.47-18.77-13.83-19.28,6.43-7.26,9.48-17.77,6.64-27.04-2.84-9.27-12.09-16.55-21.77-15.92,4.58-7.28,4.33-18.9-.74-25.85-5.06-6.95-16.01-9.18-24.34-7.05,6.47-2.27,8.08-13.67,5.49-20.02s-7.99-10.53-14.7-11.97c-6.71-1.44-15.84.72-22.11,5.68,3.81-5.12,3.01-13.78.41-19.61-.8-1.79-3.32-4.44-5.04-5.37-2.23-1.2-7.52-1.27-9.98-.66-8.02,2-11.92,8.09-17.13,14.51.97-6.64,1.71-14.17-2.58-19.32-3.54-4.25-9.55-6.34-15.28-6.17-5.53.16-11.88.77-16.71,3.47-4.16,2.33-8.7,5.48-10.87,9-2.72,4.41-2.78,4.98-3.69,9.77-.97-8.49-5.02-13.11-9.34-16.44-6.76-5.22-17.38-6.49-24.66-2.03-7.28,4.46-9.87,15.76-4.09,22.05.08-4.8-3.55-9.16-8.02-10.91-4.47-1.76-9.56-1.27-14.11.28-4.77,1.62-9.33,4.58-11.6,9.07-2.27,4.49-1.61,10.66,2.4,13.71-4.65-6.64-15.79-5.63-21.08.51-5.29,6.14-5.64,15.27-3.51,23.09-8.81,1.85-16.35,8.8-18.9,17.44-2.55,8.63,0,18.57,6.38,24.91-2.6-2.09-6.6-1.6-9.31.34s-4.36,5.02-5.63,8.11c-2.77,6.73-4.14,14.27-2.42,21.34s6.95,13.53,13.98,15.41c-8.43,4.48-15.73,25.5-2.44,35.4,1.4,1.32,7.04,3.58,8.31,2.89,1.52-.83,2.11-2.69,2.43-4.4,1.42-7.57-2.11-13.17-5.67-19.99,2.37-.17,3.76-.78,4.7-1.04s3.06-2.67,3.39-3.59c2.14-5.92.43-10.01-3.17-15.18,6.56.62,10.51-5.33,10.24-11.27-.27-5.94-5.19-10.53-9.14-14.98,2.87.03,5.47,1.55,8.18,2.49,2.71.94,5.47.28,8.06-.93,1.65-.77,5.08-3.04,5.9-7,2.85-13.7-4.25-14.92-9.73-21.95,5,2.77,11.24,4.18,16.41,1.74,5.17-2.45,7.98-9.81,4.35-14.22-1.9,5.13,4.76,10.16,10.05,8.76,5.29-1.4,8.65-6.55,10.83-11.56-.69,6.72-.23,13.82,3.1,19.69s10.09,10.15,16.75,8.99c6.65-1.17,11.77-8.99,8.89-15.1-7.1,10.53-3.29,26.77,7.75,33.05.92-3.46,1.83-6.92,2.75-10.37,2.1,4.25,8.04,5.8,12.25,3.63,4.22-2.17,6.43-7.33,5.75-12.03s-3.9-8.79-7.97-11.21c-2,6.5,6.11,12.89,12.6,10.84,6.49-2.05,9.91-9.72,9.07-16.48,3.05,7.38,10.16,8.12,17.63,5.29,5.67-2.15,8.16-5.71,9.58-7.54s.78-5.97-.85-7.62c-4.79,6.46.74,16.69,8.6,18.38,7.86,1.7,15.91-3.06,20.79-9.45-6.16,4.52-8.3,13.94-4.23,20.42,4.07,6.48,14.01,8.5,19.98,3.72-1.21.94-2.55,6.05-2.29,11.12.25,4.79,5.61,6.29,7.1,6.61,2.97.63,5.12-.41,9.65-3.15-5.08,7.79-6.5,18.66-1.11,26.24,2.84,3.98,9.45,6.38,12.3,2.4-1.6-2.7-5.78-.53-7.66,1.98-4.07,5.45-6.63,12.01-7.31,18.78-.3,2.99-.18,6.21,1.52,8.69,1.7,2.47,5.44,3.72,7.82,1.88-5.29,8.32-7.14,18.76-5.02,28.38.52,2.37,2.2,5.25,4.54,4.62,1.18-.32,1.92-1.46,2.53-2.52,2.05-3.58,3.86-7.3,5.42-11.12,1.55,1.05,3.81.08,4.78-1.52s1.01-3.58,1.02-5.45c.03-6.6-.22-13.93-4.82-18.65-1.41,2.84,3.48,5.38,5.96,3.4,2.48-1.98,2.57-5.68,2.15-8.83-.57-4.2-1.69-8.33-3.32-12.24l2.15,2.23,4.23-3.86,4.53-2.86h5.37l3.93,1.35,3.91,2.74,5.04,6.51Z"/>
      <path class="cls-2" d="M210.44,292.63c-7.4,1.51-19.35,5.78-26.88,6.37-3.6.28-7.24.02-10.84.42-6.85.76-13.29,3.87-20.15,4.56-1.27.13-2.59.17-3.77-.31-1.23-.5-2.16-1.5-3.06-2.48-2.78-3.02-5.56-6.05-8.34-9.07-1.31-1.42-4.23.51-4.23.51-2.74,3.33-5.52,6.7-8.94,9.33-3.42,2.63-7.6,4.51-11.91,4.41-6.16-.14-11.46-4.12-17.15-6.46-6.79-2.79-23.13-3.91-30.46-4.34,3.83-2.96,7.66-5.91,11.49-8.87,2.64-2.04,5.32-4.1,8.44-5.27,2.98-1.12,6.21-1.38,9.38-1.55,8.97-.48,26.71,1.48,35.67,2.18l10.14.26c6.63.52,13.16-1.5,19.68-2.83,7.58-1.54,15.44-2.15,23.07-.84,7.63,1.3,15.04,4.61,20.49,10.1,2.43,2.44,3.88,3.25,7.37,3.88Z"/>
      <path class="cls-7" d="M262.32,211.03c.44.27.75.89.95,1.78.42,2.18.44,4.78.47,7.09,0,6.78.03,12.63.8,18.88.6,5.11,1.19,10.26,3.11,15.09.8,2.12,1.74,4.23,2.19,6.45.81,3.79-.04,7.71-.91,11.44-1.34,5.5-2.45,10.82-4.75,15.81-1.7,3.75-3.66,7.39-5.47,11.08-2.81,5.59-5.34,11.33-8.97,16.45-4.32,5.94-9.15,11.08-13.93,16.61-11.51,12.96-24.14,26.5-35.29,37.56-7.7,7.39-16.16,14.96-25.85,19.58-6.69,2.77-13.53,5.47-20.77,6.23-11.21,1.31-23.04,1.06-33.52-3.25-8.48-4-16.61-9.01-22.61-16.2-13.41-14.82-30.02-34.06-43.63-50.59-5.61-6.65-10.4-13.88-13.81-21.91-12.86-29.55-11.25-67.42-13.46-98.85-.16-2.54-.4-6.49.66-8.4.2-.19.41-.11.62.23.47.9.67,1.89.91,3.19,3.42,22.84,6.69,53.59,10.38,72.84,1.12,4.8,4.03,9.23,6.57,13.48,3.11,5.04,5.83,10.02,9.64,14,3.99,4.11,8.19,8.2,10.92,13.3,8.19,14.19,14.49,30.34,27.28,41.16,3.64,3.57,8.13,5.86,13.13,6.97,12.09,3.38,13.34-.61,23.13-5.87,5.6-2.68,12.09-1.92,17.79.12,4.31,1.48,8.07,3.86,12.47,4.56,8.68,1.43,16.86-3.71,22.8-9.61,3.81-3.87,7.47-8.02,10.51-12.55,2.06-3.1,3.74-6.47,5.66-9.66,3.06-5.12,6.84-9.93,10.66-14.57,5.93-7.9,13.91-13.56,21.23-20.24,5.27-5.23,11.02-10.05,16.06-15.5,12.88-14.68,5.91-35.67,6.25-53.14.19-4.67,4.2-11.99,7.53-13.56.41-.17.81-.21,1.19-.02l.07.04Z"/>
      <path class="cls-7" d="M122.99,327.6c2.7-1.64,5.72-1.49,9.5-1.67,2.81-.07,5.47-.04,8.15.15,3.38.26,8.22.42,10.01,3.27,1.83,2.79-.25,6.33-2.2,8.64-2.1,2.56-5.36,4.17-8.65,4.98-5.11,1.17-11.66.64-15.14-3.62-2.42-2.95-5.76-8.95-1.79-11.66l.12-.08Z"/>
      <polygon class="cls-6" points="169.09 211.38 180.72 204.77 187.5 201.78 202.86 202.13 212.35 204.85 221.5 209.67 222.75 210.53 211.53 220.13 204.18 224.92 193.86 226.69 185.43 224.59 180.69 221.7 169.09 211.38"/>
      <polygon class="cls-3" points="186.91 203.47 190.99 202.5 197.76 201.91 204.26 203.47 204.26 209.67 199.75 216.03 191.32 216.03 186.38 209.19 186.91 203.47"/>
      <path d="M25.87,193.22c.61,18.7,1.67,37.38,3.2,56.03,1.39,16.99,2.68,34.45,8.91,50.49,6.01,15.47,16.83,28.15,28.02,40.14,5.12,5.48,9.63,11.4,14.24,17.3,4.85,6.21,10.21,11.86,15.89,17.3s12.16,11.07,19.46,14.82c6.77,3.48,14.21,5.45,21.78,6.11,14.77,1.29,30.56-2.28,43.38-9.74,12.33-7.18,22.58-17.83,32.24-28.17,4.89-5.23,9.66-10.58,14.5-15.86,4.14-4.51,8.41-8.9,12.45-13.51,7.33-8.38,13.93-17.39,18.98-27.34,5.89-11.61,9.68-24.13,12.4-36.82.82-3.84,1.55-7.71,2.2-11.58.24-1.42-1.93-2.02-2.17-.6-2.31,13.61-5.44,27.2-10.74,39.98-4.22,10.19-9.97,19.65-16.82,28.28-7.58,9.54-16.25,18.19-24.43,27.21-9.7,10.69-19.51,21.55-30.93,30.46-11.39,8.88-25.15,14.29-39.58,15.47-7.57.62-15.24.04-22.55-2.06s-14.42-6.08-20.54-11.04-12.27-10.94-17.7-16.99c-4.58-5.11-8.57-10.68-12.86-16.03-5.05-6.29-10.76-11.98-16.03-18.09-5.33-6.19-10.31-12.71-14.31-19.85-8.27-14.77-10.93-31.6-12.53-48.23-1.73-18.05-2.9-36.16-3.7-54.27-.2-4.47-.37-8.93-.51-13.4-.05-1.44-2.3-1.45-2.25,0h0Z"/>
      <path d="M137.73,156.8c-4.54,24.91-12.41,49.16-22.67,72.28-1.32,2.97-2.67,5.92-4.06,8.85-1.3,2.72-2.72,5.4-3.77,8.23-1.89,5.05-2.63,10.74-1.43,16.04.53,2.33,1.36,4.65,2.53,6.74s2.9,3.76,4.79,5.23c4.11,3.2,9.04,5.24,14.1,6.38s10.97,1.84,16.15.05c4.54-1.57,8.41-4.83,8.99-9.81.17-1.44-2.08-1.42-2.25,0-.49,4.2-4.37,6.77-8.12,7.89-4.47,1.33-9.3.75-13.79-.21-4.83-1.04-9.58-2.88-13.53-5.91-1.84-1.41-3.47-3-4.57-5.05s-1.83-4.31-2.28-6.58c-1.01-5.14.08-10.64,2.07-15.41,1.18-2.83,2.64-5.55,3.94-8.32s2.46-5.33,3.64-8.02c4.76-10.81,9-21.85,12.64-33.09,4.09-12.66,7.41-25.58,9.79-38.67.26-1.42-1.91-2.02-2.17-.6h0Z"/>
      <path d="M150.65,271.8c4.55,2.71,10.17,5.95,15.67,4.34,4.33-1.27,8.29-5.75,6.76-10.46-.45-1.37-2.62-.78-2.17.6,1.25,3.84-2.53,7.28-6.05,7.9-4.64.83-9.27-2.06-13.07-4.32-1.25-.74-2.38,1.2-1.14,1.94h0Z"/>
      <path d="M94.44,268.1c.73,3.76,3.65,6.98,7.33,8.05s8.05-.18,10.67-3.08c.97-1.07-.62-2.67-1.59-1.59-2.1,2.33-5.43,3.39-8.48,2.51s-5.17-3.48-5.75-6.48c-.28-1.42-2.44-.82-2.17.6h0Z"/>
      <path d="M210.14,291.54c-9.68,2-19.07,6.17-29.04,6.45-3.27.09-6.54,0-9.79.48-3.05.45-6.01,1.31-8.96,2.16s-5.77,1.67-8.74,2.09c-1.4.2-3.01.44-4.36-.1s-2.39-1.88-3.39-2.96c-2.23-2.42-4.45-4.84-6.68-7.26-.77-.84-1.41-1.69-2.59-1.89-.93-.16-1.87.11-2.72.47-1.97.83-3.03,2.7-4.39,4.27-1.97,2.26-4.07,4.47-6.51,6.23-2.3,1.66-4.88,2.95-7.67,3.5s-5.71.12-8.43-.85c-4.73-1.69-8.89-4.7-13.73-6.1s-9.6-1.94-14.42-2.47-9.34-.85-14.03-1.12l.57,2.1c5.07-3.91,10.02-8.15,15.35-11.71,2.54-1.7,5.23-2.85,8.26-3.35,2.49-.41,5.04-.53,7.56-.55,9.38-.09,18.79.98,28.12,1.81,5.33.47,10.64.46,15.97.74,6.39.33,12.62-1.53,18.81-2.82s12.64-1.95,19.01-1.43,12.66,2.34,18.11,5.71c2.68,1.66,4.76,3.8,7.13,5.83,1.93,1.66,4.08,2.47,6.56,2.93,1.42.27,2.02-1.9.6-2.17-2.35-.44-4.3-1.16-6.07-2.81-1.95-1.81-3.83-3.59-6.05-5.07-4.6-3.07-9.92-5.05-15.34-6.03-6.26-1.13-12.64-.99-18.92-.11s-12.8,3.03-19.33,3.62c-3.34.3-6.78.01-10.14-.07-2.64-.07-5.26-.13-7.89-.35-9.47-.82-18.95-1.88-28.46-2.02-5.83-.08-12,.13-17.2,3.06-2.93,1.65-5.54,3.85-8.19,5.9-3,2.32-6,4.63-9,6.95-.86.67-.62,2.03.57,2.1,8.65.5,17.5,1.01,25.96,3.01,4.63,1.1,8.59,3.55,12.9,5.48,5.21,2.34,10.53,3.11,15.93.84s9.5-6.62,13.19-11.06c.53-.64.88-1.32,1.61-1.7.67-.35,1.61-.81,2.31-.36.62.4,1.18,1.28,1.67,1.81.56.6,1.11,1.21,1.67,1.81,1.11,1.21,2.23,2.42,3.34,3.63,1.87,2.03,3.68,4.51,6.6,4.93s5.99-.4,8.73-1.09c2.91-.73,5.77-1.66,8.68-2.4,3.18-.81,6.33-1.23,9.61-1.29s6.3-.04,9.43-.52c2.76-.42,5.48-1.08,8.18-1.79,5.41-1.41,10.75-3.15,16.22-4.28,1.42-.29.82-2.46-.6-2.17Z"/>
      <path d="M267.67,170.71c1.85-2.44,3.7-5.44,6.54-6.85,3.15-1.56,7.57-1.29,10.67.23,8.87,4.34,10.89,15.77,12.75,24.47,4.04,18.93,4.25,40.15-7.5,56.55-1.46,2.04-3.11,3.95-4.91,5.7s-3.78,3.34-6.38,3.21c-4.64-.23-8.19-5.12-10.51-8.63-.8-1.2-2.74-.08-1.94,1.14,2.42,3.66,5.46,7.57,9.7,9.17,4.79,1.81,8.68-1.11,11.86-4.44,6.82-7.16,11.09-16.48,13.08-26.11,2.3-11.18,1.55-22.73-.56-33.88-1.04-5.53-2.22-11.2-4.2-16.48-1.74-4.62-4.38-8.93-8.58-11.69-3.82-2.51-9.08-3.28-13.43-1.69-3.85,1.41-6.16,5.03-8.52,8.16-.87,1.16,1.08,2.28,1.94,1.14h0Z"/>
      <path d="M26.32,155.39c-6.88.99-11.44,7.16-13.86,13.19-1.44,3.59-2.35,7.39-3.22,11.15-.95,4.08-1.74,8.19-2.31,12.33-2.04,14.86-1.01,30.47,6.31,43.85,1.87,3.42,4.16,6.64,6.81,9.5s5.88,5.86,10.18,5.39c1.42-.16,1.44-2.41,0-2.25-3.77.41-6.38-2.32-8.73-4.88-2.2-2.39-4.1-5.04-5.73-7.85-3.26-5.63-5.38-11.88-6.53-18.27-1.29-7.2-1.28-14.6-.51-21.85s2.33-15.15,4.49-22.43c2-6.74,5.96-14.61,13.7-15.72,1.43-.21.82-2.37-.6-2.17h0Z"/>
      <path d="M122.35,310.09c2.17-.72,4.61-.91,6.88-1.1s4.66-.28,6.99-.23c4.32.09,8.66.59,12.81,1.83,1.39.41,1.98-1.76.6-2.17-4.34-1.29-8.9-1.82-13.41-1.91-2.41-.05-4.81.03-7.21.25s-4.98.41-7.26,1.16c-1.37.45-.78,2.63.6,2.17h0Z"/>
      <path d="M118.63,325.39c2.73-.94,5.86-1.15,8.72-1.4s5.98-.36,8.98-.3c5.54.11,11.11.75,16.43,2.34,1.39.42,1.98-1.76.6-2.17-5.5-1.64-11.3-2.3-17.02-2.42-3.07-.06-6.14.04-9.19.32s-6.25.49-9.1,1.47c-1.36.47-.78,2.64.6,2.17h0Z"/>
      <path d="M247.42,315.55c.14,23.94-1.11,48.1,2.04,71.9.8,6.03,1.9,12.02,3.54,17.88l.29-1.09c-8.7,10.38-18.65,19.72-29.7,27.57s-23.43,14.38-36.42,18.75-26.36,6.55-39.95,6.35-26.86-2.7-39.36-7.64c-6.13-2.42-12.02-5.46-17.52-9.09s-11.2-8.03-15.45-13.28c-1.18-1.45-2.2-3.02-3.05-4.69l.11.87c4.62-19.46,6.2-39.57,4.68-59.51-.43-5.58-1.1-11.14-1.97-16.67-.23-1.43-2.39-.82-2.17.6,2.25,14.24,2.99,28.71,2.08,43.09-.45,7.16-1.31,14.29-2.58,21.36-.32,1.76-.66,3.52-1.03,5.27-.17.8-.34,1.6-.52,2.39-.21.94-.76,2.21-.7,3.17.07,1.17,1.21,2.51,1.86,3.46.93,1.36,1.97,2.65,3.08,3.86,7.64,8.37,17.75,14.81,28.02,19.42,10.54,4.73,21.81,7.66,33.29,8.93,23.5,2.61,47.16-2.19,68.33-12.54,10.56-5.16,20.44-11.66,29.5-19.13,4.55-3.75,8.89-7.76,13-12,2.07-2.13,4.07-4.31,6.02-6.55.43-.5.86-.99,1.28-1.5.34-.4.9-.87,1.05-1.4.17-.63-.24-1.45-.4-2.06-.2-.74-.38-1.48-.56-2.22-2.89-11.96-3.85-24.33-4.3-36.59-.48-13.11-.28-26.24-.23-39.36.01-3.18.01-6.37,0-9.55,0-1.45-2.26-1.45-2.25,0h0Z"/>
      <g>
        <path class="cls-2" d="M165.25,169.12c-1.6,4.39-2.78,8.92-3.54,13.5-.17,1.04-.3,2.18.32,3.06.49.69,1.36,1.08,2.22,1.31,4.02,1.07,8.22-.62,12.16-1.93,13.84-4.6,29.35-4.76,43.3-.45,4.23,1.31,8.33,3.02,12.71,3.8.83.15,1.79.23,2.41-.29.35-.29.52-.71.66-1.13,1.5-4.52-.03-9.77-3.78-12.98-1.65-1.41-3.65-2.43-5.67-3.34-16.2-7.32-35.48-8.63-52.66-3.58"/>
        <path d="M163.81,168.72c-1.05,2.93-1.95,5.91-2.64,8.94-.35,1.51-.66,3.03-.9,4.56-.2,1.3-.35,2.65.28,3.87,1.26,2.45,4.75,2.85,7.19,2.7,3-.18,5.83-1.21,8.65-2.15,11.39-3.82,23.74-4.7,35.54-2.43,5.98,1.15,11.53,3.53,17.4,5.05,2.22.58,5.59,1.67,7.11-.76,1.24-1.98,1.27-4.88.95-7.1-.8-5.43-4.63-9.16-9.38-11.46-5.18-2.51-10.71-4.34-16.33-5.56-12.75-2.76-26.16-2.37-38.7,1.27-1.85.54-1.06,3.43.8,2.89,10.06-2.92,20.69-3.69,31.07-2.32,5.17.68,10.28,1.91,15.19,3.65,4.5,1.6,10.14,3.47,12.8,7.73,1.16,1.86,1.77,4,1.71,6.19-.02.73-.05,2.5-.61,3.06-.6.6-2.62-.18-3.37-.36-5.3-1.31-10.32-3.5-15.65-4.7-10.5-2.37-21.51-2.38-32.01-.07-2.92.64-5.77,1.52-8.6,2.47s-5.81,2-8.79,1.54c-1.48-.23-2.57-.65-2.41-2.31s.55-3.18.9-4.73c.7-3.11,1.61-6.17,2.69-9.17.66-1.82-2.24-2.6-2.89-.8h0Z"/>
      </g>
      <g>
        <path class="cls-2" d="M120.67,170.69c1.7,4.39,2.96,8.92,3.76,13.5.18,1.04.32,2.18-.34,3.06-.52.69-1.44,1.08-2.36,1.31-4.28,1.07-8.74-.62-12.93-1.93-14.72-4.6-31.22-4.76-46.05-.45-4.5,1.31-8.86,3.02-13.52,3.8-.88.15-1.9.23-2.56-.29-.37-.29-.55-.71-.7-1.13-1.59-4.52.03-9.77,4.02-12.98,1.75-1.41,3.88-2.43,6.03-3.34,17.23-7.32,37.73-8.63,56.02-3.58"/>
        <path d="M119.22,171.09c1.06,2.77,1.97,5.6,2.7,8.49.34,1.36.64,2.72.9,4.1.12.62.29,1.27.26,1.91-.04.88-.58,1.16-1.35,1.42-2.68.89-5.71.22-8.33-.52s-5.36-1.71-8.08-2.4c-10.98-2.8-22.53-3.24-33.7-1.42-5.79.94-11.25,2.78-16.84,4.45-1.35.4-2.7.77-4.08,1.07-.67.15-1.35.31-2.04.38-.84.09-1.08.06-1.34-.73-.69-2.07-.53-4.32.2-6.35,1.81-5.03,7.08-7.16,11.7-8.91,5.07-1.93,10.34-3.33,15.69-4.24,12.18-2.07,24.82-1.47,36.74,1.78,1.86.51,2.66-2.38.8-2.89-11.69-3.19-23.97-3.85-35.96-2.15-6.02.85-11.96,2.33-17.66,4.46-5.13,1.92-10.74,4.17-13.4,9.31-1.16,2.23-1.74,4.8-1.49,7.31s1.02,5.29,3.95,5.44c1.34.07,2.77-.32,4.06-.62,1.67-.39,3.32-.87,4.96-1.38,3.09-.96,6.15-2,9.3-2.78,12.22-3.01,25.21-3.02,37.44-.06,3.4.83,6.68,2.08,10.08,2.92,3.15.78,6.9,1.26,9.93-.21,3.4-1.65,2.35-5.45,1.71-8.41-.79-3.67-1.89-7.26-3.23-10.76-.68-1.78-3.59-1.01-2.89.8h0Z"/>
      </g>
      <path d="M117.35,94.47c-7.4,11.17-3.42,27.88,8.15,34.59.62.36,1.47.03,1.65-.67.92-3.46,1.83-6.92,2.75-10.37l-2.06.27c2.7,5.17,9.94,6.66,14.71,3.49,5.4-3.59,6.75-10.88,4.21-16.59-1.51-3.39-4.2-6.14-7.34-8.06-1.24-.76-2.37,1.19-1.14,1.94,5.77,3.52,9.69,10.78,6.21,17.27-1.51,2.81-4.22,4.81-7.47,4.85-2.96.04-5.84-1.38-7.24-4.04-.45-.87-1.82-.64-2.06.27-.92,3.46-1.83,6.92-2.75,10.37l1.65-.67c-10.56-6.12-14.07-21.35-7.35-31.51.8-1.21-1.15-2.34-1.94-1.14h0Z"/>
      <path d="M67.62,83.97c-1.94,5.75,4.39,10.71,9.71,10.4,6.6-.38,10.84-6.91,13.23-12.34l-2.1-.57c-.8,8.13.03,17.14,5.61,23.56,4.98,5.72,13.74,8.76,20.44,4.15,1.19-.81.06-2.77-1.14-1.94-6.14,4.22-13.95.97-18.2-4.38-4.72-5.95-5.18-14.13-4.47-21.39.11-1.08-1.65-1.58-2.1-.57-2,4.55-5.08,9.87-10.31,11.09-4.09.95-10.09-2.72-8.51-7.41.46-1.38-1.71-1.97-2.17-.6h0Z"/>
      <path d="M248.7,160.76c-4.27,5.97-7.05,13.35-7.24,20.73-.08,3.22.61,6.84,3.23,8.97,2.21,1.79,5.48,2.45,7.92.71l-1.54-1.54c-4.1,6.52-6.21,14.23-6.02,21.94.08,3.34.29,7.45,2.12,10.36s4.99,3.35,7.09.58c1.39-1.83,2.39-4.06,3.41-6.11s2.03-4.33,2.94-6.54l-1.65.67c2.3,1.36,5.17.11,6.42-2.1,1.47-2.61,1.12-6.05,1.05-8.93-.13-5.82-.97-11.97-5.13-16.36-.45-.48-1.48-.44-1.77.23-1.03,2.37.41,4.52,2.69,5.4,2.59,1,5.17-.03,6.53-2.41,1.56-2.73,1.27-6.07.81-9.04-.6-3.9-1.69-7.7-3.19-11.34l-1.88,1.09,2.15,2.23c.41.43,1.18.43,1.59,0,1.37-1.43,2.76-2.84,4.1-4.3.18-.2.09-.08-.08.02.09-.06.2-.11.3-.15.52-.21,1.01-.51,1.51-.76.21-.11,2.57-1.46,2.68-1.35.44.44-.98.02-.34.15.17.04.4,0,.58,0h3.69c.24,0,1.17.12.61-.03,1.03.28,2.05.7,3.06,1.05.21.07.42.15.64.22.3.1.11.07-.02-.02.35.23.69.49,1.04.73.91.64,1.9,1.22,2.75,1.93-.03-.02-.16-.2.06.14.26.4.6.77.89,1.15,1.29,1.67,2.5,3.52,3.93,5.07,2.55,2.78,6.43,2.88,8.75-.13,2.53-3.27,1.95-8.06,1.35-11.88s-1.96-7.88-4.46-11.03-6.06-4.97-10.08-5.24l.8,1.92c5.43-6.21,8.67-14.55,7.94-22.86-.69-7.8-5.04-14.88-11.77-18.92-3.63-2.18-7.84-3.34-12.09-3.1l.97,1.69c3.92-6.36,4.42-14.89,1.91-21.86-1.22-3.4-3.2-6.42-6.07-8.64s-6.35-3.63-9.91-4.32c-4.06-.78-8.26-.72-12.28.27l.6,2.17c7.6-2.83,8.87-14.25,6.47-20.91-3.34-9.25-12.99-14.45-22.55-13.63-5.92.51-11.64,2.71-16.33,6.35l1.77,1.36c2.5-3.47,3.05-8,2.65-12.16s-1.5-8.42-4.33-11.55c-1.26-1.39-2.75-2.72-4.56-3.32s-3.9-.72-5.82-.69c-4.14.06-8.02,1.53-11.32,4.03-4.04,3.07-6.98,7.28-10.14,11.18l1.88,1.09c.76-5.25,1.52-10.99-.38-16.09s-6.36-8.41-11.43-9.91c-5.35-1.58-11.46-1.02-16.87.06-5.74,1.15-11.04,4.18-15.38,8.07-2.22,2-3.88,4.42-5.24,7.08-1.12,2.2-1.55,4.54-2,6.94l2.21.3c-.63-5.19-2.46-10.01-6.01-13.91-3.3-3.63-7.55-6.3-12.29-7.55-5.1-1.35-10.67-1.16-15.51,1.02-4.35,1.97-7.51,5.8-8.92,10.33-1.55,4.97-.81,10.54,2.72,14.48.66.74,1.92.14,1.92-.8-.01-4.07-2.21-7.72-5.42-10.11-3.67-2.73-8.41-3.42-12.86-2.84-7.93,1.04-17.37,5.96-18.79,14.61-.68,4.11.46,8.62,3.82,11.28.9.72,2.59-.23,1.77-1.36-3.7-5.12-10.61-6.18-16.31-4.09-6.72,2.47-10.46,8.83-11.35,15.71-.56,4.3-.09,8.67,1.02,12.85l.79-1.38c-7.02,1.53-13.22,6.05-16.98,12.16s-4.71,14.18-2.51,21.26c1.26,4.07,3.47,7.79,6.47,10.81l1.36-1.77c-3.28-2.47-7.93-1.66-10.99.76-3.6,2.85-5.46,7.48-6.84,11.72-2.88,8.86-3,19.13,2.68,26.94,2.71,3.72,6.44,6.59,10.9,7.84l-.27-2.06c-3.68,2.01-6.22,5.87-7.85,9.62-1.98,4.56-2.91,9.65-2.24,14.6.72,5.33,3.4,9.81,7.62,13.11,1.84,1.44,4.28,2.43,6.55,2.95.91.21,1.94.4,2.82,0,1.3-.59,2.1-1.96,2.57-3.24,2.94-7.99-1.7-15.88-5.29-22.74l-.97,1.69c1.87-.16,4.36-.45,5.95-1.58,1.68-1.19,2.98-2.94,3.57-4.91,1.65-5.58-.47-10.44-3.62-15.01l-.97,1.69c6.36.49,10.82-4.74,11.33-10.75.61-7.2-5.05-12.5-9.44-17.42l-.8,1.92c2.51.09,4.76,1.27,7.07,2.16s4.6.98,6.97.31c3.29-.93,6.41-2.94,8.13-5.96,1.03-1.82,1.35-3.91,1.59-5.97.22-1.85.24-3.72-.05-5.56-.45-2.82-1.84-5.25-3.74-7.34-2.18-2.39-4.73-4.4-6.74-6.95l-1.36,1.77c4.39,2.39,9.56,3.88,14.55,2.78,4.64-1.02,8.2-4.55,9.29-9.17.33-1.41-1.84-2.01-2.17-.6-.96,4.06-4.03,6.93-8.12,7.68s-8.69-.61-12.41-2.63c-1.19-.65-2.13.8-1.36,1.77,2.98,3.78,7.89,6.6,9.44,11.35,1.03,3.15.74,6.9-.14,10.04s-3.68,5.31-6.64,6.36c-2.55.9-4.74.71-7.22-.29-2.31-.93-4.54-1.91-7.06-2-1.03-.04-1.41,1.23-.8,1.92,3.74,4.19,8.87,8.75,8.82,14.84-.04,5.2-3.62,9.91-9.13,9.49-.82-.06-1.44,1.01-.97,1.69,2.6,3.76,4.74,7.78,3.61,12.47-.42,1.76-1.24,3.15-2.68,4.3-1.21.97-3.41,1.21-4.89,1.34-.86.07-1.39.9-.97,1.69,2.95,5.64,6.53,11.47,5.72,18.11-.16,1.31-.41,2.93-1.24,4.02-.69.9-1.24.75-2.29.48-1.92-.49-3.9-1.28-5.49-2.47-7.59-5.7-8.36-15.73-5.13-24.08,1.42-3.68,3.78-7.62,7.34-9.56.86-.47.64-1.8-.27-2.06-7.08-1.98-11.93-8.49-13.39-15.5-.9-4.31-.59-8.81.41-13.07.93-3.97,2.34-8.16,4.71-11.52s7.05-5.89,10.79-3.07c1.04.78,2.24-.88,1.36-1.77-4.86-4.91-7.39-11.82-6.99-18.7s3.81-12.78,8.95-16.95c2.93-2.37,6.38-4.01,10.06-4.81.6-.13.94-.82.79-1.38-1.66-6.21-1.9-13.34,1.27-19.14,2.74-5.02,8.04-8,13.78-7.55,2.92.23,5.74,1.55,7.48,3.95l1.77-1.36c-2.55-2.02-3.59-5.19-3.33-8.38.29-3.41,2.21-6.34,4.76-8.53,5.56-4.76,15.27-7.35,21.99-3.69,3.4,1.85,5.98,5.29,5.99,9.25l1.92-.8c-5.64-6.3-2.36-16.94,4.63-20.72,8.2-4.44,18.73-1.69,25.15,4.55,3.71,3.61,5.77,8.27,6.39,13.39.14,1.14,1.95,1.66,2.21.3.35-1.87.63-3.82,1.38-5.58.84-1.97,2.05-4.01,3.46-5.62,1.81-2.06,4.03-3.71,6.33-5.18s4.51-2.69,7.07-3.45,5.23-1.16,7.89-1.37c2.51-.2,5.08-.38,7.59-.03,4.79.67,9.73,3.06,12.14,7.43,2.72,4.93,1.88,11.14,1.11,16.46-.14.96,1.08,2.08,1.88,1.09,4.68-5.78,9.51-13.19,17.5-14.39,3.07-.46,7.08-.46,9.56,1.63,3.09,2.6,4.39,6.06,5.05,9.95.72,4.23.45,8.99-2.13,12.57-.82,1.13.85,2.07,1.77,1.36,6.95-5.4,17.31-7.71,25.51-3.92,3.83,1.77,6.95,4.73,8.85,8.5,1.65,3.26,2.02,7.06,1.5,10.65s-2.01,7.86-5.64,9.21c-1.34.5-.83,2.52.6,2.17,6.32-1.57,13.63-.74,19.14,2.87s7.95,10.77,7.77,17.36c-.1,3.86-1.06,7.72-3.09,11.02-.43.7.12,1.74.97,1.69,6.96-.38,13.62,3.33,17.61,8.95,4.3,6.05,5.03,13.74,2.97,20.77-1.23,4.18-3.38,8.05-6.25,11.32-.66.75-.2,1.85.8,1.92,7.42.5,11.06,7.33,12.25,13.92.62,3.44,1.52,9.06-1.71,11.48-2.34,1.76-4.46-.9-5.78-2.61-1.21-1.57-2.33-3.39-3.72-4.8-.48-.49-1.16-.85-1.72-1.24-.79-.55-1.57-1.24-2.42-1.7-.73-.39-1.61-.58-2.38-.85-.73-.25-1.49-.62-2.27-.67-.96-.07-1.96,0-2.92,0-.81,0-1.82-.17-2.62.04-.9.23-1.82.89-2.64,1.3s-1.73.71-2.4,1.28c-1.53,1.29-2.83,2.97-4.21,4.42h1.59l-2.15-2.23c-.73-.76-2.32.02-1.88,1.09,1.07,2.59,1.93,5.26,2.55,8,.56,2.45,1.07,5.03.9,7.55-.12,1.77-.85,4.48-2.95,4.78-1.15.16-3.93-.77-3.22-2.39l-1.77.23c3.26,3.45,4.15,8.24,4.4,12.83.12,2.27.19,4.59.04,6.86-.12,1.83-1.48,5.7-4.06,4.18-.69-.41-1.38.02-1.65.67-.89,2.17-1.86,4.31-2.91,6.41-.48.96-.98,1.9-1.49,2.84s-1.02,2.1-1.77,2.91c-1.4,1.51-2.74.21-3.47-1.22-.87-1.71-1.1-3.85-1.29-5.73-.86-8.27,1.1-16.67,5.52-23.71.57-.92-.61-2.2-1.54-1.54-2.06,1.46-4.88.46-6.28-1.47-1.78-2.48-1.64-5.88-1.29-8.76.74-6.17,3.13-12.05,6.74-17.1.84-1.18-1.11-2.31-1.94-1.14h0Z"/>
      <path d="M185.41,94.04c2.75,5.88,8.79,9.02,15.19,8.31s12.46-4.86,16.46-10.01c.7-.9-.24-2.61-1.36-1.77-5.31,4-7.96,11.03-6.46,17.55s7.19,10.72,13.63,11.27c3.58.3,7.09-.7,9.93-2.9l-1.59-1.59c-.95.83-1.38,2.25-1.71,3.42-.56,1.98-.84,4.07-.92,6.13-.13,3.32.51,6.1,3.34,8.1,1.71,1.21,3.89,2,5.98,2.15,3.33.25,6.42-1.83,9.14-3.46l-1.54-1.54c-3.5,5.46-5.35,12.16-4.46,18.64.79,5.75,3.97,11.65,9.88,13.35,2.91.84,5.85.24,7.73-2.22.88-1.15-1.08-2.27-1.94-1.14-1.8,2.37-5.24,1.5-7.42.21-2.83-1.67-4.52-4.64-5.43-7.73-1.98-6.75-.13-14.18,3.59-19.98.61-.96-.59-2.11-1.54-1.54-2.22,1.34-4.78,3.18-7.48,3.18-1.63,0-3.35-.63-4.74-1.45-2.47-1.48-2.95-3.59-2.87-6.33.05-1.76.27-3.52.7-5.23.24-.95.5-2.28,1.27-2.96,1.11-.98-.48-2.45-1.59-1.59-5.39,4.18-14.15,2.41-17.95-3.1-4.15-6.01-2.14-14.98,3.57-19.28l-1.36-1.77c-3.55,4.57-8.58,8.4-14.42,9.29s-11.19-1.78-13.7-7.13c-.61-1.31-2.55-.17-1.94,1.14h0Z"/>
      <path d="M147.71,110.38c9.48.93,14.87-9.76,13.94-17.92l-2.1.57c2.58,6.03,8.66,8.7,14.97,7.85,5.92-.8,11.99-4.14,14.31-9.89,1.13-2.79.94-6.88-1.16-9.19-.97-1.07-2.56.52-1.59,1.59,1.9,2.1,1.27,5.91-.01,8.14-1.69,2.93-4.57,4.91-7.69,6.07s-6.64,1.66-9.9.73-5.65-3.32-6.99-6.43c-.43-1.01-2.22-.51-2.1.57.79,6.98-3.37,16.49-11.69,15.67-1.44-.14-1.43,2.11,0,2.25h0Z"/>
      <path d="M186.1,202.2c-.9,2.97-1.12,6.29.07,9.22.96,2.35,2.73,4.43,5.03,5.56,4.9,2.41,10.88-.11,13.25-4.88,1.51-3.03,1.62-6.55.68-9.77-.41-1.39-2.58-.8-2.17.6,1.29,4.4.16,9.49-4.09,11.81-3.92,2.14-8.37.34-10.33-3.52-1.33-2.61-1.09-5.71-.27-8.43.42-1.39-1.75-1.98-2.17-.6h0Z"/>
      <path d="M168.91,212.35c3.4-2.04,6.83-4.21,10.37-6,3.13-1.59,6.55-2.58,10.01-3.08,7.28-1.04,14.82.07,21.71,2.53,3.95,1.41,7.71,3.31,11.18,5.66,1.2.81,2.33-1.14,1.14-1.94-12.26-8.28-29.39-11.96-43.36-5.96-2,.86-3.83,1.99-5.7,3.08-2.16,1.26-4.34,2.48-6.48,3.77-1.24.75-.11,2.69,1.14,1.94h0Z"/>
      <path d="M209.98,225.32c-2.21,1.42-4.46,3.06-6.86,4.11s-4.95,1.45-7.52,1.41c-5.21-.07-10.32-1.97-14.52-5-.78-.57-1.53.74-.76,1.3,4.41,3.18,9.82,5.13,15.28,5.21,2.64.04,5.31-.39,7.76-1.4,2.61-1.07,5.01-2.81,7.38-4.33.81-.52.06-1.82-.76-1.3h0Z"/>
      <path d="M209.81,220.09c-2.2,1.42-4.45,3.07-6.86,4.11s-4.83,1.39-7.33,1.36c-5.15-.07-10.18-1.95-14.34-4.95-1.18-.85-2.3,1.1-1.14,1.94,4.47,3.22,9.95,5.18,15.47,5.26,2.67.04,5.38-.4,7.86-1.41,2.65-1.08,5.07-2.83,7.47-4.37,1.21-.78.09-2.73-1.14-1.94h0Z"/>
      <g>
        <path class="cls-6" d="M195.35,202.65c-1.34.14-1.69.83-1.96,1.37-.47.95-.72,2.03-.46,3.06.26,1.03,1.13,1.92,2.18,2.08,1.08.16,2.19-.47,2.73-1.41.54-.95.54-2.15.13-3.16-.28-.7-.77-1.34-1.44-1.69-.67-.35-1.03-.26-1.18-.26"/>
        <path d="M195.35,201.15c-.94.11-1.85.36-2.53,1.06-.52.53-.81,1.2-1.08,1.88-.72,1.8-.51,4.03.93,5.42s3.59,1.56,5.18.39,2.28-3.35,1.72-5.32c-.54-1.86-2.16-3.54-4.21-3.44-.78.04-1.54.66-1.5,1.5.03.78.66,1.54,1.5,1.5.12,0,.24,0,.37,0,.17,0-.36-.1-.19-.02.06.03.15.04.21.06.16.04.06-.04-.07-.03.06,0,.19.1.24.13.03.02.21.11.2.13s-.28-.26-.08-.05c.09.09.19.18.27.28.18.19-.05-.04-.05-.07,0,.04.09.13.11.16.08.13.14.32.24.43-.14-.16-.09-.23-.03-.08.02.07.05.13.07.2.05.15.09.31.12.46.02.08-.01.26.01.06.02-.21,0,0,0,.06,0,.18,0,.35,0,.53,0,.21.06-.29.01-.09-.02.07-.03.14-.04.21-.03.13-.14.31-.14.45,0-.06.15-.29.02-.07-.04.06-.06.12-.1.18,0-.01-.1.16-.11.16.13-.16.16-.2.09-.11-.03.04-.06.07-.1.11-.09.09-.2.17-.28.26.17-.21.18-.13.07-.06-.05.03-.11.07-.16.1s-.11.06-.17.09c-.28.16.25-.07.05-.02-.06.02-.39.07-.41.11.07-.09.35-.03.07-.02-.06,0-.13,0-.19,0-.37-.02.29.07-.07-.02-.03,0-.21-.08-.22-.07.02-.02.34.17.1.04-.05-.03-.36-.25-.4-.24.04,0,.27.25.09.06-.04-.05-.09-.09-.13-.13-.03-.03-.09-.12-.13-.14.03.01.2.29.06.08-.07-.11-.13-.22-.19-.32-.14-.22.05.06.03.1.02-.04-.08-.21-.09-.27-.02-.07-.03-.13-.05-.2-.08-.27-.01.02,0,.06-.04-.15-.03-.35-.02-.5,0-.07,0-.15.01-.22,0-.06.05-.29,0-.08-.05.25.03-.11.03-.13.02-.09.04-.18.07-.27.05-.18.12-.36.18-.54.07-.2-.12.23-.02.04.04-.07.06-.13.1-.2.08-.16.22-.32.29-.49-.13.34-.22.25-.12.16.04-.04.1-.09.13-.14.07-.09.23-.09-.15.11.06-.03.12-.08.18-.12.04-.02.11-.05.14-.07-.07.07-.33.12-.08.04.07-.02.15-.04.23-.06.09-.02.42-.06.02-.01.41-.05.76-.14,1.06-.44.26-.26.46-.69.44-1.06-.03-.73-.67-1.6-1.5-1.5h0Z"/>
      </g>
      <g>
        <path class="cls-1" d="M276.84,243.65c-5.02,5.98-4.08,23.59.04,25.6,1.04.82,2.31,1.29,3.63,1.16.42-.04.84-.1,1.23-.24.54-.19,1.03-.51,1.42-.92-2.42-3.71-5.73-14.17.02-25.62-1.04-.82-2.31-1.29-3.63-1.16-.42.04-.84.1-1.23.24-.54.19-1.03.51-1.42.92"/>
        <path d="M275.77,242.58c-3.16,3.88-3.83,9.47-3.86,14.31-.01,2.57.21,5.19.79,7.7.42,1.79,1.05,3.78,2.36,5.14,2.37,2.45,6.6,3.05,9.15.57.46-.45.59-1.27.23-1.82-4.52-7.05-3.51-16.93.02-24.1.39-.79.15-1.54-.54-2.05-2.41-1.78-5.87-1.94-8.1.23-1.38,1.35.74,3.47,2.12,2.12,1.31-1.28,3.16-.72,4.46.23l-.54-2.05c-2.52,5.11-3.8,10.77-3.28,16.46.33,3.67,1.25,7.53,3.26,10.67l.23-1.82c-1.38,1.35-3.35.66-4.68-.36.05.04-.37-.36-.38-.38-.25-.33-.45-.71-.62-1.08-.95-2.05-1.25-4.46-1.41-6.69-.2-2.8-.11-5.66.39-8.42.41-2.24,1.02-4.75,2.5-6.56,1.21-1.48-.9-3.62-2.12-2.12h0Z"/>
      </g>
      <path d="M247.41,368.45c-16.02,20.36-37.18,37.21-61.75,45.95-24.03,8.55-50.97,8.54-74.57-1.5-6.49-2.76-12.67-6.28-18.32-10.5-5.96-4.45-12.18-9.8-15.45-16.6-.42-.87-1.71-.11-1.3.76,2.94,6.1,8.2,10.93,13.4,15.13s10.44,7.49,16.2,10.34c11.44,5.66,24,8.92,36.72,9.87,12.97.97,26.04-.55,38.48-4.32,12.57-3.8,24.44-9.77,35.2-17.26,10.93-7.6,20.77-16.73,29.31-26.93,1.07-1.28,2.11-2.57,3.14-3.88.59-.75-.46-1.82-1.06-1.06h0Z"/>
      <path d="M237.63,374.65c1.99,2.48,3.5,5.32,4.48,8.34.3.91,1.74.52,1.45-.4-1.06-3.28-2.71-6.32-4.87-9.01-.25-.32-.8-.26-1.06,0-.31.31-.25.74,0,1.06h0Z"/>
      <path d="M99.62,211.06c2.99,3.32,5.38,7.18,6.91,11.38.33.9,1.78.51,1.45-.4-1.62-4.46-4.12-8.52-7.29-12.04-.65-.72-1.71.35-1.06,1.06h0Z"/>
      <path d="M229.91,384.42c.94,2.77,1.88,5.54,2.81,8.31.31.91,1.76.52,1.45-.4-.94-2.77-1.88-5.54-2.81-8.31-.31-.91-1.76-.52-1.45.4h0Z"/>
      <path d="M213.67,407.19c-.98-2.81-2.35-5.47-4.12-7.86-.24-.33-.65-.49-1.03-.27-.32.19-.51.7-.27,1.03,1.69,2.29,3.03,4.81,3.97,7.5.13.38.51.64.92.52.37-.1.66-.54.52-.92h0Z"/>
      <path d="M203.04,413.4c-.68-3.06-2.12-5.9-4.14-8.29-.26-.31-.79-.27-1.06,0-.31.31-.26.75,0,1.06,1.85,2.19,3.13,4.83,3.75,7.63.21.94,1.66.54,1.45-.4h0Z"/>
      <path d="M97.11,224.39c-1.14-4.51-2.96-8.86-5.45-12.78-.52-.81-1.82-.06-1.3.76,2.43,3.83,4.19,8.03,5.3,12.42.24.94,1.68.54,1.45-.4h0Z"/>
      <path d="M187.72,407.95c-.09,3.61.26,7.22,1.04,10.74.21.94,1.65.54,1.45-.4-.75-3.4-1.08-6.87-.99-10.35.02-.97-1.48-.97-1.5,0h0Z"/>
      <path d="M173.98,413.45c.65,4.25,1.3,8.49,1.96,12.74.15.95,1.59.55,1.45-.4-.65-4.25-1.3-8.49-1.96-12.74-.15-.95-1.59-.55-1.45.4h0Z"/>
      <path d="M164.86,415.44c-.26,4.73-1.04,9.41-2.32,13.98-.26.93,1.19,1.33,1.45.4,1.32-4.69,2.11-9.51,2.38-14.38.05-.96-1.45-.96-1.5,0h0Z"/>
      <path d="M216.41,389.89c2.8,3.9,5.17,8.1,7.05,12.52.38.89,1.67.12,1.3-.76-1.88-4.42-4.25-8.62-7.05-12.52-.56-.78-1.86-.03-1.3.76h0Z"/>
      <path d="M125.55,426.7c.82-4.74,2.15-9.36,3.98-13.81.37-.89-1.08-1.28-1.45-.4-1.83,4.45-3.16,9.07-3.98,13.81-.16.94,1.28,1.35,1.45.4h0Z"/>
      <path d="M148.86,415.52c-.87,4.41-.31,8.96,1.61,13.03.41.87,1.7.11,1.3-.76-1.73-3.68-2.24-7.89-1.46-11.88.19-.94-1.26-1.35-1.45-.4h0Z"/>
      <path d="M98.61,399.73c-2.63,3.53-4.06,7.88-4.08,12.28,0,.97,1.5.97,1.5,0,.02-4.16,1.39-8.19,3.88-11.52.58-.77-.72-1.52-1.3-.76h0Z"/>
      <path d="M106.21,405.68c-2.11,3.28-2.29,7.37-1.53,11.11.19.95,1.64.55,1.45-.4-.68-3.35-.51-7.01,1.38-9.95.52-.81-.77-1.57-1.3-.76h0Z"/>
      <path d="M72.48,214.49c-2.11,3.28-2.29,7.37-1.53,11.11.19.95,1.64.55,1.45-.4-.68-3.35-.51-7.01,1.38-9.95.52-.81-.77-1.57-1.3-.76h0Z"/>
      <path d="M59.95,207.74c-2.92,2.58-4.21,6.47-4.5,10.26-.07.96,1.43.96,1.5,0,.26-3.41,1.43-6.89,4.06-9.2.73-.64-.34-1.7-1.06-1.06h0Z"/>
      <path d="M137.44,426.18c1.3-3.15,2.08-6.47,2.34-9.87.07-.96-1.43-.96-1.5,0-.25,3.26-1.03,6.45-2.28,9.47-.15.37.17.82.52.92.43.12.77-.15.92-.52h0Z"/>
      <path d="M118.57,410.94c-2.04,2.72-3.62,5.75-4.71,8.97-.31.92,1.14,1.31,1.45.4,1.05-3.1,2.6-6,4.56-8.61.24-.32.05-.84-.27-1.03-.38-.22-.78-.06-1.03.27h0Z"/>
      <path d="M79.73,213.06c.66,4.18,1.9,8.23,3.6,12.11.39.88,1.68.12,1.3-.76-1.64-3.75-2.8-7.7-3.45-11.75-.15-.95-1.6-.55-1.45.4h0Z"/>
      <path d="M80.68,400.49c1.21-4.21,2.69-8.34,4.44-12.36.38-.88-.91-1.64-1.3-.76-1.8,4.14-3.34,8.38-4.59,12.72-.27.93,1.18,1.33,1.45.4h0Z"/>
      <path d="M84.67,406.28c1.14-1.91,2.22-3.85,3.5-5.67,1.72-2.43,3.76-4.62,5.84-6.74.68-.69-.38-1.75-1.06-1.06-2.14,2.18-4.22,4.44-5.99,6.93-1.32,1.85-2.42,3.83-3.58,5.78-.49.83.8,1.59,1.3.76h0Z"/>
      <path d="M60.93,223.05c1.14-1.91,2.22-3.85,3.5-5.67,1.72-2.43,3.76-4.62,5.84-6.74.68-.69-.38-1.75-1.06-1.06-2.14,2.18-4.22,4.44-5.99,6.93-1.32,1.85-2.42,3.83-3.58,5.78-.49.83.8,1.59,1.3.76h0Z"/>
      <path d="M54.44,211.5c3.55,2.13,7.13,4.44,10.86,6.25,3.35,1.62,6.93,2.64,10.61,3.14,7.56,1.02,15.38-.09,22.53-2.67,4.07-1.46,7.96-3.4,11.54-5.82,1.19-.81.07-2.76-1.14-1.94-11.68,7.89-28.27,11.7-41.59,5.74-1.94-.87-3.72-2.01-5.55-3.07-2.04-1.18-4.1-2.35-6.13-3.56-1.24-.75-2.38,1.2-1.14,1.94h0Z"/>
    </g>
  </g>
</svg>