<?xml version="1.0" encoding="UTF-8"?>
<svg id="Layer_2" data-name="Layer 2" xmlns="http://www.w3.org/2000/svg" viewBox="0 0 287.85 500.93">
  <defs>
    <style>
      .cls-1 {
        fill: #d68569;
        opacity: .5;
      }

      .cls-2, .cls-3 {
        fill: #3f2200;
      }

      .cls-3, .cls-4 {
        stroke: #000;
        stroke-miterlimit: 10;
      }

      .cls-4 {
        fill: none;
        stroke-width: 12px;
      }

      .cls-5 {
        fill: #efdfcb;
      }
      }
    </style>
  </defs>
  <g id="Lager_1" data-name="Lager 1">
    <g>
      <path class="cls-4" d="M254.75,20.42c-1.1-1.43-2.22-2.83-3.38-4.22-.63-.75-1.91-.48-2.36.3-6.95,12.13-17.23,22.12-29.52,28.72,4.29-12.21,7.8-24.69,10.46-37.36.28-1.34-1.01-2.25-2.2-1.69-17.94,8.37-35.88,16.73-53.81,25.1-3.84,1.79-7.68,3.58-11.52,5.37,1.25-3.04,2.14-6.22,2.6-9.49.32-2.27.53-4.6.4-6.89-.11-1.96-.59-3.97-2.17-5.26-3.24-2.67-7.71-.45-10.8,1.31-4.47,2.54-8.92,5.12-13.35,7.72-17.73,10.44-35.14,21.43-52.18,32.95-7.27,4.91-14.48,10.04-20.25,16.66,0-1.18,0-2.36-.01-3.53,0-1.16-1.27-1.84-2.26-1.3-13.18,7.29-22.82,19.2-32.03,30.8-4.73,5.95-9.43,12.11-11.95,19.36-2.51,7.25-2.06,14.95-1.17,22.44.8,6.74,1.95,13.66,1.22,20.43-1.24-2.36-2.94-4.47-5.05-6.13-.72-.57-1.86-.63-2.36.3-4.06,7.66-4.76,16.93-1.95,25.13,2.34,6.83,7.62,12.08,10.02,18.9.88,2.52,1.38,5.1,1.59,7.71-.28-.35-.57-.68-.89-.99-2.21-2.09-4.94-1.3-6.35,1.23-.7,1.26-1.09,2.71-1.5,4.08-.59,1.95-1.09,3.92-1.53,5.9-.8,3.62-1.37,7.28-1.79,10.96-.86,7.53-1.13,15.15-1.09,22.73.04,6.99.41,14.24,3.14,20.76,2.81,6.73,7.07,12.79,11.42,18.59.11.15.24.26.39.34.73,6.61,1.8,13.18,3.39,19.67,1.46,5.97,3.42,11.77,5.74,17.42-.06.09-.12.18-.16.29-2.47,6.9-5.09,13.91-9.93,19.55-4.41,5.13-10.2,8.88-16.72,10.66-.76.21-1.16,1.32-.5,1.88,3.51,2.93,8.3,3.6,12.73,3.79,4.71.21,9.51-.24,14.16.64-3.75,3.86-6.68,8.48-8.1,13.71-.21.75.37,1.36,1.08,1.42,3.45.29,6.69-.84,9.82-2.17,1.61-.68,3.2-1.41,4.85-2,.75-.27,1.67-.69,2.47-.71,1.26-.04.81,1.22.69,2.08-.27,2-.55,4-.82,6-.22,1.6-.75,3.42-.49,5.04.2,1.24,1.02,2.17,2.26,2.42,1.57.32,2.99-.57,4.15-1.52,2.99-2.45,5.74-5.23,8.25-8.18,1.44,20.31,2.15,40.78-.99,60.94-1.07,6.87-2.59,13.65-4.61,20.3-.11.37,0,.83.29,1.09,13.41,12.1,29.49,21.19,46.87,26.16,4.91,1.4,9.9,2.46,14.95,3.19.96.14,1.76-.72,1.27-1.65-.93-1.78-.21-4.61,1.94-5.09.99-.22,2.08.13,2.83.81.8.73,1.02,1.83,1.43,2.78.66,1.55,2.13,2.99,3.92,2.07.74-.38,1.23-1.05,1.69-1.71.26-.37.5-.83.84-1.15,1.59,2.21,3.82,3.92,6.54,4.5,3.37.72,6.71-.29,9.62-1.99,6.07,2.79,12.8,3.86,19.44,2.97,3.37-.45,6.54-1.44,9.66-2.77,3.24-1.38,6.41-2.97,9.89-3.68,5.77-1.18,12.35-.51,17.34-4.2,1.07-.79,2.14-1.74,2.7-2.96.79-1.73-.03-3.11-.34-4.81-.52-2.85,2.73-4.61,5.2-4.41,3.34.27,6.12,2.57,9.37,3.16,2.44.44,4.89-.17,7.12-1.14,4.86-2.11,9.21-5.98,12.17-10.35.33-.48.65-.98.92-1.49.39-.75.21-1.25.03-2.05-.44-1.87-.86-3.75-1.26-5.63-.84-3.92-1.62-7.86-2.33-11.8-1.37-7.65-2.48-15.34-3.32-23.07-1.57-14.43-2.21-28.95-1.96-43.46,1.75,2.2,3.63,4.29,5.64,6.27,1.2,1.18,2.49,2.61,4.21,2.95,1.33.26,2.7-.29,3.29-1.54.62-1.32.26-2.95.15-4.34-.17-2.09-.34-4.18-.51-6.28-.07-.83-.36-1.9-.19-2.72.19-.95,1.34-.43,2.03-.18,1.69.6,3.29,1.42,4.89,2.22,3.44,1.71,6.95,3.37,10.88,3.26.76-.02,1.24-.7,1.08-1.42-1.13-5.28-3.81-10.03-7.33-14.08,4.71-.63,9.51.09,14.24.14,4.28.04,9.13-.31,12.68-2.96.77-.58.71-1.73-.27-2.06-6.35-2.11-11.94-6.16-16.01-11.47-4.55-5.94-6.8-13.11-8.91-20.19-.02-.06-.04-.11-.07-.17,3.54-11.35,5.08-23.21,6.13-35.07.34.12.73.06,1.05-.31,4.26-4.96,7.64-10.59,9.98-16.7,2.49-6.52,3.53-13.42,4.04-20.35.54-7.43.8-14.93.48-22.37-.15-3.59-.47-7.17-.98-10.72-.47-3.31-.94-6.95-2.16-10.08-1.02-2.6-3.43-4.31-5.97-2.63.1-.56.21-1.11.31-1.67,1.57-8.26,3.39-16.47,4.86-24.75,1.49-8.32,2.57-16.72,3.78-25.09,2.46-16.92,5.6-33.95,5.9-51.08.26-14.77-2.04-29.58-6.71-43.6-4.61-13.85-11.47-26.95-20.38-38.53Z"/>
      <polygon class="cls-3" points="34.75 328.29 31.45 338.3 24.2 349.54 16.57 355.89 8.84 359.56 8.84 361.24 14.96 363.14 28.23 363.64 34.75 364.47 31.65 368.76 27.74 375.07 26.21 379.31 32.32 379.31 42.15 374.67 44.97 374.92 44.97 380.65 43.81 388.27 45.1 389.98 49.3 387.97 59.15 379.19 56.56 365.57 42.82 344.84 34.75 328.29"/>
      <path class="cls-3" d="M253.42,322.88l2.57,9.07,4.05,8.79,5.61,7.24,6.48,5.1,5.85,2.82-2.66,2.97h-9.99l-10.47-.12-3.63.43,1.4,2.49,3.45,5.06s2.12,4.81,2.18,5.02.32,2.71.32,2.71l-5.56-1.67-7.45-2.32-4.59-2.11-1.13,2.7s-.22,4.05,0,4.21,1.05,7.31,1.05,7.31l-1.8,1.76-2.81-1.08-8.77-9.82.22-8.15,9.9-12.31,5.72-8.8,5.45-9.45,4.6-11.86Z"/>
      <path class="cls-5" d="M24.39,211.08l-4.28-4.45-4.1,1.43-1.73,5.15-3.54,33.16v14.16l1.49,8.55,3.79,7.69,8.74,13.27,6.18,27.81,8.98,21.05,12.96,22.5,4.82,9.17,1.96,34.75-1.5,32.5-1.99,12.13-2.59,10.6-.7,2.39,15.74,12.02,16.49,8.78,23.06,7.23,4.83.85,1.21-4.42,3.51-2.24,3.01,1.18,2.12,4.01,2.55.17,1.68-2.22,3.31,2.07,4.18,1.44,4.8.61,4.4-1.49,7.96,2.16,8.85,1.51,13.24-4.3,12.77-3.8,9.99-1.79,5.47-4.31v-5.67l1.9-3.09,5.6-.69,7.22,2.73,6.77-.14,9.72-7.74,3.37-4.66-3.72-17.85-4.13-30.72-1.25-33.61.22-12.06,2.91-4.78,8.85-11.51,10.04-16.78,3.87-10.01,3.79-17.13,2.21-18.43,2.75-2.76,6.22-9.78,3.45-8.8,3.23-14.93v-18.03s-.58-11.87-.58-11.87l-2.24-12.83-1.98-3.75-3.55,1.25-1.52-.29,5.72-73.24-28.99-53.28s-108.32-26.45-126.39-14.85c-18.07,11.61-68.88,44-68.88,44l-14.35,24.95-7.22,47.89-.7,29.13Z"/>
      <path class="cls-1" d="M92.5,356.29c.94,1.18,4.81,1.54,7.82,2.44,1.17.3,2.33.62,3.46,1,7.06,2.69,13.83,6.4,21,8.89,11.98,4.15,28.57,1.2,40.5-2.36,7.81-2.88,15.38-6.11,23.28-8.6,4.63-1.75-1.12-2.42-4.68-3.68-4.73-1.35-8.62-4.19-12.94-6.63-9.12-5.7-15.87-6.64-26.43-4.91-3.74.43-7.4.52-11.19.12-4.55-.67-8.47-.82-12.85.5-8.26,1.81-13.9,5.8-21.63,9.29-1.45.71-3.1,1.51-4.44,2.23-1.28.69-2.03,1.23-1.91,1.67l.02.06Z"/>
      <path d="M25.08,148.17c.12,8.82.03,17.65-.35,26.46-.3,6.87-.75,13.73-1.05,20.59-.38,8.76-.48,17.52-.37,26.29.13,10.03-.08,20.05-.18,30.08-.2,19.88.04,40.04,4.78,59.46,4.8,19.64,14.93,37.45,26.13,54.1,5.7,8.47,11.71,16.75,17.8,24.94,5.97,8.02,12.18,15.89,19.1,23.12,12.57,13.13,28.72,25.68,47.77,25.73,9.5.02,18.62-3.18,26.97-7.51,4.26-2.21,8.35-4.72,12.37-7.33,2.34-1.51,4.72-2.98,6.85-4.77,3.65-3.06,6.89-6.62,10.05-10.17,4.22-4.75,8.26-9.66,12.23-14.61,8.27-10.33,16.22-20.9,24.09-31.54,7.2-9.74,14.97-19.26,19.78-30.48,6.71-15.63,8.6-32.55,9.92-49.34.71-9.07,1.61-18.12,2.22-27.19.66-9.75,1.07-19.51,1.21-29.28.14-9.85.02-19.7-.25-29.54-.29-10.55-.6-21.11-1.52-31.63-1.67-19.22-5.69-38.56-15.76-55.27-4.41-7.31-9.87-14.04-16.31-19.66-6.79-5.94-14.62-10.21-22.71-14.12-7.28-3.52-14.8-6.49-22.58-8.69-4.15-1.18-8.35-2.15-12.57-3.01-3.68-.75-7.38-1.51-11.11-1.93-6.35-.71-12.8-.7-19.18-.59-7.43.13-14.87.51-22.27,1.22-6.17.59-12.28,1.42-18.25,3.08-7.88,2.19-15.52,5.26-22.73,9.12-12.88,6.9-24.4,16.38-33.68,27.66-7.66,9.31-14.04,19.92-17.75,31.43-1.39,4.33-2.38,8.83-2.65,13.38-.09,1.45,2.16,1.44,2.25,0,.6-10.12,4.74-20,9.72-28.71,6.6-11.54,15.45-21.77,25.74-30.17,12.19-9.95,26.51-17.17,41.74-21.1,5.72-1.48,11.63-2.11,17.5-2.63,7.32-.64,14.68-.99,22.03-1.07,6.08-.07,12.24-.05,18.28.7,3.94.5,7.87,1.35,11.76,2.17,4.08.87,8.14,1.87,12.15,3.05,7.81,2.31,15.32,5.43,22.61,9.06,7.94,3.96,15.47,8.32,21.99,14.41,12.92,12.07,21.05,28.21,25.32,45.22,5.03,20.02,5.33,40.98,5.82,61.5.46,19.24.16,38.47-1.21,57.66-.63,8.76-1.47,17.51-2.17,26.27-.64,8.06-1.4,16.12-2.87,24.08-1.57,8.51-3.91,16.93-7.54,24.8-2.87,6.24-6.64,11.81-10.69,17.32-6.64,9.02-13.27,18.04-20.05,26.96-7.84,10.31-15.81,20.58-24.44,30.24-3.07,3.44-6.23,6.88-9.77,9.85-2.19,1.83-4.66,3.3-7.05,4.83-3.97,2.55-8.02,5.01-12.23,7.16-8.41,4.3-17.62,7.31-27.17,6.86-9.15-.43-17.83-4.03-25.45-8.96-8.02-5.18-15.03-11.85-21.45-18.87-6.66-7.29-12.67-15.14-18.52-23.1-11.89-16.18-23.71-32.64-32.42-50.8-4.25-8.87-7.54-18.07-9.63-27.69-2.08-9.55-3.11-19.29-3.6-29.05-.99-19.82-.05-39.71-.2-59.55-.12-15.08.89-30.08,1.5-45.13.34-8.44.42-16.88.31-25.33-.02-1.45-2.27-1.45-2.25,0h0Z"/>
      <path d="M226.62,366.91c-1.07,24.68.5,49.45,4.68,73.8,1.19,6.96,2.61,13.87,4.23,20.74l.11-.87c-1.72,3.17-4.3,5.89-7.13,8.1-2.65,2.07-6.02,4.12-9.49,4.17-4.16.06-7.55-3.44-11.78-3.33-3.33.08-7.04,2.6-6.88,6.24.04.99.44,1.86.67,2.81.33,1.4-.48,2.32-1.5,3.17-1.57,1.32-3.49,2.08-5.46,2.56-3.95.96-8.08.89-12.05,1.77-4.73,1.04-8.9,3.66-13.49,5.11s-9.17,1.83-13.8,1.27c-2.58-.31-5.13-.96-7.56-1.87-.65-.24-1.28-.5-1.91-.79-.52-.24-1.04-.62-1.64-.48-.55.12-1.14.65-1.64.91-.59.31-1.2.58-1.84.8-4.33,1.5-8.55.02-10.94-3.88-.29-.47-.76-.6-1.27-.52-.97.15-1.65.83-2.21,1.59-.3.4-.98,1.89-1.59,1.82-.68-.08-1.15-2.29-1.39-2.81-.51-1.1-1.35-2-2.44-2.56-5.06-2.61-9.43,3.32-7.04,7.9l1.27-1.65c-17.52-2.52-34.28-9.2-48.83-19.25-4.21-2.9-8.21-6.09-12-9.51l.29,1.09c7.22-23.84,7.62-48.92,6.2-73.6-.41-7.1-.95-14.2-1.52-21.29-.11-1.43-2.36-1.45-2.25,0,1.95,24.57,3.82,49.5,0,73.99-1.07,6.87-2.59,13.65-4.61,20.3-.11.37,0,.83.29,1.09,13.41,12.1,29.49,21.19,46.87,26.16,4.91,1.4,9.9,2.46,14.95,3.19.96.14,1.76-.72,1.27-1.65-.93-1.78-.21-4.61,1.94-5.09,1-.22,2.08.13,2.83.81.8.73,1.02,1.83,1.43,2.78.66,1.55,2.13,2.99,3.92,2.07.74-.38,1.23-1.05,1.69-1.71.4-.58.76-1.38,1.52-1.5l-1.27-.52c1.61,2.63,4.06,4.72,7.12,5.37,3.56.76,7.09-.4,10.11-2.27h-1.14c6.24,3.01,13.21,4.18,20.08,3.25,3.37-.45,6.54-1.44,9.66-2.77s6.41-2.97,9.89-3.68c5.77-1.18,12.35-.51,17.34-4.2,1.07-.79,2.14-1.74,2.7-2.96.79-1.73-.03-3.11-.34-4.81-.52-2.85,2.73-4.61,5.2-4.41,3.34.27,6.12,2.57,9.37,3.16,2.44.44,4.89-.17,7.12-1.14,4.86-2.11,9.21-5.98,12.17-10.35.33-.48.65-.98.92-1.49.39-.75.21-1.25.03-2.05-.44-1.87-.86-3.75-1.26-5.63-.84-3.92-1.62-7.86-2.33-11.8-1.37-7.65-2.48-15.34-3.32-23.07-1.9-17.43-2.46-34.99-1.7-52.5.06-1.45-2.19-1.44-2.25,0h0Z"/>
      <path d="M110.25,296.89c-1.38,3.7-2.71,7.61-1.85,11.59.67,3.08,2.7,5.66,5.83,6.46s6.15-.03,9.21.22c1.56.12,3.01.62,4.06,1.83,1.13,1.3,1.75,2.99,2.79,4.36,3.54,4.66,10.16,6.29,15.51,3.98,3.06-1.32,4.66-3.84,6.8-6.24,1.4-1.57,2.8-2.24,4.91-2.35,1.73-.09,3.36-.26,4.95-1,3.09-1.45,4.92-4.54,5.37-7.84.22-1.61.26-3.24-.08-4.84-.4-1.9-1.31-3.68-2.17-5.4-.65-1.29-2.59-.16-1.94,1.14,1.36,2.7,2.34,5.16,2.04,8.23-.27,2.79-1.59,5.45-4.21,6.7-1.47.7-3.01.67-4.6.8s-3.11.56-4.42,1.6c-2.34,1.85-3.59,4.77-6.14,6.4-4.35,2.78-10.46,1.84-13.83-2.04-1.97-2.26-2.67-5.36-5.57-6.74-2.48-1.18-5.3-.85-7.96-.73-3.3.15-6.59-.24-7.95-3.72-1.53-3.9.06-8.1,1.44-11.79.51-1.36-1.67-1.95-2.17-.6h0Z"/>
      <path d="M153.95,317.52c1.92-7.77,1.78-15.78,1.87-23.72.09-8.51.22-17.03.26-25.54.03-8.36-.21-16.68-.99-25.01-.28-3-.62-5.99-1.23-8.95-.66-3.16-1.56-6.28-2.1-9.47-.33-1.97-.5-4.08.36-5.94,1.08-2.33,3.23-4.11,5.09-5.79,1.08-.97-.51-2.55-1.59-1.59-3.2,2.86-6.39,5.94-6.38,10.53,0,2.48.62,4.97,1.17,7.37.75,3.26,1.58,6.49,2,9.81,2.08,16.51,1.39,33.24,1.21,49.83-.1,9.26.4,18.8-1.84,27.86-.35,1.41,1.82,2.01,2.17.6h0Z"/>
      <path d="M88.46,358.41c7.49-.06,13.67-4.44,19.76-8.26,3.08-1.93,6.23-3.67,9.74-4.7,1.79-.52,3.62-.9,5.46-1.23,1.47-.26,3.01-.66,4.5-.75.33-.02-.67-.22.33.14.42.15.96.17,1.4.24.91.14,1.82.27,2.74.37,2.04.23,4.08.34,6.13.33,3.75-.01,7.52-.41,11.19-1.18,2.78-.58,5.81.29,8.55.9,3.63.8,6.96,2.13,10.16,4,6.96,4.06,13.57,9.58,22.05,9.65,1.93.02,1.93-2.98,0-3-7.44-.06-13.5-5-19.58-8.67-3.15-1.91-6.45-3.48-10.03-4.43-3.1-.82-6.43-1.54-9.64-1.68-1.25-.05-2.49.39-3.71.61-2.04.37-4.1.61-6.17.72-3.95.22-7.94.02-11.84-.67-1.16-.2-2-.28-3.15-.08-1.86.32-3.73.58-5.58.96-3.74.76-7.28,2-10.63,3.84-6.9,3.79-13.38,9.83-21.69,9.9-1.93.02-1.93,3.02,0,3h0Z"/>
      <path d="M116.9,366.66c3.82,1.41,7.67,3,11.65,3.89s7.76,1.18,11.67,1.14c7.88-.09,15.92-1.54,23.21-4.56,1.32-.55.74-2.72-.6-2.17-7.12,2.95-14.91,4.4-22.61,4.48-3.84.04-7.7-.26-11.44-1.14s-7.59-2.44-11.29-3.81c-1.36-.5-1.95,1.67-.6,2.17h0Z"/>
      <path d="M113.95,240.53c-3.44,1.75-6.92,3.63-10.48,5.12-3.17,1.33-6.58,2.15-9.99,2.53-7.28.83-14.73-.06-21.73-2.19-3.83-1.17-7.52-2.73-11-4.71-1.26-.72-2.39,1.22-1.14,1.94,6.52,3.72,13.8,6.05,21.23,7.03,7.32.96,15.04.62,22.02-1.96,4.19-1.55,8.23-3.79,12.21-5.82,1.29-.66.15-2.6-1.14-1.94h0Z"/>
      <path d="M68.24,233.47c2.84-1.47,5.73-3.17,8.79-4.16,2.87-.93,5.89-1.29,8.91-1.25,6.17.08,12.38,1.8,17.72,4.9.84.49,1.59-.81.76-1.3-5.56-3.23-12.04-5.02-18.48-5.11-3.13-.04-6.32.33-9.3,1.31-3.18,1.04-6.18,2.78-9.14,4.31-.86.44-.1,1.74.76,1.3h0Z"/>
      <path d="M213.89,233.79c-2.87-1.51-5.79-3.23-8.88-4.27s-6.14-1.39-9.26-1.35c-6.36.09-12.76,1.87-18.24,5.11-.83.49-.08,1.79.76,1.3,5.25-3.1,11.38-4.82,17.48-4.9,2.94-.04,5.89.32,8.69,1.24,3.02.99,5.89,2.7,8.69,4.18.85.45,1.61-.84.76-1.3h0Z"/>
      <path d="M157.01,354.15c-5.72-1.03-11.32-1.85-17.15-1.82-5.72.03-11.48.52-17.09,1.66-.95.19-.55,1.64.4,1.45,5.48-1.11,11.1-1.57,16.69-1.6,5.69-.03,11.17.76,16.75,1.77.94.17,1.35-1.27.4-1.45h0Z"/>
      <path d="M252.31,324.13c2.22,7.48,4.65,14.98,9.51,21.21,4.35,5.59,10.26,9.78,16.98,12.02l-.27-2.06c-3.58,2.67-8.49,2.76-12.77,2.63-5.18-.17-10.4-.84-15.52.3-.85.19-1.06,1.3-.5,1.88,3.96,4.1,6.96,9.03,8.16,14.63l1.08-1.42c-4.3.12-8-2.14-11.75-3.93-1.72-.82-3.91-2.09-5.89-1.89-1.73.18-2.46,1.6-2.41,3.19.08,2.46.4,4.93.6,7.38.1,1.21.27,2.43.29,3.64.02.99-.32,1.52-1.4,1.08-1.02-.42-1.83-1.41-2.6-2.17-.86-.85-1.71-1.72-2.53-2.62-1.64-1.78-3.17-3.65-4.6-5.61-.85-1.16-2.8-.04-1.94,1.14,2.26,3.09,4.75,6,7.48,8.68,1.2,1.18,2.49,2.61,4.21,2.95,1.33.26,2.7-.29,3.29-1.54.62-1.32.26-2.95.15-4.34-.17-2.09-.34-4.18-.51-6.28-.07-.83-.36-1.9-.2-2.72.19-.95,1.34-.43,2.03-.18,1.69.6,3.29,1.42,4.89,2.22,3.44,1.71,6.95,3.37,10.88,3.26.76-.02,1.24-.7,1.08-1.42-1.28-5.97-4.53-11.27-8.74-15.63l-.5,1.88c5.31-1.18,10.77-.25,16.15-.19,4.28.04,9.13-.31,12.68-2.96.77-.58.71-1.73-.27-2.06-6.35-2.12-11.94-6.16-16.01-11.47-4.55-5.94-6.8-13.11-8.91-20.19-.41-1.38-2.58-.8-2.17.6h0Z"/>
      <path d="M33.49,328.77c-2.47,6.9-5.09,13.91-9.93,19.55-4.41,5.13-10.2,8.88-16.72,10.66-.76.21-1.16,1.32-.5,1.88,3.51,2.93,8.3,3.6,12.73,3.79,5.37.24,10.86-.38,16.11,1.09l-.5-1.88c-4.45,4.12-7.95,9.25-9.56,15.14-.21.75.37,1.36,1.08,1.42,3.45.29,6.69-.84,9.82-2.17,1.61-.68,3.2-1.41,4.85-2,.75-.27,1.67-.69,2.47-.71,1.26-.04.81,1.22.69,2.08-.27,2-.55,4-.82,6-.22,1.6-.75,3.42-.49,5.04.2,1.24,1.02,2.17,2.26,2.42,1.57.32,2.99-.57,4.15-1.52,3.35-2.75,6.41-5.89,9.15-9.24.91-1.11-.67-2.71-1.59-1.59-1.5,1.83-3.09,3.58-4.77,5.25-1.53,1.51-3.24,3.44-5.12,4.51-.99.56-1.92.6-1.89-.68.02-1.19.31-2.42.47-3.6.33-2.4.68-4.8.99-7.2.21-1.6-.17-3.23-1.94-3.65-1.96-.47-4.33.75-6.09,1.47-3.9,1.61-7.79,3.69-12.14,3.33l1.08,1.42c1.51-5.53,4.8-10.28,8.98-14.15.63-.58.29-1.66-.5-1.88-4.91-1.38-10.04-1.04-15.08-1.13-4.24-.07-9.36-.33-12.77-3.18l-.5,1.88c6.87-1.88,13.08-5.83,17.72-11.24,5.11-5.95,7.9-13.25,10.51-20.54.49-1.37-1.68-1.95-2.17-.6h0Z"/>
      <path d="M97,308.7c-8.14,12.95-13.32,27.59-15.33,42.74-.13.95,1.37.94,1.5,0,1.98-14.88,7.14-29.27,15.12-41.99.52-.82-.78-1.57-1.3-.76h0Z"/>
      <path d="M178.31,308.81c10.59,11.83,16.31,27.61,16.24,43.44,0,.97,1.5.97,1.5,0,.08-16.24-5.82-32.38-16.67-44.5-.65-.72-1.7.34-1.06,1.06h0Z"/>
      <path d="M132.41,324.46c-.61,3.95-2.54,7.56-5.51,10.24-.72.65.35,1.71,1.06,1.06,3.13-2.83,5.25-6.73,5.89-10.9.06-.4-.1-.8-.52-.92-.35-.1-.86.12-.92.52h0Z"/>
      <path d="M146.35,325.55c.12,3.64,1.83,7.16,4.67,9.44.32.25.75.31,1.06,0,.26-.26.32-.81,0-1.06-2.54-2.04-4.12-5.12-4.23-8.38-.03-.96-1.53-.97-1.5,0h0Z"/>
      <path d="M166.31,243.67c3.66,1.55,7.35,3.2,11.1,4.52,3.46,1.21,7.09,1.91,10.73,2.27,7.77.78,15.73-.02,23.28-1.94,4.03-1.03,7.96-2.42,11.72-4.21,1.31-.62.17-2.56-1.14-1.94-6.52,3.1-13.67,4.96-20.84,5.73s-14.65.53-21.61-1.58c-4.13-1.25-8.15-3.12-12.12-4.8-1.32-.56-2.47,1.38-1.14,1.94h0Z"/>
      <g>
        <path class="cls-2" d="M164.24,192.64c-1.57,4.31-2.73,8.74-3.47,13.24-.17,1.02-.29,2.14.32,3,.48.68,1.33,1.06,2.18,1.28,3.95,1.04,8.06-.61,11.92-1.89,13.57-4.51,28.79-4.67,42.46-.44,4.14,1.28,8.17,2.96,12.46,3.73.81.14,1.75.23,2.36-.28.34-.28.51-.7.64-1.1,1.47-4.43-.03-9.58-3.71-12.73-1.62-1.39-3.58-2.38-5.56-3.28-15.89-7.18-34.79-8.46-51.65-3.51"/>
        <path d="M162.79,192.24c-1.07,2.97-1.97,5.99-2.66,9.07-.31,1.38-.59,2.77-.81,4.17-.2,1.27-.36,2.63.27,3.82,1.29,2.44,4.75,2.83,7.21,2.66,2.97-.21,5.76-1.24,8.56-2.17,11.19-3.74,23.35-4.54,34.93-2.26,5.88,1.16,11.35,3.55,17.14,4.99,2.19.55,5.34,1.47,6.73-.99,1.16-2.05,1.18-4.91.8-7.17-.91-5.36-4.84-8.91-9.56-11.13-5.06-2.38-10.41-4.16-15.87-5.32-12.44-2.65-25.5-2.25-37.72,1.3-1.85.54-1.06,3.43.8,2.89,9.82-2.85,20.19-3.61,30.33-2.29,5.08.66,10.11,1.87,14.94,3.57,4.34,1.53,9.82,3.34,12.48,7.37,1.18,1.79,1.84,3.87,1.82,6.02,0,.9-.05,2.2-.5,3.02s-2.2.15-2.99-.04c-5.22-1.24-10.16-3.42-15.4-4.63-10.35-2.39-21.22-2.44-31.6-.17-2.86.62-5.65,1.47-8.42,2.4s-5.77,2.02-8.73,1.57c-1.44-.22-2.53-.62-2.38-2.25.15-1.52.53-3.06.86-4.54.69-3.08,1.59-6.1,2.66-9.07.66-1.82-2.24-2.6-2.89-.8h0Z"/>
      </g>
      <g>
        <path class="cls-2" d="M120.52,194.19c1.67,4.31,2.9,8.74,3.69,13.24.18,1.02.31,2.14-.34,3-.51.68-1.41,1.06-2.31,1.28-4.2,1.04-8.57-.61-12.68-1.89-14.43-4.51-30.62-4.67-45.16-.44-4.41,1.28-8.69,2.96-13.26,3.73-.86.14-1.86.23-2.51-.28-.36-.28-.54-.7-.69-1.1-1.56-4.43.03-9.58,3.94-12.73,1.72-1.39,3.8-2.38,5.91-3.28,16.9-7.18,37.01-8.46,54.93-3.51"/>
        <path d="M119.07,194.58c1.08,2.81,2,5.69,2.72,8.61.32,1.3.6,2.61.85,3.93.26,1.42.5,2.49-1.09,3.02-2.69.9-5.75.18-8.38-.57s-5.16-1.65-7.79-2.31c-10.84-2.75-22.23-3.16-33.26-1.33-5.58.93-10.85,2.71-16.25,4.32-1.32.39-2.65.76-4,1.05-.94.21-2.75.95-3.22-.16-.84-1.96-.56-4.45.15-6.39,1.8-4.93,6.96-7,11.49-8.72,4.99-1.89,10.16-3.27,15.42-4.16,11.91-2.01,24.28-1.42,35.94,1.76,1.86.51,2.66-2.38.8-2.89-11.5-3.14-23.59-3.78-35.38-2.1-5.85.84-11.63,2.27-17.17,4.34-5.09,1.9-10.67,4.14-13.26,9.28-1.09,2.15-1.64,4.6-1.41,7.01s1,5.28,3.91,5.43c1.32.07,2.72-.31,3.99-.61,1.64-.38,3.26-.85,4.86-1.35,2.91-.91,5.79-1.88,8.74-2.63,12.05-3.04,24.9-3.09,36.98-.17,3.37.81,6.62,2.05,9.98,2.89,3.07.76,6.8,1.26,9.76-.21,3.37-1.68,2.31-5.41,1.67-8.37-.78-3.56-1.84-7.05-3.15-10.46-.68-1.78-3.59-1.01-2.89.8h0Z"/>
      </g>
      <path d="M25.26,215.77c.06-3.21-1.05-6.73-3.43-8.98-2.21-2.09-4.94-1.3-6.35,1.23-.7,1.26-1.09,2.71-1.5,4.08-.59,1.95-1.09,3.92-1.53,5.9-.8,3.62-1.37,7.28-1.79,10.96-.86,7.53-1.13,15.15-1.09,22.73.04,6.99.41,14.24,3.14,20.76s7.07,12.79,11.42,18.59c.86,1.14,2.81.02,1.94-1.14-3.43-4.57-6.73-9.26-9.4-14.32-1.32-2.51-2.49-5.12-3.24-7.85-.87-3.16-1.19-6.5-1.4-9.76-.44-6.82-.21-13.73.18-20.56s1.13-13.41,2.67-19.96c.43-1.83.92-3.64,1.48-5.43.38-1.21.81-3.35,2.04-4.05,1.51-.86,2.87,1.53,3.44,2.6.86,1.61,1.22,3.38,1.19,5.2-.03,1.45,2.22,1.45,2.25,0h0Z"/>
      <path d="M264.65,214.3c.12-2.49,1.29-6.15,3.7-7.41s3.18,4.06,3.49,5.46c1.41,6.42,1.97,12.98,2.09,19.54s-.12,12.71-.58,19.03-1.39,12.59-3.52,18.57-5.57,11.92-9.84,16.89c-.94,1.09.65,2.69,1.59,1.59,4.26-4.96,7.64-10.59,9.98-16.7,2.49-6.52,3.53-13.42,4.04-20.35.54-7.43.8-14.93.48-22.37-.15-3.59-.47-7.17-.98-10.72-.47-3.31-.94-6.95-2.16-10.08-1.06-2.7-3.61-4.46-6.27-2.43s-4.12,5.65-4.28,8.97c-.07,1.45,2.18,1.44,2.25,0h0Z"/>
      <g>
        <path class="cls-2" d="M24.2,214.07c0,8.79-.57,16.29.07,24.04.28,3.34,1.19,7.47,4.41,8.22,3.97.92,6.37,2.23,6.93-1.86,1.99-14.37-.87-35.33-3.14-49.66-2.15-13.58-3.67-27.47-1.54-41.05,2.13-13.58,7.91-22.01,18.71-30.32,9.89-7.6,26.13-13.45,41.03-11.88,2.99.32,9.78,3.57,12.33,5.18,12.15,7.7,11.63,6.41,25.03,16.41,1.66,1.24,10.16,6.03,12.04,6.88,3.14,1.43,6.8-.07,9.77-1.85,7.49-4.47,13.82-10.69,20.93-15.76,7.11-5.07,16.5-11.01,25.2-11.03,9.02-.03,20.67.35,29.09,5.97,13.9,9.27,14.58,8.75,23.81,35.47,3.7,10.72,7.02,13.12-.16,87.83-1.29,13.37,3.11,11.2,12.82,8.28,2.28-10.8.39-18.31,1.73-29.69,1.88-16.01,6.34-32.45,8.66-48.42,1.59-10.93,3.18-21.86,4.77-32.79,1.86-12.75,3.72-25.56,3.66-38.44-.13-29.87-10.97-59.58-30.04-82.35-7.68,13.48-19.54,24.47-33.48,31,4.87-13.29,8.78-26.93,11.68-40.8-23.06,10.76-46.13,21.52-69.19,32.27,3.09-5.7,4.7-12.22,4.63-18.73-.02-1.59-.19-3.31-1.25-4.48-2.12-2.33-5.91-.94-8.64.61-22.64,12.84-44.79,26.57-66.37,41.16-8.26,5.58-16.61,11.45-22.49,19.56-.01-2.58-.02-5.15-.03-7.73-12.67,6.95-22.14,18.53-31.2,29.9-5.42,6.81-10.97,13.94-13,22.45-3.51,14.72,4.16,30.6-.06,45.13-.77-4.25-3.15-8.18-6.55-10.79-5.03,9.32-4.52,21.44,1.27,30.29,4.38,6.69,9.75,13.81,8.56,26.98"/>
        <path d="M22.7,214.07c0,6.41-.37,12.82-.19,19.23.12,4.34-.11,11.02,4.07,13.74.92.6,1.97.79,3.01,1.05s2.04.55,3.09.65c1.86.17,3.36-.68,4.03-2.44.83-2.16.78-4.89.92-7.18.16-2.72.19-5.44.14-8.16-.21-11.31-1.69-22.59-3.4-33.77-2.02-13.11-3.86-26.32-2.43-39.59.57-5.27,1.65-10.59,3.84-15.44,1.91-4.24,4.59-8.05,7.82-11.39,7.53-7.78,17.07-13.16,27.51-15.96,5.7-1.53,11.61-2.27,17.51-1.92,4.36.26,8.43,2.23,12.22,4.31,3.58,1.97,6.99,4.3,10.5,6.39,2.82,1.68,5.59,3.41,8.28,5.29,3.54,2.47,6.89,5.21,10.61,7.42,2.96,1.76,5.97,3.61,9.11,5.04,5.64,2.57,11.7-1.86,16.09-5.03,5.05-3.64,9.69-7.82,14.69-11.53s9.77-6.87,15.19-9.27c2.64-1.17,5.46-2.1,8.33-2.46,2.56-.32,5.23-.16,7.8-.08,5.48.17,11,.73,16.22,2.48,4.19,1.4,7.74,3.9,11.36,6.35,4.28,2.9,7.78,5.93,10.24,10.51,3.7,6.86,5.89,14.53,8.49,21.84.67,1.88,1.37,3.74,1.92,5.65.31,1.1.57,2.21.78,3.34.12.65.23,1.31.33,1.97.02.11.09.67.03.21.02.17.05.35.07.52.05.4.09.81.14,1.21,1.12,11,.28,22.26-.42,33.25-.68,10.6-1.58,21.19-2.56,31.77-.3,3.25-.66,6.51-.91,9.77-.15,2.05-.22,4.15.16,6.18.52,2.73,2.33,4.6,5.18,4.64,3.2.04,6.47-1.34,9.48-2.25.48-.14.94-.54,1.05-1.05,1.49-7.22,1.15-14.43,1.26-21.75.12-8.13,1.53-16.17,3.04-24.14s3.39-16.47,4.86-24.75c1.49-8.32,2.57-16.72,3.78-25.09,2.46-16.92,5.6-33.95,5.9-51.08.26-14.77-2.04-29.58-6.71-43.6-4.61-13.85-11.47-26.95-20.38-38.53-1.1-1.43-2.22-2.83-3.38-4.22-.63-.75-1.91-.48-2.36.3-7.59,13.24-19.14,23.95-32.94,30.46l2.2,1.69c4.86-13.3,8.77-26.94,11.68-40.8.28-1.34-1.01-2.25-2.2-1.69-17.94,8.37-35.88,16.73-53.81,25.1-5.13,2.39-10.25,4.78-15.38,7.17l2.05,2.05c2.22-4.16,3.75-8.66,4.41-13.34.32-2.27.53-4.6.4-6.89-.11-1.96-.59-3.97-2.17-5.26-3.24-2.67-7.71-.45-10.8,1.31-4.47,2.54-8.92,5.12-13.35,7.72-17.73,10.44-35.14,21.43-52.18,32.95-8.48,5.73-16.91,11.75-23.03,20.1l2.8.76c-.01-2.58-.02-5.15-.03-7.73,0-1.16-1.27-1.84-2.26-1.3-13.18,7.29-22.82,19.2-32.03,30.8-4.73,5.95-9.43,12.11-11.95,19.36-2.51,7.25-2.06,14.95-1.17,22.44,1.01,8.52,2.6,17.33.21,25.76h2.89c-.87-4.5-3.33-8.62-6.93-11.45-.72-.57-1.86-.63-2.36.3-4.06,7.66-4.76,16.93-1.95,25.13,2.34,6.83,7.62,12.08,10.02,18.9,1.59,4.52,1.97,9.25,1.56,14-.16,1.92,2.84,1.91,3,0,.67-7.87-1.09-15.27-5.11-22.04-1.71-2.89-3.81-5.57-5.3-8.58-1.85-3.75-2.79-7.94-2.86-12.11-.08-4.79.99-9.54,3.24-13.78l-2.36.3c3.25,2.56,5.38,6.07,6.16,10.13.29,1.5,2.51,1.35,2.89,0,4.17-14.74-3.29-29.73-.08-44.5,1.61-7.43,6.02-13.82,10.62-19.72s9.08-11.51,14.06-16.87c5.58-6.02,11.76-11.5,18.97-15.49l-2.26-1.3c.01,2.58.02,5.15.03,7.73,0,1.6,1.96,1.9,2.8.76,5.06-6.9,11.96-12.15,18.95-16.97,7.68-5.29,15.5-10.41,23.36-15.44s16.18-10.2,24.38-15.13c4.06-2.44,8.14-4.85,12.24-7.24,2.08-1.21,4.17-2.42,6.26-3.61,1.76-1.01,3.51-2.18,5.42-2.88,1.63-.6,4-1.12,4.91.83s.48,4.61.3,6.6c-.43,4.97-1.93,9.82-4.28,14.21-.74,1.39.72,2.68,2.05,2.05,17.94-8.37,35.88-16.73,53.81-25.1,5.13-2.39,10.25-4.78,15.38-7.17l-2.2-1.69c-2.92,13.86-6.82,27.49-11.68,40.8-.49,1.35,1.13,2.2,2.2,1.69,14.24-6.72,26.2-17.89,34.02-31.54l-2.36.3c9.23,11.06,16.52,23.75,21.52,37.26,5.01,13.54,7.81,27.9,8.06,42.35.3,16.78-2.67,33.45-5.08,50-1.22,8.36-2.34,16.73-3.67,25.07s-3.02,16.17-4.63,24.23-3.21,16.05-3.91,24.17c-.62,7.12.08,14.28-.58,21.4-.18,1.93-.48,3.84-.87,5.74l1.05-1.05c-1.8.54-3.59,1.13-5.41,1.6-1.26.33-2.46.66-3.74.52-.14-.02-.55-.09-.83-.29-.06-.04-.11-.03-.31-.29.11.14-.27-.44-.33-.58-.52-1.15-.53-2.99-.51-4.39.06-2.92.45-5.84.72-8.74.3-3.17.59-6.33.87-9.5.49-5.48.94-10.97,1.36-16.45.97-12.82,2.04-25.84,1.34-38.7-.29-5.23-1.11-10.26-2.87-15.2-1.98-5.54-3.83-11.13-5.97-16.61s-4.47-10.95-8.81-14.99c-1.98-1.85-4.23-3.4-6.47-4.91-3.63-2.44-7.18-4.83-11.34-6.28-5.2-1.81-10.78-2.44-16.25-2.67s-10.68-.18-15.87,1.72c-11.4,4.17-20.49,12.49-29.91,19.82-2.41,1.87-4.89,3.66-7.5,5.23-2.3,1.38-5.28,2.96-8.04,2.1-1.42-.44-2.78-1.36-4.07-2.07-1.79-.99-3.57-2-5.32-3.03-3.67-2.17-6.98-4.87-10.48-7.31-2.68-1.87-5.43-3.61-8.24-5.28-3.54-2.11-6.97-4.43-10.56-6.43-1.91-1.07-3.9-2-5.92-2.85-1.85-.78-3.77-1.56-5.77-1.81-11.27-1.41-23.28,1.64-33.32,6.68-8.72,4.38-16.93,11.14-22.07,19.51-5.82,9.47-7.13,21.04-7.08,31.95.06,12.44,2.41,24.62,4.1,36.89,1.53,11.09,2.75,22.42,2.14,33.63-.07,1.22-.16,2.43-.28,3.64-.09.88-.03,2.43-.6,3.17-.21.28-.58.25-1.09.19-.99-.13-1.96-.47-2.93-.7s-1.72-.46-2.34-1.27c-.69-.9-1.02-2.06-1.27-3.15-.58-2.59-.58-5.33-.64-7.97-.13-6.19.2-12.39.21-18.58,0-1.93-3-1.93-3,0h0Z"/>
      </g>
    </g>
  </g>
</svg>