<?xml version="1.0" encoding="UTF-8"?>
<svg id="Layer_2" data-name="Layer 2" xmlns="http://www.w3.org/2000/svg" xmlns:xlink="http://www.w3.org/1999/xlink" viewBox="0 0 324.41 472.71">
  <defs>
    <style>
      .cls-1 {
        fill: #717677;
      }

      .cls-2 {
        fill: #d68569;
        opacity: .5;
      }

      .cls-3 {
        fill: #3f2200;
      }

      .cls-4 {
        fill: #fff;
      }

      .cls-4, .cls-5, .cls-6 {
        stroke: #000;
        stroke-miterlimit: 10;
      }

      .cls-7 {
        fill: url(#Namnlös_övertoning_23-2);
      }

      .cls-8 {
        opacity: .2;
      }

      .cls-9 {
        fill: url(#Namnlös_övertoning_23);
      }

      .cls-10 {
        fill: #c49955;
      }

      .cls-5 {
        stroke-width: 12px;
      }

      .cls-5, .cls-6 {
        fill: none;
      }

      .cls-6 {
        stroke-linecap: round;
        stroke-width: 3px;
      }

      .cls-11 {
        fill: #efdfcb;
      }
    </style>
    <linearGradient id="Namnlös_övertoning_23" data-name="Namnlös övertoning 23" x1="168.99" y1="243.91" x2="187.73" y2="313.84" gradientTransform="translate(-41.17 -46) rotate(-8.29)" gradientUnits="userSpaceOnUse">
      <stop offset="0" stop-color="#fff"/>
      <stop offset="1" stop-color="#fff" stop-opacity="0"/>
    </linearGradient>
    <linearGradient id="Namnlös_övertoning_23-2" data-name="Namnlös övertoning 23" x1="63.31" y1="242.93" x2="82.67" y2="315.2" xlink:href="#Namnlös_övertoning_23"/>
  </defs>
  <g id="Lager_1" data-name="Lager 1">
    <g>
      <path class="cls-5" d="M81.74,356.28c6.26,8.8,13.18,17.09,20.21,25.28,3.42,3.99,6.74,8.17,10.65,11.71,3.71,3.36,8.01,5.78,12.76,7.35,1.09.36,2.2.68,3.32.97,7.96,13.85,9.52,30.2,7.24,45.81-.58,3.97-1.4,7.91-2.4,11.8-.1.37,0,.83.29,1.09,6.05,5.39,14.77,5.88,22.47,6.21,8.98.38,17.98.26,26.95-.44,17.56-1.37,34.94-4.96,51.5-10.97,9.46-3.44,18.63-7.63,27.44-12.5.54-.3.69-1.02.4-1.54-1.88-3.42-3.46-6.99-5.14-10.51,4.8,2.17,9.6,4.34,14.4,6.51.74.34,1.7-.05,1.69-.97-.07-5.19-.13-10.38-.2-15.57,2.71,1.89,5.54,3.59,8.51,5.06,1.81.9,3.66,1.72,5.54,2.47.9.36,1.8.73,2.73,1.02,1,.32,1.47-.09,2.29-.67,5.9-4.26,11.11-9.39,15.42-15.25,4.15-5.65,7.41-11.99,9.44-18.71.25-.84.49-1.69.7-2.54.17-.7.6-1.71.42-2.42-.17-.69-.85-1.39-1.23-1.99-.47-.75-.92-1.5-1.35-2.27-1.78-3.14-3.32-6.42-4.65-9.78-5.67-14.27-8.25-29.62-10.45-44.75-2.25-15.51-4.23-31.07-6-46.65-.72-6.34-1.4-12.68-2.04-19.02,2.89.57,5.78-.84,7.8-2.88,2.25-2.26,3.08-4.94,2.08-8.02-.61-1.86-1.63-3.57-2.46-5.34-.92-1.97-1.7-4-2.36-6.07-1.34-4.23-2.1-8.61-2.31-13.04,0-.05-.02-.08-.03-.12,1.22-.86,2.21-1.97,2.95-3.39,1.39-2.66,1.13-5.4,1.16-8.31.04-3.54.22-7.08.49-10.61,1.05-13.53,3.59-26.97,3.56-40.58-.01-6.81-.71-13.66-2.41-20.26-1.2-4.68-4.58-9.41-9.04-11.47-2.66-1.23-5.5-1.13-8.33-.6-1.07.2-2.16.47-3.22.83-1.17-3.59-1.69-7.32-1.55-11.1.74-5.99.68-12.15.21-18.11-.56-7.12-1.85-14.18-3.84-21.03-4.03-13.86-10.88-26.86-20.04-38.01-8.98-10.93-20.22-19.95-32.66-26.67-12.56-6.79-26.35-11.28-40.5-13.18-16.5-2.23-33.19-.45-49.65,1.24-15.36,1.58-30.99,4.15-44.13,12.8-6.55,4.31-12.33,9.66-18,15.05-6.13,5.84-12.07,11.87-17.81,18.08-2.84,3.07-5.63,6.19-8.37,9.35-2.53,2.92-5.08,5.91-6.86,9.35-3.69,7.15-3.16,15.68-3.39,23.49-.41,14.03-.83,28.07-1.24,42.1-.11,3.84-.23,7.68-.34,11.53-10.7,13.1-19.14,28.08-24.32,44.2-.73,2.27-1.39,4.57-1.99,6.88-.23.88.55,1.54,1.38,1.38,3.03-.57,6.01-1.54,8.46-3.46,2.43-1.91,3.98-4.53,5.14-7.35,2.75-8.09,7.17-15.4,12.65-21.86.57,7.86.42,15.75,1.47,23.57-2.27,1.33-4.3,3.01-5.91,5.19-2.6,3.53-3.57,7.92-3.95,12.21-.44,4.95-.33,10.05.78,14.9,2.36,10.29,9.49,18.63,18.4,24.06.72,4.59,1.65,9.17,2.6,13.7,2.33,11.01,5.5,21.72,8.86,32.45.52,4.55,3.07,12,5.27,17.99.62,2.09,1.25,4.17,1.93,6.25,2.5,7.69,5.68,15.04,9.63,22.09"/>
      <path class="cls-11" d="M33.69,169.17l3.49,29.46,6.3,22.71-.38,10.84,7.66,36.94,10.55,42.62,7.31,19.85,17.25,29.88,27.08,30.58,8.79,6.91,9.23,3.35,6.15,18.78.4,15.71-1.23,14.29-1.69,8.39,6.38,3.66,19.97,2.38,27.79-.93,27.76-5.09,25.26-8.35,18.94-9.05-1.69-5.57-3.34-7.08,15.8,6.2.71-16.25,18.64,8.71,13.36-12.18,7.79-11.59s5.6-14.16,5.32-14.59-8.31-16.87-8.31-16.87l-7.35-29.16-5.13-35.48-7.9-77.18,7.39-3.53,2.36-5.9.91-19.25,3.08-32.32-1.69-21.79-2.09-5.28-5.36-6.13-8.31-1.6-6.99,2.28-5.08,5.11-7.11,4.04-19.37,11.93-2.18,8.81-3.65-.04-6.16-11.18-10.08-7.91-10.26-5.4-16.93-6.74-25.31-6.44-27.28-2.69-23.6.78-20.49,3.79-24.5,7.8-19.24,9.71-21.1,15.13-1.88,4.93Z"/>
      <path d="M118.01,330.44c4.61-6.5,12.97-11.04,20.02-13.99l-14.91,2.09-10.2,3.88,5.08,8.02Z"/>
      <line class="cls-6" x1="214.34" y1="181.75" x2="239.9" y2="167.02"/>
      <line class="cls-6" x1="245.74" y1="163.55" x2="266.85" y2="151.05"/>
      <path class="cls-8" d="M252.86,155.96c-1.45,2.43-1.34,5.24-.93,9.62.92,10.11,2.5,23.62,3.27,33.28.42,5.75-.34,10.96-1.02,16.87-.66,6.56-1.75,14.49-5.74,19.47-5.29,6.84-12.2,12.58-18.24,18.64-7.97,7.07-11.69,16.89-11.13,27.65.08,8.61,2.69,17.01,1.99,25.35-1.84,18.97-10.58,39.55-29.27,46.78-11.98,5.52-26.04,4.47-33.17-7.86-1.9-3.18-3.54-6.78-6.04-9.36-6.14-5.8-16.07-2.09-17.45,6.42-.66,3.33-.51,6.88-1.16,10.22-1.88,12.96-15.34,16.92-26.68,15.09-6.27-1.2-12.56-4.55-17.46-8.76-3.35-3.07-5.2-6.97-6.82-11.31-4.18-11.53-7.97-22.24-11.74-34.04-2.68-7.95-5.47-16.15-11.67-21.33-10.51-6.83,4.22,27.24,4.95,30.4,2.68,7.75,4.42,10.84,8.66,17.08,7.98,11.49,16.65,25.98,24.93,36.68,4.7,5.72,10.62,12.38,16,17.21,2.44,2.16,5.03,3.84,8.06,5.15,12.64,5.19,26.18,4.92,39.55,3.63,8.01-.51,14.66-2.67,21.85-5.56,28.14-10.92,47.74-35.74,63.75-60.36,2.97-4.65,6.51-10.09,9.29-14.48,6.24-9.75,11.58-20.45,17.27-30.75,4.08-7.16,5.72-13.24,7.76-20.94,1.91-6.92,3.94-15.23,4.07-21.83.53-16.02-12.5-20.12-16.37-33.92-1.99-7.54-1.98-15.57-2.55-23.47-.97-12.45-.98-24.16.33-36.44.06-2.89,2.59-10.58.19-10.13-3.5,1.01-7.62,4.45-11.28,7.39-1.18,1.02-2.34,2.19-3.13,3.49l-.07.12Z"/>
      <path class="cls-3" d="M86.97,312.21c-2.25.84-3.32,3.25-3.99,5.46-1.9,6.23-2.5,12.81-1.76,19.22,4.55-2.41,9.1-4.82,13.65-7.23,7.74-4.1,15.58-8.24,24.08-10.53,6.21-1.67,12.66-2.33,19.08-2.69,17.92-.99,35.95.36,53.42,3.98,4.25.88,9.5,1.59,12.28-1.65-.41,1.1,1.46,1.89,2.43,1.17.97-.72,1.11-2.05,1.05-3.21-.47-9.3-8.01-17.18-16.95-20.86-8.94-3.68-19.07-3.87-28.85-3.29-15.9.94-31.7,3.74-46.94,8.33-11.37,3.42-22.67,7.98-31.51,15.66"/>
      <path class="cls-9" d="M138.97,228.36c.59-.49.84,1.05.06,1.05s-1.18-.84-1.38-1.54c-.94-3.19-1.87-6.38-2.81-9.58-1.79-6.1-3.59-12.3-3.57-18.66.02-6.36,2.1-13.02,7.05-17.49,4.35-3.94,10.36-5.76,16.19-7.18,10.85-2.65,21.94-4.4,33.08-5.22,6.85-.5,14.31-.49,19.73,3.33,4.08,2.88,6.31,7.48,7.94,12.03,1.44,4.04,2.54,8.23,2.81,12.51,1.04,16.2-10.59,32.15-26.47,39.13-15.88,6.98-34.99,5.58-50.36-1.76"/>
      <path class="cls-7" d="M111.75,232.32c-.7-.3-.5,1.24.24,1.02s.89-1.14.89-1.87c-.01-3.33-.03-6.65-.04-9.98-.03-6.36-.06-12.81-1.9-18.9-1.84-6.09-5.73-11.88-11.74-14.76-5.3-2.53-11.57-2.56-17.57-2.26-11.16.55-22.28,2.04-33.2,4.43-6.71,1.47-13.86,3.61-17.96,8.82-3.09,3.93-3.92,8.97-4.18,13.79-.23,4.29-.08,8.61.87,12.79,3.62,15.83,19.33,27.79,36.53,29.95,17.21,2.16,35.12-4.64,47.76-16.06"/>
      <path class="cls-4" d="M90.59,332.87l4.69,5.66,2.27,4.34.29,2.02-10.08,6.42-7.52,4.79-1.31,2.69-4.08,2.04-2.07,7.96-3.48,35.95-3.95-4.33-5.25-1.36-4.63-.57,2.04-16.18,4.95-28.34,6.34.22s.92-5.47.2-5.53,5.13-6.27,5.13-6.27l16.47-9.5Z"/>
      <path class="cls-10" d="M91.21,332.78l5.83,8.13,1.54,3.36,19.42-13.84s.2-5.87-5.42-8.89c-2.92-1.57-21.38,11.24-21.38,11.24Z"/>
      <path class="cls-2" d="M118.01,330.44c4.61-6.5,12.97-11.04,20.02-13.99,16.77-.13,47.13,2.32,63.33,5.04-8.49,2.57-26.29,6.76-35.07,7-5.79-1.45-18.56-.67-24.47.14-10.76,1.86-22.6,10.13-33.76,9.57l9.94-7.75Z"/>
      <polygon class="cls-3" points="289.31 231.81 291.97 264.05 296.21 263.43 301.22 260.44 302.06 255.72 298.64 248.37 294.56 233.38 294.26 229.67 289.31 231.81"/>
      <polygon class="cls-3" points="277.83 127.85 279.9 137.18 273.81 140.16 277.83 127.85"/>
      <polygon class="cls-1" points="243.61 168.56 246.35 158.62 254.52 154.73 269.48 143.07 275.94 132.36 278.11 122.48 278.25 108.88 275.87 89.43 266.52 65.91 254.3 47.45 237.93 31.55 214.79 17.59 196.61 11.08 174.2 7.37 139.74 8.71 103.46 14.98 89.3 21.82 63.44 44.5 43.17 66.5 37.11 76.22 35.45 85.31 33.37 149.79 21.79 166.9 12.83 184.5 7.04 200.81 13.39 199.16 18.81 193.81 22.03 185.37 31.35 168.74 42 158.53 66.47 144.08 91.7 135.56 116.53 131.02 152.69 129.31 178.41 132.81 201.36 137.87 221.46 146.53 231.66 153.5 238.34 161.21 241.62 167.4 243.61 168.56"/>
      <path d="M21.03,191.7c2.39-7.07,5.41-13.97,9.66-20.14,3.79-5.51,8.57-10.27,14.02-14.14,6.16-4.38,13.01-7.72,20-10.55s14.73-5.62,22.25-7.94c14.73-4.54,29.91-7.55,45.32-8.29,17.48-.85,34.96,1.14,51.99,5.04,10.29,2.35,20.43,5.36,30.39,8.82,8.29,2.88,16.13,7.91,21.28,15.14,1.23,1.73,2.29,3.56,3.18,5.49.6,1.31,2.54.17,1.94-1.14-3.71-8.06-10.57-14.35-18.33-18.45-4.43-2.34-9.23-3.85-13.98-5.39-5.15-1.67-10.35-3.21-15.59-4.59-17.84-4.71-36.25-7.57-54.73-7.35-15.89.19-31.65,2.72-46.93,7.03-7.63,2.16-15.14,4.73-22.55,7.56-7.48,2.86-14.89,6-21.7,10.23-5.84,3.63-11.18,8.07-15.53,13.42-4.63,5.69-8.08,12.18-10.79,18.98-.75,1.87-1.43,3.77-2.08,5.68-.46,1.37,1.71,1.96,2.17.6h0Z"/>
      <path d="M18.86,191.1c-1,2.43-2.43,4.75-4.56,6.35s-4.83,2.39-7.47,2.89l1.38,1.38c4.88-18.83,14.25-36.35,26.69-51.27s28.38-27.74,45.98-36.72c20.17-10.29,43.3-16.21,66.01-14.67,11.54.78,23.01,3.86,34,7.34,10.36,3.28,20.5,7.71,29.94,13.1,8,4.56,14.88,10.4,21.65,16.59,2.13,1.94,4.21,3.94,6.13,6.1,1.71,1.92,3.46,4.01,4.51,6.38,1.87,4.24,1.99,9.38,1.21,13.88-.38,2.17-.98,4.32-1.99,6.29l1.77-.23c-1.49-1.19-2.16-2.89-3.05-4.53-.69-1.28-2.63-.14-1.94,1.14.97,1.81,1.76,3.67,3.4,4.98.53.42,1.41.48,1.77-.23,2.16-4.24,2.9-9.22,2.66-13.94-.12-2.33-.48-4.69-1.25-6.9s-2.1-4.23-3.58-6.14c-3.69-4.73-8.29-8.62-12.74-12.61-3.28-2.94-6.68-5.74-10.3-8.25-8.47-5.89-18.02-10.36-27.56-14.23-5.28-2.14-10.73-3.87-16.22-5.42s-11.31-3.05-17.04-4.13c-23.6-4.45-48.45.2-70.28,9.65-18.73,8.11-35.73,20.23-49.6,35.19s-24.23,32.1-30.35,51.15c-.73,2.27-1.39,4.57-1.99,6.88-.23.88.55,1.54,1.38,1.38,3.03-.57,6.01-1.54,8.46-3.46s3.98-4.53,5.14-7.35c.55-1.34-1.62-1.92-2.17-.6h0Z"/>
      <path d="M247.53,159.5c7.1-3.07,13.7-7.26,19.46-12.44,2.8-2.52,5.44-5.29,7.44-8.49s3.24-6.87,3.95-10.59c1.36-7.19,1.38-14.76.8-22.03s-1.85-14.18-3.84-21.03c-4.03-13.86-10.88-26.86-20.04-38.01s-20.22-19.95-32.66-26.67c-12.56-6.79-26.35-11.28-40.5-13.18-16.5-2.23-33.19-.45-49.65,1.24-15.36,1.58-30.99,4.15-44.13,12.8-6.55,4.31-12.33,9.66-17.99,15.05-6.13,5.84-12.07,11.87-17.81,18.08-2.84,3.07-5.63,6.19-8.37,9.35-2.53,2.92-5.08,5.91-6.86,9.35-3.69,7.15-3.16,15.68-3.39,23.49-.41,14.03-.83,28.07-1.24,42.1-.12,3.97-.23,7.95-.35,11.92-.04,1.45,2.21,1.45,2.25,0,.41-13.93.82-27.86,1.23-41.8.22-7.55.28-15.13.71-22.67.22-3.94.78-7.94,2.54-11.52s4.31-6.52,6.86-9.47c10.52-12.12,21.72-23.87,33.83-34.43,5.81-5.07,12.08-9.57,19.19-12.65s14.36-4.71,21.79-5.89,15.55-1.89,23.34-2.59c8.58-.78,17.19-1.4,25.81-1.15,14.07.42,28.02,3.45,41.02,8.83s24.62,12.89,34.58,22.47c10.19,9.81,18.33,21.73,23.77,34.79s8.2,27.03,7.98,41.1c-.12,7.31-.66,15.17-4.52,21.58s-10.25,11.39-16.45,15.3c-3.15,1.99-6.45,3.71-9.87,5.19-1.33.57-.18,2.51,1.14,1.94h0Z"/>
      <path d="M81.25,355.6c6.38,9.05,13.49,17.56,20.7,25.96,3.42,3.99,6.74,8.17,10.65,11.71s8.01,5.78,12.76,7.35c9.08,2.99,19.18,3.6,28.67,3.07,9.42-.53,18.77-2.41,27.65-5.58s17.27-7.56,24.83-13.15c8.19-6.06,15.21-13.48,21.55-21.41,6.77-8.47,12.94-17.43,18.98-26.43,6.16-9.18,12.21-18.46,17.96-27.9,10.57-17.35,20.35-36.42,21.35-57.1.12-2.47.1-4.95-.04-7.42-.08-1.44-2.33-1.45-2.25,0,1.18,20.34-7.17,39.52-17.1,56.79-5.25,9.12-10.99,17.97-16.75,26.77s-12.04,18.09-18.49,26.83c-6.03,8.17-12.52,16.07-20.11,22.84-6.94,6.18-14.82,11.25-23.28,15.08-16.81,7.63-36.12,10.49-54.36,7.37-4.85-.83-9.7-2.13-14.03-4.54s-7.91-6.1-11.21-9.87c-7.12-8.14-14.2-16.36-20.75-24.98-1.63-2.15-3.23-4.32-4.78-6.52-.83-1.17-2.78-.05-1.94,1.14h0Z"/>
      <path d="M33.23,165.15c.96,10.22.53,20.5,2.31,30.66,1.15,6.58,3.07,13,5.51,19.22,1.53,3.9,1.5,8.28,1.7,12.42.25,5.3.34,10.62.88,15.9.69,6.75,2.05,13.49,3.45,20.13,2.35,11.15,5.58,21.98,8.98,32.84,2.48,7.91,4.51,15.96,7.08,23.84s5.88,15.53,10.02,22.79c.72,1.26,2.66.13,1.94-1.14-3.73-6.55-6.8-13.36-9.22-20.5-2.36-6.98-4.23-14.12-6.32-21.18-1.54-5.22-3.31-10.36-4.85-15.58-1.67-5.66-3.16-11.38-4.48-17.13-1.61-7.03-2.95-14.12-4-21.26-.75-5.06-.88-10.19-1.09-15.3-.19-4.6-.18-9.38-1.12-13.91-.55-2.67-1.87-5.21-2.74-7.8-1.06-3.14-1.97-6.34-2.7-9.57-1.33-5.88-1.98-11.86-2.27-17.87-.27-5.52-.31-11.05-.83-16.55-.13-1.43-2.38-1.44-2.25,0h0Z"/>
      <path d="M267.93,152.24c2.28-3.85,4.7-7.56,7.45-11.09s8.26-5.13,12.69-4.96c4.7.18,8.52,4.73,10.21,8.77,1.06,2.54,1.49,5.47,1.94,8.17.5,3.05.8,6.14.94,9.23.56,12.18-1.33,24.28-2.64,36.35-.69,6.36-1.24,12.74-1.31,19.13-.03,2.76.31,5.35-1.21,7.79-1.21,1.96-2.91,2.78-4.99,3.55-2.34.87-4.55.97-7.01.4-2.33-.54-4.47-1.68-6.14-3.41-3.31-3.43-4.13-8.46-2.93-12.96.38-1.4-1.79-2-2.17-.6-1.2,4.46-.68,9.41,1.97,13.27s7.22,6.12,12,6.31c2.37.1,4.36-.59,6.53-1.51s3.9-2.39,5.02-4.54c1.39-2.66,1.13-5.4,1.16-8.31.04-3.54.22-7.08.49-10.61,1.05-13.53,3.59-26.97,3.56-40.58-.01-6.81-.71-13.66-2.41-20.26-1.2-4.68-4.58-9.41-9.04-11.47-2.66-1.23-5.5-1.13-8.33-.6s-5.85,1.59-8.17,3.41c-1.81,1.42-3.17,3.56-4.5,5.41-1.84,2.56-3.48,5.25-5.09,7.96-.74,1.25,1.2,2.38,1.94,1.14h0Z"/>
      <path d="M114.43,190.85c1.3,17.32,1.6,34.75-.03,52.05-.42,4.43-.96,8.85-1.66,13.25s-1.58,8.41-2.04,12.66c-.75,6.93.2,14.73,5.62,19.7,4.89,4.48,13.51,5.28,18.2.03.96-1.08-.62-2.67-1.59-1.59-4.02,4.5-11.42,3.57-15.43-.42-5.19-5.16-5.27-13.03-4.28-19.79.58-3.99,1.4-7.93,1.99-11.92s1.09-8.09,1.47-12.16c.76-8.08,1.09-16.2,1.1-24.32,0-9.17-.4-18.34-1.09-27.49-.11-1.44-2.36-1.45-2.25,0h0Z"/>
      <path d="M149.84,286.1c5,1.65,10.75-1.88,12.28-6.75.43-1.38.46-2.85.09-4.25s-2.54-.8-2.17.6c.31,1.17.21,2.32-.25,3.5s-1.28,2.2-2.24,3.04c-1.96,1.72-4.66,2.51-7.12,1.7-1.38-.46-1.97,1.72-.6,2.17h0Z"/>
      <path d="M96.73,282.6c.27,3.65,2.74,6.8,6.17,8.04s7.72.23,10.34-2.4c1.03-1.02-.56-2.62-1.59-1.59-2.04,2.04-5.21,2.8-7.95,1.89-2.53-.84-4.52-3.27-4.72-5.94-.11-1.44-2.36-1.45-2.25,0h0Z"/>
      <path d="M81.89,317.36c-1.89,6.32-2.52,12.96-1.8,19.52.09.85.88,1.4,1.69.97,7.68-4.06,15.29-8.3,23.11-12.08,7.88-3.81,16.01-6.48,24.72-7.51s17.43-1.18,26.11-.92,17.68,1.09,26.41,2.5c4.28.69,8.51,1.79,12.81,2.29,3.39.39,7.15.11,9.58-2.57l-1.88-1.09c-.46,2.08,1.9,3.43,3.71,2.64,2.3-1,2.09-4.06,1.81-6.09-.64-4.7-2.99-8.98-6.19-12.43-7.7-8.32-19.19-10.99-30.13-11.34-12.51-.39-25.26,1.24-37.52,3.61-10.76,2.08-21.41,4.84-31.47,9.24-4.63,2.02-9.2,4.26-13.53,6.88-1.69,1.02-3.34,2.1-4.87,3.35-.93.75-1.98,1.65-2.46,2.77-.56,1.32,1.37,2.46,1.94,1.14.83-1.93,3.39-3.33,5.07-4.41,3.25-2.09,6.69-3.89,10.16-5.57,8.27-3.99,16.81-6.84,25.72-9.03,11.12-2.73,22.47-4.53,33.89-5.35,10.59-.76,22.04-1.07,31.93,3.41,4.5,2.04,8.67,5.14,11.56,9.18,1.42,1.99,2.55,4.19,3.2,6.55.32,1.16.53,2.34.6,3.54.03.6.07,1.27-.15,1.84-.09.24-.18.48-.43.6-.14.07-.67.03-.68.07.23-1.03-1.08-1.97-1.88-1.09-2.2,2.42-5.78,2.25-8.76,1.8-3.99-.6-7.93-1.55-11.92-2.18-8.46-1.34-17-2.17-25.56-2.47-8.69-.3-17.47-.16-26.12.78s-16.23,3.09-23.88,6.55c-8.89,4.02-17.42,8.89-26.04,13.45l1.69.97c-.7-6.38-.11-12.77,1.72-18.92.42-1.39-1.76-1.98-2.17-.6h0Z"/>
      <path d="M85.61,186.56c17.05-2.53,34.11-5.06,51.16-7.59l14.58-2.16c1.43-.21.82-2.38-.6-2.17-17.05,2.53-34.11,5.06-51.16,7.59-4.86.72-9.72,1.44-14.58,2.16-1.43.21-.82,2.38.6,2.17h0Z"/>
      <path d="M110.66,197.69c.94-3.76,4.35-6.34,8.05-7.08,4.35-.87,8.91.94,12.25,3.67,1.11.91,2.71-.68,1.59-1.59-4.01-3.27-9.23-5.28-14.44-4.25-4.44.88-8.51,4.18-9.62,8.65-.35,1.41,1.82,2,2.17.6h0Z"/>
      <path d="M287.47,231.07c1.47,21.75,3.75,43.44,6.38,65.08,1.28,10.54,2.66,21.06,4.15,31.57s3.12,21.05,5.66,31.38c2.68,10.9,6.36,21.84,12.64,31.24l-.11-.87c-3.34,15.36-13.17,28.74-25.95,37.69l.87-.11c-6.59-2.29-12.79-5.53-18.38-9.7-.7-.52-1.7.19-1.69.97.08,5.92.15,11.84.23,17.77l1.69-.97c-5.78-2.62-11.56-5.23-17.35-7.85-1.01-.46-2.08.49-1.54,1.54,2.26,4.42,4.15,9.03,6.55,13.38l.4-1.54c-15.14,8.36-31.35,14.66-48.2,18.6-16.83,3.94-34.14,5.52-51.41,5.16-4.74-.1-9.55-.18-14.24-.92-4.22-.66-8.53-1.9-11.78-4.8l.29,1.09c3.89-15.11,5.08-31.42.5-46.53-1.4-4.6-3.34-9.03-5.77-13.18-.73-1.25-2.68-.12-1.94,1.14,8.15,13.92,9.75,30.43,7.45,46.18-.58,3.97-1.4,7.91-2.4,11.8-.1.37,0,.83.29,1.09,6.05,5.39,14.77,5.88,22.47,6.21,8.98.38,17.99.26,26.95-.44,17.56-1.37,34.94-4.96,51.5-10.97,9.46-3.44,18.63-7.63,27.44-12.5.54-.3.69-1.02.4-1.54-2.4-4.36-4.29-8.96-6.55-13.38l-1.54,1.54c5.78,2.62,11.56,5.23,17.35,7.85.74.34,1.7-.05,1.69-.97-.08-5.92-.15-11.84-.23-17.77l-1.69.97c3.22,2.4,6.64,4.5,10.23,6.29,1.81.9,3.66,1.72,5.54,2.47.9.36,1.8.73,2.73,1.02,1,.32,1.47-.09,2.29-.67,5.9-4.26,11.11-9.39,15.42-15.25s7.41-11.99,9.44-18.71c.25-.84.49-1.69.7-2.54.17-.7.6-1.71.42-2.42s-.85-1.39-1.23-1.99c-.47-.75-.92-1.5-1.35-2.27-1.78-3.14-3.32-6.42-4.65-9.78-5.67-14.27-8.25-29.62-10.45-44.75-2.25-15.51-4.23-31.07-6-46.65s-3.39-31.7-4.57-47.6c-.13-1.79-.26-3.58-.38-5.36-.1-1.44-2.35-1.45-2.25,0h0Z"/>
      <path d="M133.64,331.98c7.96-2.65,16.32-3.7,24.69-3.1,1.44.1,1.44-2.15,0-2.25-8.55-.61-17.16.47-25.29,3.18-1.37.46-.78,2.63.6,2.17h0Z"/>
      <path d="M112.09,321.03c-6.61,3.65-13.33,7.09-20.03,10.58-3.45,1.8-6.9,3.6-10.33,5.44s-6.79,3.43-9.73,5.77c-3.49,2.78-6.07,7.68-3.54,11.95l.97-1.69c-2.33-.08-4.65-.16-6.98-.24-.46-.02-.99.36-1.08.83-3.27,15.94-5.74,32.03-7.38,48.22-.15,1.44,2.1,1.43,2.25,0,1.62-15.99,4.07-31.88,7.3-47.62l-1.08.83c2.33.08,4.65.16,6.98.24.86.03,1.4-.98.97-1.69-2.35-3.95,1.29-8.02,4.43-10.1,2.82-1.87,5.9-3.4,8.88-4.99,6.56-3.49,13.16-6.89,19.73-10.34,3.27-1.72,6.54-3.44,9.77-5.23,1.27-.7.13-2.64-1.14-1.94h0Z"/>
      <path d="M116.76,330.05c-7.97,5.67-15.98,11.28-23.96,16.95-3.1,2.2-6.2,4.25-9.63,5.9-1.36.66-2.79,1.39-3.83,2.52-.43.47-.78.99-1.03,1.58-.32.74-.24,1.6-1.06,1.89-.68.24-1.42.2-2.1.48-.74.31-1.38.81-1.88,1.44-1.07,1.32-1.39,2.96-1.48,4.62-.23,4.32-.59,8.59-1.08,12.89-.56,4.96-1.12,9.93-1.67,14.89-.44,3.94-.87,7.8-.88,11.77,0,1.45,2.25,1.45,2.25,0,0-7.5,1.24-15,2.08-22.44.47-4.2,1.03-8.41,1.35-12.62.15-1.98-.08-4.18.42-6.12.2-.78.59-1.59,1.26-2.08s1.54-.45,2.33-.66c1.6-.43,1.93-1.45,2.41-2.88s1.84-2.2,3.08-2.85c1.55-.81,3.14-1.5,4.65-2.39,1.68-.99,3.29-2.1,4.88-3.23,3.92-2.77,7.83-5.55,11.75-8.32,4.42-3.13,8.85-6.25,13.26-9.39,1.17-.83.05-2.78-1.14-1.94h0Z"/>
      <path d="M56.27,400.1c-.11.09-.59.41-.31.23-.03.02-.24.02.03,0,.21-.01.41-.03.62-.04.57-.03,1.13-.04,1.7-.05.87-.02,1.74-.06,2.61.04,1.28.15,2.51.52,3.55,1.29,1.13.83,2.05,1.98,2.97,3.02l1.09-1.88c-3.43-.63-7.19-.91-10.64-.23-1.21.24-2.51.74-3.31,1.73s-.94,2.46-.18,3.54c.72,1.02,1.93,1.57,3.11,1.85,1.31.31,2.76.49,3.99-.15.71-.37,1.46-.69,2.17-1.06s1.74-.87,1.72-1.81c0-.75-.8-1.35-1.4-1.67-.65-.34-1.38-.49-2.11-.48-1.15.03-2.31.4-3.3.96-.56.31-.66,1-.4,1.54.95,1.97,2.89,3.39,5.05,3.73,1.85.29,3.98-.07,5.04-1.77.77-1.23-1.17-2.36-1.94-1.14-.07.11-.08.12,0,.03-.04.05-.09.11-.14.16-.05.05-.1.1-.16.15.09-.06.07-.06-.03.02-.32.2-.35.21-.68.3-.55.15-1.18.16-1.76.04-1.53-.31-2.75-1.23-3.42-2.64l-.4,1.54c1.06-.6,2.69-1.07,3.75.01l-.29-.5c.02.05.25-1.05.21-.9,0,0-.07.07-.07.07.03.01.16-.1-.06.03-.24.14-.48.28-.72.41-.49.25-.98.49-1.48.72-.34.16-.72.43-1.1.47-.67.08-1.45-.09-2.1-.27-.74-.2-2.2-.76-1.6-1.68.34-.53,1.13-.76,1.7-.91.84-.22,1.7-.28,2.56-.33,2.48-.15,4.96,0,7.4.44,1.11.2,1.86-1.01,1.09-1.88-1.09-1.24-2.17-2.51-3.54-3.46s-2.95-1.34-4.57-1.51c-1-.11-2.01-.05-3.01-.03s-2.41-.15-3.22.51c-.47.38-.4,1.19,0,1.59.47.47,1.12.38,1.59,0h0Z"/>
      <path d="M90.58,334.68c3.22,2.74,5.55,6.35,6.62,10.44.36,1.4,2.54.81,2.17-.6-1.16-4.44-3.71-8.46-7.2-11.44-.46-.39-1.14-.45-1.59,0-.4.4-.46,1.2,0,1.59h0Z"/>
      <path d="M293.14,229.67c.34,7.47,2.23,14.78,5.57,21.47,1.37,2.74,3.05,5.64.98,8.44-1.53,2.07-4.29,3.9-6.94,3.17-1.4-.39-1.99,1.78-.6,2.17,3.05.84,6.15-.63,8.29-2.79,2.25-2.26,3.08-4.94,2.08-8.02-.61-1.86-1.63-3.57-2.46-5.34-.92-1.97-1.7-4-2.36-6.07-1.34-4.23-2.1-8.61-2.31-13.04-.07-1.44-2.32-1.45-2.25,0h0Z"/>
      <path d="M276.73,123.81c-.2,4.43.47,8.88,2,13.05.21.57.76.96,1.38.79.55-.15,1-.81.79-1.38-1.47-4-2.11-8.2-1.92-12.45.07-1.45-2.18-1.44-2.25,0h0Z"/>
      <path d="M166.33,189.41c-.46,3.07-.27,6.29,1.24,9.07,1.24,2.28,3.35,4.08,5.79,4.95,5.2,1.85,10.69-1.62,12.47-6.57,1.18-3.28.68-6.9-.75-10.02-.6-1.31-2.54-.17-1.94,1.14,1.9,4.15,1.4,9.53-2.57,12.29-3.57,2.49-8.22,1.39-10.61-2.19-1.57-2.35-1.88-5.33-1.47-8.08.09-.61-.15-1.2-.79-1.38-.53-.15-1.29.19-1.38.79h0Z"/>
      <path d="M150.85,202.01c3.11-2.55,6.23-5.26,9.55-7.52,2.92-1.99,6.16-3.44,9.55-4.4,6.98-1.98,14.48-1.98,21.56-.53,4.04.82,7.98,2.12,11.69,3.91,1.3.63,2.44-1.31,1.14-1.94-13.33-6.43-30.9-7.76-43.89.26-1.84,1.13-3.47,2.51-5.16,3.85-2.01,1.6-4.04,3.16-6.03,4.79-1.12.92.48,2.5,1.59,1.59h0Z"/>
      <path d="M193.2,209.06c-2.03,1.77-4.08,3.78-6.41,5.16-2.17,1.28-4.63,2.05-7.13,2.35-5.07.61-10.32-.48-14.83-2.83-.86-.45-1.61.85-.76,1.3,4.86,2.53,10.49,3.71,15.94,2.99,2.58-.34,5.12-1.11,7.38-2.42,2.51-1.45,4.69-3.59,6.86-5.49.73-.64-.34-1.69-1.06-1.06h0Z"/>
      <path d="M192.25,203.94c-2.01,1.75-4.03,3.74-6.33,5.1-2.11,1.25-4.51,1.99-6.94,2.3-5,.62-10.19-.47-14.64-2.78-1.28-.67-2.42,1.27-1.14,1.94,4.92,2.56,10.61,3.76,16.13,3.05,2.65-.34,5.25-1.13,7.57-2.47,2.53-1.46,4.74-3.63,6.94-5.54,1.09-.95-.5-2.54-1.59-1.59h0Z"/>
      <path d="M175.22,187.6c-.83.22-1.57.65-2.06,1.37-.33.49-.53,1.14-.65,1.72-.38,1.86.06,3.81,1.66,4.95,1.47,1.04,3.46.77,4.7-.49,1.35-1.37,1.46-3.42.68-5.1-.39-.85-1.07-1.64-1.91-2.08-.78-.41-1.57-.52-2.43-.35-.58.11-.96.84-.79,1.38.2.62.76.91,1.38.79.05,0,.11-.02.15-.03-.08.03-.27.02-.03.01.06,0,.12,0,.18,0-.05,0-.24-.06-.03,0,.07.02.14.03.21.06.05.02.33.15.12.04.12.06.23.13.34.19.04.02.16.13,0,0,.05.04.1.08.15.13.1.09.18.19.27.28.21.22-.06-.11.04.05.04.07.09.14.14.21.08.13.15.27.22.41.08.15-.04-.14,0,.02.02.07.05.13.07.2.05.15.08.31.12.46,0,.04.02.22,0,.01,0,.11.02.21.02.32,0,.14,0,.28-.02.42,0-.05.04-.2,0,.01-.02.07-.03.14-.05.2s-.04.13-.06.2c-.07.22-.02.05,0,0-.07.14-.15.27-.23.41-.11.18-.02.03,0,0-.05.06-.1.12-.16.17-.04.04-.09.09-.14.13-.03.02-.18.14-.07.06.14-.1-.12.07-.12.07-.05.03-.11.06-.16.09-.04.02-.2.09.02,0-.09.03-.17.06-.26.09-.06.02-.12.03-.18.04-.08.02-.18-.01.02,0-.12,0-.25,0-.37,0,.21,0,.09.02.02,0s-.15-.04-.22-.06c-.03-.01-.22-.07-.08-.02.14.05-.09-.05-.12-.06-.07-.04-.14-.08-.2-.12-.03-.02-.19-.14-.08-.05s-.04-.04-.07-.06c-.06-.05-.11-.11-.17-.17-.04-.05-.08-.09-.12-.14.03.04.12.18,0,0-.08-.13-.16-.27-.23-.41.09.2-.06-.2-.07-.25-.01-.04-.09-.46-.06-.25-.04-.33-.04-.68,0-1.01-.03.19.01-.05.02-.09.02-.09.04-.19.06-.28.04-.16.09-.33.14-.49.03-.09.06-.17.09-.26.06-.17-.04.11-.05.11,0,0,.08-.15.08-.16.02-.04.05-.07.06-.11.09-.18-.17.17-.02.02.03-.03.06-.07.09-.1l.05-.05c.09-.08.07-.06-.05.04.03-.07.26-.15.32-.19.14-.08-.25.07.04-.01.1-.03.21-.06.31-.09.57-.15.97-.81.79-1.38s-.77-.95-1.38-.79h0Z"/>
      <path d="M65.63,204.08c-.46,3.07-.27,6.29,1.24,9.07,1.24,2.28,3.35,4.08,5.79,4.95,5.2,1.85,10.69-1.62,12.47-6.57,1.18-3.28.68-6.9-.75-10.02-.6-1.31-2.54-.17-1.94,1.14,1.9,4.15,1.4,9.53-2.57,12.29-3.57,2.49-8.22,1.39-10.61-2.19-1.57-2.35-1.88-5.33-1.47-8.08.09-.61-.15-1.2-.79-1.38-.53-.15-1.29.19-1.38.79h0Z"/>
      <path d="M50.15,216.68c3.11-2.55,6.23-5.26,9.55-7.52,2.92-1.99,6.16-3.44,9.55-4.4,6.98-1.98,14.48-1.98,21.56-.53,4.04.82,7.98,2.12,11.69,3.91,1.3.63,2.44-1.31,1.14-1.94-13.33-6.43-30.9-7.76-43.89.26-1.84,1.13-3.47,2.51-5.16,3.85-2.01,1.6-4.04,3.16-6.03,4.79-1.12.92.48,2.5,1.59,1.59h0Z"/>
      <path d="M92.5,223.73c-2.03,1.77-4.08,3.78-6.41,5.16-2.17,1.28-4.63,2.05-7.13,2.35-5.07.61-10.32-.48-14.83-2.83-.86-.45-1.61.85-.76,1.3,4.86,2.53,10.49,3.71,15.94,2.99,2.58-.34,5.12-1.11,7.38-2.42,2.51-1.45,4.69-3.59,6.86-5.49.73-.64-.34-1.69-1.06-1.06h0Z"/>
      <path d="M91.55,218.61c-2.01,1.75-4.03,3.74-6.33,5.1-2.11,1.25-4.51,1.99-6.94,2.3-5,.62-10.19-.47-14.64-2.78-1.28-.67-2.42,1.27-1.14,1.94,4.92,2.56,10.61,3.76,16.13,3.05,2.65-.34,5.25-1.13,7.57-2.47,2.53-1.46,4.74-3.63,6.94-5.54,1.09-.95-.5-2.54-1.59-1.59h0Z"/>
      <path d="M74.52,202.27c-.83.22-1.57.65-2.06,1.37-.33.49-.53,1.14-.65,1.72-.38,1.86.06,3.81,1.66,4.95,1.47,1.04,3.46.77,4.7-.49,1.35-1.37,1.46-3.42.68-5.1-.39-.85-1.07-1.64-1.91-2.08-.78-.41-1.57-.52-2.43-.35-.58.11-.96.84-.79,1.38.2.62.76.91,1.38.79.05,0,.11-.02.15-.03-.08.03-.27.02-.03.01.06,0,.12,0,.18,0-.05,0-.24-.06-.03,0,.07.02.14.03.21.06.05.02.33.15.12.04.12.06.23.13.34.19.04.02.16.13,0,0,.05.04.1.08.15.13.1.09.18.19.27.28.21.22-.06-.11.04.05.04.07.09.14.14.21.08.13.15.27.22.41.08.15-.04-.14,0,.02.02.07.05.13.07.2.05.15.08.31.12.46,0,.04.02.22,0,.01,0,.11.02.21.02.32,0,.14,0,.28-.02.42,0-.05.04-.2,0,.01-.02.07-.03.14-.05.2s-.04.13-.06.2c-.07.22-.02.05,0,0-.07.14-.15.27-.23.41-.11.18-.02.03,0,0-.05.06-.1.12-.16.17-.04.04-.09.09-.14.13-.03.02-.18.14-.07.06.14-.1-.12.07-.12.07-.05.03-.11.06-.16.09-.04.02-.2.09.02,0-.09.03-.17.06-.26.09-.06.02-.12.03-.18.04-.08.02-.18-.01.02,0-.12,0-.25,0-.37,0,.21,0,.09.02.02,0s-.15-.04-.22-.06c-.03-.01-.22-.07-.08-.02.14.05-.09-.05-.12-.06-.07-.04-.14-.08-.2-.12-.03-.02-.19-.14-.08-.05s-.04-.04-.07-.06c-.06-.05-.11-.11-.17-.17-.04-.05-.08-.09-.12-.14.03.04.12.18,0,0-.08-.13-.16-.27-.23-.41.09.2-.06-.2-.07-.25-.01-.04-.09-.46-.06-.25-.04-.33-.04-.68,0-1.01-.03.19.01-.05.02-.09.02-.09.04-.19.06-.28.04-.16.09-.33.14-.49.03-.09.06-.17.09-.26.06-.17-.04.11-.05.11,0,0,.08-.15.08-.16.02-.04.05-.07.06-.11.09-.18-.17.17-.02.02.03-.03.06-.07.09-.1l.05-.05c.09-.08.07-.06-.05.04.03-.07.26-.15.32-.19.14-.08-.25.07.04-.01.1-.03.21-.06.31-.09.57-.15.97-.81.79-1.38s-.77-.95-1.38-.79h0Z"/>
      <polygon points="67.5 345.13 68.78 347.12 73.8 341.89 69.26 342.24 67.5 345.13"/>
      <path d="M106.22,243.09c6.26-6.25,8.11-15.54,8.15-24.09s-1.51-17.62-6.15-24.71c-2.1-3.21-4.95-5.93-8.45-7.56-3.29-1.54-7.23-1.85-10.82-2.18-8.43-.77-16.96-.29-25.33.88-7.86,1.09-15.77,2.81-23.16,5.76-2.84,1.13-5.76,2.42-8.24,4.25-3.61,2.66-5.42,7.56-6.48,11.76-4.28,16.91,5.31,34.53,19.86,43.13,8.58,5.07,18.75,6.79,28.62,6.51,9.43-.26,18.61-3.46,26.25-8.97,1.97-1.42,3.83-2.97,5.6-4.63,1.06-1-.54-2.58-1.59-1.59-6.59,6.21-14.71,10.63-23.65,12.26-4.58.84-9.24.82-13.86.46s-9.61-1.28-14.13-2.99c-15.09-5.71-26.76-21.27-25.84-37.69.23-4.14,1.28-8.33,3.15-12.04.95-1.88,2.16-3.61,3.95-4.77,1.17-.77,2.41-1.44,3.67-2.06,6.34-3.1,13.35-4.89,20.25-6.2,7.89-1.5,15.95-2.27,23.99-2.16,3.7.05,7.42.28,11.08.86,1.68.27,3.49.49,5.07,1.16s3.2,1.66,4.54,2.84c5.93,5.17,8.12,13.6,9.07,21.11,1.02,8.01.39,17.24-3.61,24.4-.97,1.73-2.14,3.29-3.54,4.69-1.03,1.02.56,2.62,1.59,1.59h0Z"/>
      <path d="M147.98,235.34c-7.21-3.81-11.33-11.5-13.72-19.01s-3.76-16.77-1.41-24.68c1.06-3.57,3.16-7.3,6.31-9.45,2.76-1.88,6.09-3.19,9.18-4.39,7.23-2.8,14.83-4.67,22.47-5.92,7.23-1.18,14.63-1.81,21.95-1.41,2.91.16,5.82.49,8.64,1.22,4.01,1.03,6.78,4.09,9.03,7.43,9.17,13.53,6.26,32-3.82,44.2-5.96,7.21-13.96,11.57-22.7,14.58-9.33,3.21-19.28,3.37-28.7.38-2.43-.77-4.78-1.74-7.07-2.86-1.29-.64-2.44,1.3-1.14,1.94,9.32,4.58,19.74,6.44,30.03,4.66,4.9-.85,9.69-2.55,14.22-4.57s8.89-4.63,12.6-7.98c12.42-11.21,18.3-30.14,11.56-45.91-1.71-4.01-4.23-7.92-7.49-10.85-2.73-2.45-5.92-3.35-9.45-3.9-7.26-1.12-14.73-.8-22.01.03-8.23.94-16.42,2.62-24.3,5.21-3.68,1.21-7.32,2.63-10.79,4.37-1.61.8-3.2,1.62-4.56,2.79-1.5,1.3-2.8,2.85-3.84,4.55-4.51,7.4-4.16,17.35-2.38,25.53s5.08,16.71,11.33,22.47c1.48,1.37,3.13,2.55,4.92,3.5,1.28.68,2.42-1.26,1.14-1.94h0Z"/>
    </g>
  </g>
</svg>