<?xml version="1.0" encoding="UTF-8"?>
<svg id="Layer_2" data-name="Layer 2" xmlns="http://www.w3.org/2000/svg" xmlns:xlink="http://www.w3.org/1999/xlink" viewBox="0 0 316.57 467.75">
  <defs>
    <style>
      .cls-1 {
        fill: url(#Namnlös_övertoning_341-2);
      }

      .cls-2 {
        fill: #d68569;
        opacity: .5;
      }

      .cls-3 {
        fill: url(#Namnlös_övertoning_341);
      }

      .cls-4 {
        stroke-width: 12px;
      }

      .cls-4, .cls-5 {
        fill: none;
        stroke: #000;
        stroke-miterlimit: 10;
      }

      .cls-6 {
        fill: #e0bf6c;
      }

      .cls-5 {
        stroke-width: 3px;
      }

      .cls-7 {
        fill: #efdfcb;
      }
    </style>
    <linearGradient id="Namnlös_övertoning_341" data-name="Namnlös övertoning 341" x1="50.18" y1="143.12" x2="108.53" y2="190.57" gradientTransform="translate(78.49 21.71) rotate(6.58)" gradientUnits="userSpaceOnUse">
      <stop offset="0" stop-color="#fff"/>
      <stop offset="1" stop-color="#004d37"/>
    </linearGradient>
    <linearGradient id="Namnlös_övertoning_341-2" data-name="Namnlös övertoning 341" x1="156.06" y1="144.53" x2="208.62" y2="187.27" xlink:href="#Namnlös_övertoning_341"/>
  </defs>
  <g id="Lager_1" data-name="Lager 1">
    <g>
      <path class="cls-4" d="M303.42,103.68c-3.59-12.12-8.83-23.84-16.19-34.14-3.91-5.48-8.43-10.31-13.27-14.97-6.64-6.39-13.16-12.97-20.78-18.21-14.93-10.28-32.03-17.1-49.41-21.99-18.6-5.23-37.92-8.58-57.29-8.36-17.46.19-34.84,3.43-50.83,10.53-14.66,6.51-28.04,16.29-37.82,29.09-2.49,3.27-4.62,6.87-4.86,11.07,0,.02,0,.03,0,.05-.11.02-.22.05-.33.11-16.68,8.42-27.73,25.11-34.49,42.02-8.36,20.91-10.45,43.78-11.5,66.08-.49,10.38-.94,20.75-.43,31.14.22,4.52.35,9.04.64,13.56.89,13.55,3.07,27.05,7.39,39.95,5.64,16.85,14.87,32.34,27.33,45.03,1.75,1.78,3.56,3.5,5.42,5.17-.68,9.55-1.85,19.06-3.56,28.49-2.91,16.06-7.33,31.82-13.13,47.07-2.77,7.29-5.86,14.45-9.19,21.5,0,0,0,0,0,0-.22.31-.27.71,0,1.13,7.65,11.64,18.09,21.54,29.04,30.07,10.32,8.04,21.59,14.8,33.65,19.89,6.08,2.56,12.34,4.7,18.73,6.38,6.56,1.72,13.21,2.81,19.92,3.75,14.46,2.03,29.02,3.86,43.64,3.63,16.95-.27,33.54-3.63,49.12-10.34.38-.16.55-.44.58-.73.03-.16.01-.34-.06-.54-3.74-9.78-6.06-20.03-6.35-30.51-.26-9.77,1.18-19.47,3.54-28.93,1.46-5.83,3.25-11.58,5.17-17.27.12-.35.07-.64-.08-.87,4.19-3.89,8.26-7.92,12.36-11.91,3.14-3.06,6.29-6.11,9.54-9.05,3.3-2.99,6.5-6.03,9.42-9.4,5.87-6.78,11.08-14.25,16.03-21.72,4.78-7.22,7.77-15.37,10.29-23.6,1.29-4.2,2.48-8.44,3.79-12.63.83-2.65,1.74-5.25,2.34-7.96,1.23-5.57,1.86-11.28,2.41-16.95,1.26-13.08,1.76-26.21,2.48-39.32.3-5.49.44-11.11,1.51-16.52.52-2.63,1.34-5.16,2.44-7.61.93-2.06,1.89-4.11,2.49-6.3.87-3.19,1.14-6.52,1.25-9.81.06-.02.11-.04.17-.05.13,13.17-1.28,26.32-4.23,39.16-.18.78.35,1.33,1.08,1.42,4.11.52,8.23.9,12.36,1.16.66.04,1.06-.55,1.12-1.12.12-1.05.17-1.39.33-2.5.18-1.22.36-2.44.55-3.65.5-3.32,1-6.65,1.45-9.98,1.28-9.39,2.27-18.82,2.82-28.28.68-11.69.73-23.44-.15-35.12-.94-12.53-2.92-25.03-6.49-37.09Z"/>
      <polygon class="cls-7" points="22.17 396.8 36.25 414.33 54.05 429.63 77.17 443.72 104.97 453.8 141.79 459.4 171.47 461.36 199.89 455.74 214.67 450.41 208.52 424.06 210.13 398.26 217.3 371.66 243.44 346.82 257.76 329.46 268.76 312.19 278.77 282.7 282.62 263.81 285.71 217.46 287.48 201.54 292.48 189.28 293.35 180.4 272.19 85.36 112.89 69.82 29.58 137.92 16.16 206.28 44.68 290.33 48.14 300.88 44.61 331.73 32.94 371.54 22.17 396.8"/>
      <polygon class="cls-2" points="126.77 302.43 145.2 297.42 160.72 295.77 169.32 296.24 175.19 298.24 183.24 298.58 191.39 297.96 195.94 299.1 209.43 305.28 220.27 311.03 197.96 318.3 190.64 320.38 175.28 321.28 160.38 318.3 150.52 315.09 126.77 302.43"/>
      <path class="cls-6" d="M48.97,265.85l-.6,32.66-6.4-5.1-13.45-16.77-10.2-19.36-6.31-19.7-3.11-17.85-1.82-29.66,1.74-41.61,3.94-27.52,9.75-29.16,14.41-21.49,17.18-13.62,3.31-9.34,15.59-15.69,20.81-13.05,22.99-8.01,27.78-3.9,34.35,3.16,34.99,8.79,30.01,13.21,18.29,13.12,16.38,15.77,9.99,12.78,10.44,20.68,6.6,20.24,3.01,24.49.52,37.23-5.34,43.82-12.6-1.07,3.6-20.11.87-20.66-8.96,2.9-4.97-30.13-2.72,22.65-5.25-2.13-4.44.98-8.43-30.66-12.72-24.53-6.63-8.28-3.63-1.1,1.75,5.63,5.86,14.69,1.5,13.54-1.18,14.79-2.4,13.64-18.96-7.25-7.76-33.76-7.57-17.44-8.32-11.64-12.02-9.94.62,13.01,5.83,13.27,9.64,12.38,3.21,2.74-14.77,19.03-14.34-7.7-11.9-10.65-10.52-16.13-5.68-19.59-.09-12.79-.86,4.62-10.57,63.98-18.45,1.49-2.52-33.11-6.05-23.86-7.03,49.54-8.89-16.91-4.26-15.84-4.74,28.91.02,23.96-11.19,10.12-13.12-35-.85,30.94,6.42,36.71,3.71,11.54-13.63,6.89-7.56-19.13-4.15-20.18-4.91-9.9s-6.46-1.82-7.23-1.8c-4.66.09-7.25,3.5-6.54,3.57l-3.88,10.35-1.35,27.42,6.15,28.42,13.55,17.1,6.08,2.37Z"/>
      <path d="M47.85,265.85c.72,16.41,4.66,32.37,11.85,47.15,6.83,14.04,15.77,27.28,27.28,37.88s25.37,19.58,37.73,29.78c2.96,2.44,5.67,5.18,8.65,7.58,3.19,2.56,6.87,4.33,10.72,5.67,8.06,2.8,16.7,4.72,25.23,5.12s16.76-.2,23.52-5.12c2.86-2.08,5.36-4.58,7.99-6.94,3.07-2.76,6.46-5.12,9.63-7.75,7-5.81,13.44-12.26,19.94-18.6,3.14-3.06,6.29-6.11,9.54-9.05s6.5-6.03,9.42-9.4c5.87-6.78,11.08-14.25,16.03-21.72s7.77-15.37,10.29-23.6c1.29-4.2,2.48-8.44,3.79-12.63.83-2.65,1.74-5.25,2.34-7.96,1.23-5.57,1.86-11.28,2.41-16.95,1.26-13.07,1.76-26.21,2.48-39.32.3-5.49.44-11.11,1.51-16.52.52-2.63,1.34-5.16,2.44-7.61.93-2.06,1.89-4.11,2.49-6.3.92-3.35,1.17-6.86,1.26-10.32.04-1.45-2.21-1.45-2.25,0-.09,3.43-.34,6.9-1.32,10.21-.61,2.07-1.57,3.99-2.43,5.97-2.31,5.29-3.05,10.89-3.47,16.6-.88,11.99-1.23,24.02-2.05,36.02-.78,11.29-1.46,22.86-4.98,33.69-2.67,8.22-4.72,16.65-7.87,24.71-1.57,4.02-3.46,7.92-5.75,11.58s-5,7.36-7.56,10.98c-5.14,7.23-10.66,14.1-17.3,20.02s-12.66,12.08-18.97,18.14c-3.19,3.06-6.43,6.08-9.78,8.96-3.15,2.7-6.55,5.09-9.71,7.77-5.42,4.6-10.13,10.19-17.33,11.91-4.4,1.05-9.14,1.19-13.64,1.02s-8.63-.77-12.86-1.67c-7.89-1.69-16.72-3.73-22.96-9.15-2.83-2.46-5.54-5.02-8.44-7.39s-5.97-4.74-9.01-7.04c-6.34-4.8-12.78-9.47-18.99-14.44s-12-10.09-17.18-15.96-9.36-12.31-13.29-18.92c-8-13.45-13.65-28.1-15.96-43.62-.63-4.23-1-8.49-1.19-12.75-.06-1.44-2.31-1.45-2.25,0h0Z"/>
      <path d="M47.57,268.7c.69,19.94-.56,39.96-4.12,59.6-2.91,16.06-7.33,31.82-13.13,47.07-2.77,7.29-5.86,14.45-9.19,21.5-.62,1.3,1.32,2.45,1.94,1.14,6.26-13.24,11.64-26.9,15.82-40.94,5.12-17.2,8.45-34.91,10.03-52.79,1.04-11.83,1.31-23.72.9-35.58-.05-1.44-2.3-1.45-2.25,0h0Z"/>
      <path d="M215.96,372.8c-3.37,9.93-6.32,20.07-7.8,30.47-1.39,9.81-1.39,19.72.35,29.49,1.09,6.14,2.85,12.13,5.07,17.95.51,1.34,2.69.76,2.17-.6-3.74-9.78-6.06-20.03-6.35-30.51-.26-9.77,1.18-19.47,3.54-28.93,1.46-5.83,3.25-11.58,5.17-17.27.47-1.37-1.71-1.96-2.17-.6h0Z"/>
      <path d="M21.14,398.01c7.65,11.64,18.09,21.54,29.04,30.07,10.32,8.04,21.59,14.8,33.65,19.89,6.08,2.56,12.34,4.7,18.73,6.38s13.21,2.81,19.92,3.75c14.46,2.03,29.02,3.86,43.64,3.63,16.95-.27,33.54-3.63,49.12-10.34,1.33-.57.18-2.51-1.14-1.94-13.84,5.96-28.61,9.23-43.65,9.91-14.2.63-28.39-.84-42.45-2.74-6.89-.93-13.79-1.84-20.57-3.38-6.2-1.41-12.3-3.26-18.25-5.52-12.06-4.58-23.44-10.91-33.85-18.52-5.83-4.27-11.35-8.95-16.56-13.96-5.82-5.6-11.25-11.58-15.7-18.34-.79-1.21-2.74-.08-1.94,1.14h0Z"/>
      <path d="M48.61,192.12c-.55-4.39-1.15-9.48-3.75-13.22-1.43-2.06-3.41-3.23-5.84-3.71-1.19-.24-2.47-.53-3.68-.58-2.41-.12-4.59,1.12-6.25,2.78-3.42,3.43-4.85,7.83-5.55,12.48-1.65,11-1.46,22.01-.27,33.05.71,6.6,1.36,13.33,3.43,19.67,1.52,4.66,4.07,8.75,7.07,12.61,1.64,2.1,3.4,4.15,5.21,6.1,2.13,2.3,4.61,4.59,7.7,5.47,5.42,1.54,10.57-3.31,10.18-8.73-.1-1.44-2.35-1.45-2.25,0,.16,2.28-.75,4.42-2.66,5.74s-4.09,1.27-6.15.24c-2.35-1.18-4.22-3.16-5.94-5.09-1.44-1.62-2.88-3.26-4.22-4.96-2.63-3.34-5.02-6.98-6.44-11-2-5.7-2.71-11.67-3.41-17.64-1.2-10.25-1.67-20.45-.59-30.72.4-3.82.72-7.94,2.52-11.39,1.12-2.14,2.58-4.38,4.72-5.62,1.5-.87,2.92-.75,4.54-.48,2.09.34,4.05.7,5.51,2.37,1.05,1.2,1.68,2.74,2.17,4.24.89,2.72,1.36,5.58,1.71,8.41.18,1.42,2.43,1.44,2.25,0h0Z"/>
      <path d="M155.31,246c-2.5,2.58-4.44,5.86-4.91,9.47s1.23,6.57,4.74,7.46c3.87.98,7.35-1.03,11.05-1.75,1.72-.33,3.79-.34,5.25.76s2.06,3.12,3.03,4.65c3.24,5.12,11.49,7.12,16.1,2.73.79-.75,1.42-1.67,2.36-2.25,1.66-1,3.55-1.45,5.48-1.18,3.7.53,6.95,3.15,10.65,1,6.21-3.62,4.53-12.8.77-17.56-.9-1.14-2.48.47-1.59,1.59,2.84,3.59,4.51,11.25-.31,14.03-1.58.91-3.15.59-4.79,0s-3.37-1.22-5.2-1.36c-2.66-.21-5.59.74-7.52,2.61-.68.66-1.24,1.45-2.02,2.02-1.19.87-2.74,1.31-4.2,1.3-2.72-.03-5.73-1.36-7.42-3.51-1.86-2.37-2.39-5.4-5.44-6.66s-6.47-.21-9.55.74c-2.91.9-8.28,1.96-9.17-2.29-.76-3.65,1.86-7.73,4.26-10.21,1.01-1.04-.58-2.63-1.59-1.59h0Z"/>
      <path d="M191.77,266.49c2.79-3.51,4.51-7.55,4.8-12.04s-.68-8.81-1.67-13.08c-1.18-5.07-2.47-10.12-3.07-15.3-.74-6.39-.45-12.83,1-19.1,1.91-8.26,5.2-18.3,14.28-20.95.92-.27.53-1.72-.4-1.45-3.56,1.04-6.71,3.46-9.03,6.34s-3.62,6.78-4.78,10.29c-2.14,6.48-3.19,13.31-2.93,20.14.21,5.51,1.26,10.93,2.51,16.29,1.06,4.52,2.34,9.08,2.6,13.73.29,5.18-1.12,9.98-4.36,14.06-.59.75.46,1.82,1.06,1.06h0Z"/>
      <path d="M127.07,303.52c11.62-4.06,23.61-6.47,35.93-6.7,3.36-.06,6.32.48,9.46,1.65s6.12,1.76,9.51,1.4c3.12-.34,6.26-1.14,9.42-.78s6.28,1.86,9.19,3.16c6.54,2.92,12.79,6.44,19.12,9.76,1.28.67,2.42-1.27,1.14-1.94-5.8-3.04-11.51-6.25-17.46-9-2.94-1.36-5.97-2.81-9.1-3.67s-6.12-.63-9.25-.18c-3.36.48-6.55.92-9.85-.13s-6.06-2.27-9.45-2.46c-3.1-.18-6.26.06-9.36.28s-6.12.54-9.15,1.03c-7.04,1.14-14.03,3.08-20.76,5.43-1.36.47-.77,2.65.6,2.17h0Z"/>
      <path d="M194.18,318.17c-14.34,5.03-29.61.66-43.36-4.16-1.37-.48-1.96,1.69-.6,2.17,14.12,4.95,29.84,9.32,44.56,4.16,1.36-.48.77-2.65-.6-2.17h0Z"/>
      <path d="M141.4,307.18c20.1-2.99,40.62.05,60.45,3.54.94.17,1.35-1.28.4-1.45-15.92-2.81-32.01-5.19-48.22-4.68-4.36.14-8.71.49-13.03,1.14-.95.14-.55,1.59.4,1.45h0Z"/>
      <path d="M48.6,298.22c-13.43-12.07-23.81-27.13-30.29-43.98-5-12.99-7.72-26.72-8.89-40.56-1.1-13.04-1.4-26.19-.91-39.26.84-22.51,2.08-45.41,8.97-67.02,5.54-17.35,15.26-35.01,30.73-45.36,1.79-1.2,3.65-2.27,5.56-3.24,1.29-.65.16-2.59-1.14-1.94-16.68,8.42-27.73,25.11-34.49,42.02-8.36,20.91-10.45,43.78-11.5,66.08-.49,10.38-.94,20.75-.43,31.14.22,4.52.34,9.04.64,13.56.89,13.55,3.07,27.05,7.39,39.95,5.64,16.85,14.87,32.34,27.33,45.03,1.75,1.78,3.56,3.5,5.42,5.18,1.07.97,2.67-.62,1.59-1.59h0Z"/>
      <path d="M55.22,56.7c.24-4.34,2.98-8.01,5.61-11.27s5.24-6.04,8.15-8.77c5.81-5.45,12.34-10.1,19.31-13.95,14.59-8.07,30.95-12.56,47.53-13.95,19.15-1.6,38.43.7,57.07,5.12,17.46,4.14,34.74,9.94,50.36,18.9,3.92,2.25,7.76,4.66,11.37,7.37s7.07,5.81,10.4,8.94c5.54,5.23,11.26,10.41,16.16,16.27,7.98,9.55,13.86,20.74,17.98,32.45s6.56,23.89,7.88,36.18c1.25,11.67,1.52,23.44,1.09,35.17-.36,9.89-1.21,19.76-2.43,29.57-.78,6.3-1.78,12.56-2.68,18.84-.13.91-.26,1.82-.36,2.74l1.12-1.12c-4.13-.26-8.26-.64-12.36-1.16l1.08,1.42c3.11-13.53,4.56-27.42,4.3-41.3-.01-.72-.71-1.29-1.42-1.08-1.51.44-2.99.97-4.47,1.49-.76.27-1.52.54-2.28.79-.31.1-.72.16-1,.32-.35-.04-.47.07-.36.32.04.29.04.27,0-.07.09-3.46-.35-7.03-.8-10.45-.87-6.67-2.71-13.05-4.22-19.59-.29-1.24-2.22-.96-2.21.3.04,7.75-.65,15.47-2.09,23.08l1.88-.5c-3.07-2.67-7.44-3.21-11.05-1.32l1.65.67c-3.17-20.13-10.71-39.57-21.98-56.55-2.45-3.69-5.86-9.8-11.2-8.57-.58.13-.96.82-.79,1.38,1.24,3.88,3.15,7.48,4.85,11.17s2.97,7.59,3.7,11.61c1.49,8.15.96,16.58-.2,24.74-.66,4.67-1.54,9.3-2.44,13.92l1.38-.79c-6.25-2.28-12.86-3.38-19.12-5.66l.83,1.08c.04-6.2-1.38-12.27-2.82-18.26s-2.93-11.69-4.83-17.4c-3.42-10.29-8.15-20.22-15.25-28.5-3.77-4.39-8.19-8.22-13.18-11.17-.75-.45-1.67.13-1.69.97-.52,16.14,6.93,32.21,19.62,42.2v-1.59c-4.92,6.34-9.85,12.68-14.77,19.03l1.09-.29c-20.2-7.91-35.5-25.61-40.44-46.73-1.46-6.25-2-12.66-1.64-19.06.08-1.46-2.11-1.42-2.25,0-1.78,18.16-4.77,36.18-8.19,54.1-.97,5.06-1.97,10.12-3,15.17l.79-.79c-6.16.89-12.4,1.01-18.59.43l1.12,1.12c.83-19.62-1.82-39.33-7.79-58.04-.32-1-1.92-1.14-2.17,0-3.68,17.01-6.13,34.28-7.31,51.64l2.1-.57c-5.92-10.77-12.09-22.09-12.53-34.66-.04-1.24-1.87-1.56-2.21-.3-4.75,17.79-6.51,36.32-5.16,54.68l.83-1.08c-5.43,2.19-9.61,6.62-11.4,12.2l2.06-.27c-5.65-12.82-10.16-26.12-13.52-39.72-.33-1.33-2.07-.88-2.21.3-2.67,21.79-1.33,44.04,3.9,65.37,1.48,6.02,3.27,11.96,5.36,17.79l.79-1.38c-4.78,1.98-9.48,4.16-14.08,6.54l1.54.4c-5.71-10.79-10.19-22.18-11-34.47-.09-1.44-2.35-1.45-2.25,0,.84,12.7,5.4,24.46,11.3,35.61.29.56,1.02.67,1.54.4,4.43-2.29,8.94-4.4,13.55-6.31.53-.22,1.01-.75.79-1.38-7.34-20.49-10.92-42.26-10.5-64.02.12-6.2.56-12.38,1.32-18.54l-2.21.3c3.41,13.79,8.02,27.25,13.75,40.25.42.95,1.79.56,2.06-.27,1.53-4.77,5.17-8.75,9.83-10.63.44-.18.86-.56.83-1.08-1.33-18.17.38-36.47,5.08-54.08l-2.21-.3c.45,12.99,6.71,24.67,12.84,35.8.57,1.03,2.02.49,2.1-.57,1.17-17.17,3.59-34.23,7.23-51.04h-2.17c5.92,18.53,8.53,38,7.71,57.44-.03.65.54,1.07,1.12,1.12,6.41.61,12.83.42,19.19-.51.36-.05.72-.44.79-.79,3.69-18.09,7.07-36.25,9.5-54.55.68-5.1,1.28-10.2,1.78-15.32h-2.25c-1.3,23.06,9.31,45.54,27.86,59.24,4.88,3.6,10.22,6.51,15.86,8.72.33.13.87,0,1.09-.29,4.92-6.34,9.85-12.68,14.77-19.03.34-.43.52-1.18,0-1.59-12.27-9.65-19.46-25-18.96-40.61l-1.69.97c18.98,11.22,26.68,33.22,31.68,53.48,1.61,6.53,3.33,13.14,3.29,19.91,0,.53.36.91.83,1.08,6.25,2.28,12.86,3.38,19.12,5.66.54.2,1.27-.22,1.38-.79,3.14-16.16,6.36-33.71-.18-49.48-1.83-4.42-4.28-8.58-5.74-13.16l-.79,1.38c2.19-.51,4.02,1.27,5.32,2.81,1.51,1.79,2.78,3.85,4.05,5.81,2.61,4.01,5.01,8.15,7.19,12.4,4.4,8.55,7.9,17.55,10.46,26.81,1.43,5.17,2.55,10.42,3.39,15.71.12.76,1.08.97,1.65.67,2.68-1.4,6.04-1.02,8.33.97.58.51,1.71.4,1.88-.5,1.48-7.81,2.22-15.73,2.17-23.68l-2.21.3c1.72,7.43,3.79,14.67,4.52,22.3.18,1.9.31,3.8.38,5.71.04,1.2-.17,2.94,1.17,3.53,1.26.55,3.32-.57,4.52-.99,1.76-.62,3.51-1.26,5.31-1.79l-1.42-1.08c.26,13.69-1.15,27.36-4.22,40.7-.18.78.35,1.33,1.08,1.42,4.11.52,8.23.9,12.36,1.16.66.04,1.06-.55,1.12-1.12.12-1.05.17-1.39.33-2.5.18-1.22.36-2.44.55-3.65.5-3.32,1-6.65,1.45-9.98,1.28-9.39,2.27-18.82,2.82-28.28.68-11.69.72-23.44-.15-35.12-.94-12.53-2.92-25.03-6.49-37.09-3.59-12.12-8.83-23.84-16.19-34.14-3.91-5.48-8.43-10.31-13.27-14.97-6.64-6.39-13.16-12.97-20.78-18.21-14.93-10.28-32.03-17.1-49.41-21.99-18.6-5.23-37.92-8.58-57.29-8.36-17.46.19-34.84,3.43-50.84,10.53-14.66,6.51-28.04,16.29-37.82,29.09-2.49,3.27-4.63,6.87-4.86,11.07-.08,1.45,2.17,1.44,2.25,0h0Z"/>
      <path class="cls-5" d="M180.73,202.65c14.2-13.16,19.04,2.01,19.04,2.01"/>
      <g>
        <path class="cls-3" d="M101.39,193.86c-4.89-22.2,13.4-22.72,30.3-20.48,26.67,1.74,72.39,20.84,34.83,46.93-11.6,7.2-27.05,11.58-39.76,5.74-12.77-6.1-21.52-18.33-25.29-31.87"/>
        <path class="cls-1" d="M278.42,214.27c9.82-20.5-7.88-25.17-24.84-26.84-26.36-4.38-75.23,3.81-44.6,37.77,9.66,9.65,23.7,17.43,37.41,14.64,13.82-3.03,25.13-12.95,31.88-25.28"/>
        <path d="M102.84,193.46c-1.18-5.48-1.52-12.34,3.46-16.11,4.34-3.29,10.54-3.48,15.74-3.32,3.24.1,6.43.53,9.65.85,2.93.29,5.84.57,8.74,1.1,6.42,1.16,12.76,2.95,18.79,5.44,5.34,2.21,10.72,5.05,14.89,9.12,3.2,3.12,5.68,7.26,5.04,11.88-.85,6.19-6.16,11.14-10.85,14.74-7.05,5.43-16.2,9.12-25.08,9.93-4.4.4-8.85.07-13.06-1.31-3.95-1.3-7.66-3.59-10.87-6.21-6.42-5.23-11.33-12.23-14.4-19.91-.77-1.92-1.42-3.89-1.99-5.88-.52-1.86-3.42-1.07-2.89.8,4.72,16.75,17.96,33.75,36.38,35.52,9.61.93,19.38-2.13,27.75-6.68,4.06-2.21,7.82-5.05,11.06-8.34,2.31-2.34,4.38-5.01,5.68-8.04,2.14-5,1.55-10.4-1.52-14.87-3.42-5-8.72-8.52-14.05-11.21-12.36-6.25-25.99-8.65-39.67-9.71-6.18-.48-12.97-.54-18.67,2.21s-8.12,8.52-7.89,14.64c.08,2.08.4,4.15.84,6.18.41,1.89,3.3,1.09,2.89-.8h0Z"/>
        <path d="M279.71,215.03c3.09-6.53,4.86-14.53-.49-20.4-4.59-5.03-12.12-6.76-18.56-7.8-12.93-2.08-26.06-2.89-38.99-.27-9.49,1.92-22.47,6.51-23.85,17.71-.75,6.07,2.36,12.01,5.82,16.76,5.75,7.89,13.84,14.19,22.87,17.92,4.57,1.89,9.51,3.02,14.47,2.96s9.44-1.36,13.82-3.25c8.55-3.69,15.77-10.06,21.15-17.6,1.31-1.84,2.51-3.76,3.6-5.74.93-1.69-1.66-3.21-2.59-1.51-8.2,14.86-24.99,28.31-42.92,24.39-9.05-1.98-17.86-7.44-24.14-14.2-4.11-4.42-8.45-10.26-9.12-16.46-.46-4.27,1.25-7.96,4.45-10.79,3.71-3.29,8.63-5.12,13.35-6.38,11.22-3.01,23.15-3.09,34.59-1.48,6.7.94,13.71,1.45,19.78,4.74,2.34,1.27,4.45,2.97,5.69,5.37,1.38,2.67,1.29,5.81.61,8.66-.48,2.03-1.24,3.99-2.13,5.87-.82,1.74,1.76,3.26,2.59,1.51h0Z"/>
      </g>
    </g>
  </g>
</svg>